<?xml version="1.0" encoding="UTF-8"?>
<svg id="Layer_1" data-name="Layer 1" xmlns="http://www.w3.org/2000/svg" viewBox="0 0 262.89 34.02">
  <defs>
    <style>
      .cls-1, .cls-2 {
        fill: #00b3dd;
      }

      .cls-2, .cls-3 {
        fill-rule: evenodd;
      }
    </style>
  </defs>
  <g id="Layer_1-2" data-name="Layer_1">
    <polygon class="cls-1" points="259.49 15.31 240.78 15.31 240.78 3.4 262.89 3.4 262.89 0 237.38 0 237.38 34.02 262.89 34.02 262.89 30.61 240.78 30.61 240.78 18.71 259.49 18.71 259.49 15.31"/>
    <polygon class="cls-3" points="105.99 0 105.99 25.57 81.39 0 81.39 34.02 84.8 34.02 84.8 8.45 109.39 34.02 109.39 0 105.99 0"/>
    <polygon class="cls-3" points="0 0 3.4 0 3.4 14.15 20.27 0 25.56 0 5.29 17.01 25.56 34.02 20.27 34.02 3.4 19.86 3.4 34.02 0 34.02 0 17.01 0 0"/>
    <path class="cls-2" d="M53.86,4.23c3.62,1.27,6.54,4.04,8.01,7.56C63.06,7.86,64.24,3.93,65.42,0c-3.85,1.41-7.71,2.82-11.57,4.23Z"/>
    <path class="cls-3" d="M35.85,17.01c0-7.47,6.06-13.53,13.53-13.53,1.57,0,3.07.27,4.47.76l4.53-1.66C55.77.94,52.69,0,49.38,0,39.99,0,32.37,7.61,32.37,17.01s7.61,17.01,17.01,17.01,17.01-7.61,17.01-17.01c0-3.66-1.16-7.05-3.13-9.83l-1.39,4.62c.67,1.6,1.04,3.37,1.04,5.21,0,7.47-6.06,13.53-13.53,13.53s-13.53-6.06-13.53-13.53h0Z"/>
  </g>
  <path class="cls-1" d="M141.49,0v.02h-15.77v34h3.39v-11.92h12.38c6.1,0,11.05-4.95,11.05-11.05S147.59,0,141.49,0ZM141.49,18.69h-12.38V3.39h12.38c4.22.2,7.48,3.79,7.28,8.01-.19,3.94-3.34,7.09-7.28,7.28Z"/>
  <path class="cls-1" d="M216.03,18.64c5.13-.63,8.77-5.3,8.14-10.43C223.59,3.55,219.65.04,214.96,0h-16.16v34.02h3.4v-15.31h9.8l9.94,15.31h4.04l-9.96-15.38ZM214.96,15.31h-12.76V3.4h12.76c3.29,0,5.95,2.66,5.96,5.95,0,3.29-2.66,5.95-5.95,5.96h0Z"/>
  <path class="cls-1" d="M188.86,34.02L172.66,0l-16.2,34.02h3.58l3.86-8.09h17.52l3.85,8.09h3.6ZM165.44,22.67l7.21-15.13,7.21,15.13h-14.42Z"/>
</svg>