<?xml version="1.0" encoding="UTF-8"?>
<svg id="Layer_1" data-name="Layer 1" xmlns="http://www.w3.org/2000/svg" viewBox="0 0 112.11 24.21">
  <defs>
    <style>
      .cls-1 {
        fill: #0796dc;
      }

      .cls-2 {
        fill: #99abbe;
      }

      .cls-3 {
        fill: #002e5d;
      }

      .cls-4 {
        fill: #fff;
      }

      .cls-5 {
        fill: #dfdd00;
      }
    </style>
  </defs>
  <g>
    <path class="cls-4" d="M112.11,5.94c0-1.55-.6-3-1.7-4.09-1.09-1.09-2.55-1.7-4.09-1.7h-20.52s-44.55,0-44.55,0v18.11c0,1.55.6,3,1.7,4.09,1.09,1.09,2.55,1.7,4.09,1.7h20.52s44.55,0,44.55,0V5.94Z"/>
    <path class="cls-5" d="M111.84,23.78h-43.42V.41h37.9c3.05,0,5.52,2.45,5.52,5.5,0,0,0,2.05,0,1.8v16.07Z"/>
    <g>
      <path class="cls-2" d="M77.39,13.32h.77v4.83c-.14.11-.3.16-.45.16-.33,0-.53-.2-.66-.38l-2.4-3.4v3.72h-.78v-4.83c.14-.11.3-.16.45-.16.33,0,.54.2.66.38l2.39,3.4v-3.72ZM81.71,15.39h-1.04c-.39,0-.69-.28-.69-.68s.3-.69.69-.69c.42,0,1.16.07,1.56.07s.73-.13.84-.59c-.5-.15-1.37-.27-2.24-.27-.99,0-1.7.61-1.7,1.5s.7,1.45,1.6,1.45h1.04c.4,0,.69.28.69.7,0,.37-.3.66-.69.66-.42,0-1.25-.07-1.66-.07s-.73.12-.84.58c.5.15,1.47.27,2.34.27.99,0,1.71-.58,1.71-1.47s-.7-1.47-1.6-1.47ZM88.31,17.62c0,.39.32.71.71.71h.13v-5.02h-.85v4.3ZM72.06,17.62c0,.39.32.71.71.71h.13v-5.02h-.84v4.3ZM108.23,18.18v-.7h-2.85v-1.34h2.13v-.77h-2.13v-1.29h2.09c.4,0,.71-.32.71-.71v-.06h-3.65v4.93h3.7v-.06s0-.01,0-.01ZM89.78,13.32v.77h1.71v4.16h.84v-4.16h1c.39,0,.71-.32.71-.71v-.06h-4.27ZM99.58,13.32v.77h1.71v4.16h.84v-4.16h1c.39,0,.71-.32.71-.71v-.06h-4.27ZM83.42,13.32v.77h1.71v4.16h.85v-4.16h1c.39,0,.71-.32.71-.71v-.06h-4.27ZM98.18,13.93v.37h0v1.87c0,.77-.58,1.4-1.32,1.4s-1.34-.63-1.34-1.4v-2.85h-.85v2.85c0,1.2.98,2.17,2.18,2.17s2.18-.97,2.18-2.17v-2.93h-.14c-.39,0-.7.31-.7.7Z"/>
      <path class="cls-3" d="M80.18,6.13c1.58,0,2.86,1.28,2.86,2.86s-1.28,2.86-2.86,2.86-2.86-1.28-2.86-2.86,1.28-2.86,2.86-2.86ZM80.19,11c1.07,0,1.89-.89,1.89-2s-.82-2-1.89-2-1.91.89-1.91,2,.84,2,1.91,2ZM95.97,11.86h-.15c-.44,0-.8-.36-.8-.8v-1.66h-2.99v2.36h-.95v-5.63h.15c.44,0,.8.36.8.8v1.61h2.99v-2.31h.95v5.63ZM98.35,11.86h-.15c-.44,0-.8-.36-.8-.8v-4.83h.95v5.63ZM100.72,10.9h2.08c.44,0,.8.36.8.8v.06h-3.83v-5.54h.95v4.67ZM105.36,10.9h2.08c.44,0,.8.36.8.8v.06h-3.83v-5.54h.95v4.67ZM75.6,8.89c.34-.13.77-.51.77-1.14,0-.92-.68-1.61-1.78-1.61h-2.53v5.69c.78,0,2.63,0,2.65,0,1.18,0,1.86-.63,1.86-1.63,0-.69-.55-1.18-.96-1.31ZM73.01,6.99h1.41c.7,0,.98.33.98.79,0,.48-.28.8-.97.8h-1.42v-1.59ZM74.59,11s-1.05,0-1.58,0v-1.64h1.58c.7,0,1.01.33,1.01.82s-.31.81-1.01.81ZM87.41,9.67s-.01-.02-.02-.03c-.04-.04-.08-.07-.12-.1-.13-.08-.29-.13-.46-.14-.22,0-.46.12-.63.28l1.44,1.74c.27.32.45.4.73.4.23,0,.48-.11.64-.27l-1.58-1.89ZM85.81,9.49c-.07-.19-.2-.37-.37-.48,0,0,0,0,0,0l-2.11,2.55c.17.16.37.27.6.27.26,0,.45-.1.71-.4l1.02-1.18h0s0,0,0,0c.06-.09.12-.16.15-.23.04-.13.05-.29.02-.44,0-.02-.01-.05-.02-.07ZM84.78,6.57c-.28-.33-.46-.41-.72-.41-.23,0-.48.11-.65.28,0,0,1.45,1.8,1.46,1.81h0s0,0,0,0c.24.26.41.32.64.32s.48-.11.65-.28l-1.38-1.72ZM86.86,8.99l2.05-2.55c-.18-.17-.38-.28-.6-.28-.26,0-.45.11-.71.41l-.99,1.19h0s-.03.03-.04.05c-.03.05-.05.09-.07.14-.06.14-.07.31-.04.48.05.22.21.43.4.56Z"/>
    </g>
    <path class="cls-3" d="M41.52.41v17.86c0,3.05,2.47,5.52,5.51,5.52h20.52V.41h-26.04Z"/>
    <path class="cls-4" d="M53.46,8.21s.06.03.09.05c.31.16.79.15,1.06-.1.26-.24.59-.39.9-.54,1.35-2.61,2.37-3.27,2.98-3.59.26-.14.55-.22.8-.23.05,0,.07-.04.05-.09-.17-.44.58-.97.67-.94.08.03-.06.42.05.58.16.23.46.3.71.21.13-.07.23-.15.35-.29.06-.06.14-.5.23-.53s.18.29.19.32c.07.24.07.56-.09.74-.07.08-.11.18-.14.28-.07.23.06.36.19.54.09.14.24.24.32.4.07.13.04.26,0,.39-.01.04-.05.1-.05.15,0,.06.06.14.08.19.13.4.14.8.4,1.15.07.09.16.18.21.29.05.12.11.31.07.44-.05.18-.17.35-.24.52-.08.22-.24.39-.48.42-.2.03-.34-.11-.46-.26-.12-.15-.2-.25-.39-.3-.16-.04-.3-.09-.44-.17,0,0-.09-.05-.09-.05.02.01.03.03.04.06s.01.07.01.11c0,.2-.06.5-.06.59-.02.48-.08,1.05.05,1.52.11.41.41.73.56,1.12.19.5.06,1.01-.03,1.52,0,0-.05.22-.05.23,0,0,.27.17.29.19.11.08.22.15.33.23s.19.18.29.26c.22.18.48.31.71.48.26.2.56.29.83.48.62.42.81,1.15,1.09,1.8.08.19.17.38.28.55.09.15.23.28.28.45.07.2-.14.36-.13.55,0,.16.04.21.06.28.12.31.16.53.17.86,0,.02-.02.09-.02.11-.04.1-.17.15-.24.19-.34.15-.72-.23-.75-.54-.01-.14,0-.29.02-.44,0-.06,0-.13.05-.17s.12-.03.16-.08c.05-.06.08-.18.07-.25-.02-.14-.15-.17-.23-.27-.13-.18-.03-.24-.03-.43,0-.15-.07-.28-.14-.41-.15-.27-.28-.6-.48-.86-.11-.14-.28-.21-.48-.43-.25-.27-.4-.35-.77-.47-.39-.13-.8-.14-1.17-.35-.2-.11-.42-.12-.64-.13-.26-.01-.51-.04-.77-.09-.22-.04-.41-.07-.63,0-.15.05-.3.12-.17.29.44.56.75,1.22,1.22,1.76.3.35.38.63.29,1.04-.04.18-.35.32-.47.44-.14.12-.25.29-.34.45-.06.1-.14.24-.26.28-.13.04-.21.01-.33-.05-.13-.07-.23-.08-.37-.08-.1,0-.18-.04-.28-.06-.08-.02-.17,0-.24-.06-.1-.07-.52-.21-.5-.35.03-.24.42-.6.66-.63.27-.05.46.42.72.45.25-.03.45-.27.53-.54.05-.35-.42-.7-.69-.96-.25-.22-.49-.45-.73-.68-.17-.16-.42-.52-.63-.62-.19-.08-.63-.15-.6-.42v-.19s-.05-.16-.05-.16c0-.03-.76-.02-.84-.03-.38-.03-.77-.07-1.13-.2,0,0-.22.57-.24.61-.12.35-.19.69-.22,1.05-.01.19.04.43.17.58.11.13.27.25.39.37.15.14.3.27.45.4l.3.28c.15.17.34.39.52.5.26.16.37.49.56.74.12.16.22.38.33.55.05.07.05.18.07.26.02.11.09.4.01.49-.07.09-.29.07-.39.04-.13-.03-.26-.07-.38-.13-.23-.11-.28-.17-.28-.43,0-.24.01-.37.14-.58.03-.04-.28-.06-.39-.12-.14-.08-.17-.28-.26-.41-.55-.79-1.41-1.26-2.1-1.91-.1-.09-.21-.14-.32-.22-.2-.15-.27-.41-.19-.64.12-.32.23-.64.28-.98.04-.31.09-.71-.09-.99-.21-.33-.67-.42-.96-.67-.04-.03-.07-.06-.1-.1.04.04.02.26.03.33.02.11.06.21.08.32.04.21.07.41.11.62.06.32.14.64.21.96.06.3.09.62.22.9.1.23.22.45.36.66.12.17.31.33.34.55.02.13.06.25.11.37.05.14.08.28.14.42.11.23.3.43.46.63.24.3.44.64.68.94.31.41.7.73,1.1,1.05.2.11.38.19.53.35.1.11.31.27.16.42-.15.15-.47.12-.67.11-.16,0-.35-.02-.47-.15-.08-.09-.11-.21-.19-.29-.05-.05-.14-.05-.18-.1-.07-.07-.06-.19-.13-.26-.09-.1-.23-.14-.31-.26-.13-.2-.19-.42-.32-.62-.1-.14-.21-.28-.32-.42-.12-.15-.21-.3-.33-.44-.13-.16-.25-.32-.41-.45-.23-.18-.38-.41-.56-.61-.06-.07-.12-.17-.18-.23-.1-.09-.23-.15-.31-.26-.08-.11-.08-.24-.11-.36-.03-.15-.1-.3-.14-.45-.23-.95-.8-1.91-1.39-2.68-.34-.44-.73-.84-1.09-1.26-.17-.19-.32-.4-.44-.62-.16-.3-.27-.6-.27-.95,0-.18,0-.38-.12-.53-.14-.17-.28.09-.34.21-2.09,4.43-4.06,4.1-5.8,4.3-.07,0-.23,0-.05-.13,2.12-1.44,1.26-2.16,2.93-3.75,1.58-1.49,2.55-1.17,3.09-1.29.31-.07.54-.4.76-.6.38-.36.79-.7,1.24-.97.87-.52,2.02-.57,2.91-.06Z"/>
  </g>
  <g>
    <g>
      <path class="cls-3" d="M9.18,13.4c2.19,0,3.87-1.83,3.87-4.1s-1.68-4.1-3.87-4.1l-.02-1.77c3.24,0,5.86,2.62,5.86,5.86s-2.62,5.86-5.86,5.86l.02-1.77Z"/>
      <path class="cls-1" d="M9.21,15.17c-3.24,0-5.86-2.62-5.86-5.86s2.62-5.86,5.86-5.86l-.02,1.77c-2.19,0-3.87,1.83-3.87,4.1s1.68,4.1,3.87,4.1l.02,1.77Z"/>
      <path class="cls-3" d="M1.94,15.07h-.31c-.91,0-1.63-.73-1.63-1.64V3.54h1.94v11.53Z"/>
      <path class="cls-3" d="M21.92,3.45h0s0,0,0,0c0,0,0,0,0,0h0c-3.23.01-5.84,2.63-5.84,5.86h1.98c0-2.27,1.68-4.1,3.87-4.1h.01c2.19,0,3.87,1.83,3.87,4.1h1.98c0-3.23-2.61-5.85-5.84-5.86Z"/>
      <path class="cls-5" d="M21.92,15.16c-3.24,0-5.86-2.62-5.86-5.86h1.98c0,2.27,1.68,4.1,3.87,4.1l.02,1.77Z"/>
      <path class="cls-1" d="M21.92,13.39c2.19,0,3.87-1.83,3.87-4.1h1.98c0,3.24-2.62,5.86-5.86,5.86l.02-1.77Z"/>
    </g>
    <g>
      <path class="cls-3" d="M1.57,19.91H.49c0,.15.04.27.1.35.06.08.17.13.32.13s.32-.05.5-.13c.07.07.12.17.14.29-.21.15-.45.22-.74.22s-.5-.09-.62-.28-.19-.43-.19-.73.07-.54.21-.73c.14-.19.34-.28.59-.28s.46.08.6.23c.14.16.21.35.21.59,0,.12-.01.23-.04.34ZM.82,19.09c-.21,0-.32.16-.34.48h.67v-.05c0-.13-.03-.23-.08-.31-.05-.08-.14-.12-.25-.12Z"/>
      <path class="cls-3" d="M1.87,20.57c0-.05.02-.11.05-.18s.06-.12.1-.15c.21.11.39.17.54.17.09,0,.17-.02.22-.05.05-.04.08-.08.08-.14,0-.1-.07-.18-.22-.23l-.22-.08c-.32-.12-.49-.31-.49-.56,0-.18.07-.32.2-.43.13-.11.3-.16.52-.16s.43.05.65.15c0,.06,0,.12-.04.19-.03.07-.06.12-.1.15-.19-.09-.36-.13-.52-.13-.07,0-.13.02-.17.05-.04.03-.06.08-.06.13,0,.08.07.15.2.2l.23.09c.33.12.5.32.5.59,0,.18-.07.33-.21.44-.14.11-.33.16-.57.16s-.48-.06-.7-.19Z"/>
      <path class="cls-3" d="M4.75,18.79c.01.05.02.11.02.18s0,.12-.02.17h-.47s0,1.04,0,1.04c0,.11.06.17.17.17h.25c.03.08.04.14.04.2s0,.1-.01.13c-.16.02-.31.03-.46.03-.3,0-.45-.15-.45-.45v-1.14h-.29s-.02-.1-.02-.17,0-.12.02-.18h.29s0-.29,0-.29c0-.11.02-.18.06-.23s.11-.07.2-.07h.18l.02.03v.56h.47Z"/>
      <path class="cls-3" d="M6.66,20.49s-.04.09-.07.14c-.03.05-.06.08-.1.11-.16-.02-.28-.09-.35-.22-.17.16-.35.25-.55.25s-.35-.06-.45-.17c-.1-.12-.15-.25-.15-.4,0-.22.07-.38.21-.49.14-.11.32-.16.54-.16.12,0,.23,0,.34.01v-.11c0-.2-.1-.3-.29-.3-.14,0-.34.05-.59.14-.07-.08-.12-.19-.13-.34.28-.12.55-.17.83-.17.19,0,.35.05.47.16.12.11.18.27.18.49v.79c0,.14.04.24.11.3ZM5.7,20.4c.13,0,.26-.06.39-.18v-.34c-.09,0-.19-.02-.29-.02s-.18.03-.24.08c-.05.05-.08.12-.08.2s.02.15.06.19c.04.05.1.07.17.07Z"/>
      <path class="cls-3" d="M8.54,19.03c.11.18.17.42.17.72s-.08.55-.25.72c-.17.18-.38.26-.65.26s-.51-.04-.73-.13v-2.71l.03-.03h.18c.09,0,.16.02.2.07.04.05.06.12.06.23v.77c.15-.12.31-.17.49-.17.22,0,.38.09.5.26ZM7.91,19.15c-.13,0-.25.06-.36.18v1.02c.08.02.17.03.26.03.13,0,.23-.06.3-.17.07-.11.11-.28.11-.49,0-.38-.1-.58-.31-.58Z"/>
      <path class="cls-3" d="M9.75,20.35h.13c.03.08.04.14.04.2s0,.1-.01.13c-.15.02-.27.03-.36.03-.28,0-.42-.15-.42-.45v-2.38l.02-.03h.19c.1,0,.16.02.2.07.04.05.06.12.06.23v2.01c0,.11.05.17.16.17Z"/>
      <path class="cls-3" d="M10.84,19.17v1.54c-.07.01-.15.02-.23.02s-.17,0-.24-.02v-1.36c0-.14-.06-.21-.17-.21h-.05s-.02-.1-.02-.17,0-.12.02-.17c.09-.01.19-.02.28-.02h.06c.11,0,.2.03.26.1.06.07.09.16.09.28ZM10.28,18.45c-.03-.06-.04-.12-.04-.19s.01-.13.04-.19c.07-.04.15-.05.25-.05s.18.02.24.05c.03.06.04.12.04.19s-.01.13-.04.19c-.06.04-.14.05-.25.05s-.19-.02-.24-.05Z"/>
      <path class="cls-3" d="M11.21,20.57c0-.05.02-.11.05-.18.03-.07.06-.12.1-.15.21.11.38.17.54.17.09,0,.16-.02.22-.05.05-.04.08-.08.08-.14,0-.1-.07-.18-.22-.23l-.22-.08c-.32-.12-.49-.31-.49-.56,0-.18.07-.32.2-.43.13-.11.31-.16.52-.16s.43.05.65.15c0,.06,0,.12-.04.19-.03.07-.06.12-.1.15-.19-.09-.36-.13-.52-.13-.07,0-.13.02-.17.05-.04.03-.06.08-.06.13,0,.08.07.15.2.2l.23.09c.33.12.5.32.5.59,0,.18-.07.33-.21.44-.14.11-.33.16-.57.16s-.48-.06-.7-.19Z"/>
      <path class="cls-3" d="M14.63,19.42v.86c0,.16.02.28.08.36-.08.07-.17.1-.28.1s-.18-.02-.22-.07c-.04-.05-.06-.12-.06-.23v-.91c0-.12-.01-.2-.04-.25-.03-.05-.08-.08-.16-.08-.15,0-.28.07-.41.2v1.31c-.07.01-.15.02-.23.02s-.16,0-.24-.02v-2.81l.03-.03h.18c.1,0,.16.02.2.07.04.05.06.12.06.23v.84c.18-.16.37-.24.55-.24s.32.06.41.18c.09.12.13.28.13.47Z"/>
      <path class="cls-3" d="M16.61,19.91h-1.08c0,.15.04.27.1.35.06.08.17.13.32.13s.32-.05.5-.13c.07.07.12.17.14.29-.21.15-.45.22-.74.22s-.5-.09-.62-.28-.19-.43-.19-.73.07-.54.21-.73.34-.28.6-.28.46.08.59.23c.14.16.21.35.21.59,0,.12-.01.23-.04.34ZM15.87,19.09c-.21,0-.32.16-.34.48h.67v-.05c0-.13-.03-.23-.08-.31-.05-.08-.14-.12-.25-.12Z"/>
      <path class="cls-3" d="M17.64,20.76c-.22,0-.38-.09-.5-.27-.11-.18-.17-.42-.17-.73s.07-.55.22-.73.33-.27.53-.27c.13,0,.27.04.4.11v-.97l.02-.03h.19c.1,0,.16.02.2.07.04.05.06.12.06.23v1.99c0,.16.04.27.11.33-.01.04-.04.09-.07.14s-.06.08-.1.11c-.16-.02-.28-.1-.34-.23-.15.17-.34.25-.55.25ZM17.76,20.37c.14,0,.26-.07.37-.21v-.91c-.13-.08-.24-.12-.34-.12s-.18.06-.24.17c-.06.11-.09.27-.09.47s.03.35.09.45c.06.1.13.15.22.15Z"/>
      <path class="cls-3" d="M20.62,20.32v-.27s0-.73,0-.73c0-.07,0-.22.02-.45-.14.16-.32.29-.54.39-.05-.03-.09-.06-.13-.11-.04-.05-.06-.11-.07-.17.36-.23.61-.48.73-.76.07-.01.15-.02.23-.02s.16,0,.23.02v2.1s.23,0,.23,0h.24c.02.06.02.13.02.2s0,.14-.02.2h-1.51c-.01-.07-.02-.13-.02-.2s0-.13.02-.19h.57Z"/>
      <path class="cls-3" d="M21.91,19.06c0-.27.08-.49.24-.66.16-.16.37-.24.62-.24.31,0,.53.12.67.37.08.14.13.28.16.44.02.16.03.32.03.49,0,.41-.09.72-.26.96-.18.23-.43.35-.75.35-.23,0-.42-.04-.58-.13.01-.15.07-.26.17-.34.12.05.25.08.39.08.35,0,.53-.23.55-.69-.15.13-.33.2-.54.2s-.37-.07-.5-.21c-.12-.14-.19-.35-.19-.62ZM22.73,19.49c.14,0,.28-.06.4-.17v-.06c0-.29-.05-.49-.14-.61-.07-.08-.15-.13-.26-.13s-.19.04-.25.13c-.06.09-.09.21-.09.36,0,.32.12.48.35.48Z"/>
      <path class="cls-3" d="M25.65,20.3c0,.07,0,.13-.01.18-.02.16-.12.23-.3.23h-1.18c-.12-.12-.18-.22-.18-.3,0-.2.15-.44.47-.72l.39-.35c.17-.15.26-.31.26-.46,0-.1-.03-.18-.09-.24-.06-.06-.14-.09-.24-.09s-.18.03-.25.1-.12.15-.16.25c-.06,0-.13-.01-.2-.04-.07-.03-.11-.06-.14-.11.05-.17.15-.31.29-.43s.32-.17.54-.17.39.07.54.2c.14.14.21.32.21.54,0,.16-.04.3-.12.42-.08.12-.2.24-.35.37l-.29.25c-.2.17-.32.3-.35.39.2-.02.37-.03.54-.03h.64Z"/>
      <path class="cls-3" d="M27.39,20.21v.23s0,.27,0,.27c-.07.01-.14.02-.23.02s-.17,0-.23-.02v-.5s-.24,0-.24,0h-.63c-.07-.11-.1-.2-.1-.27s.02-.16.07-.27l.64-1.49s.06,0,.1,0,.1,0,.17.02c.07.02.13.04.17.08l-.37.87c-.13.32-.24.54-.33.67v.02c.14-.01.29-.02.48-.02h.04v-.34c0-.11.03-.21.08-.27.06-.07.14-.1.24-.1h.12l.02.02v.69s.19,0,.19,0h.16c.01.05.02.11.02.18s-.01.14-.03.22h-.34Z"/>
    </g>
  </g>
  <path class="cls-3" d="M34.42,24.21c-.14,0-.25-.11-.25-.25V.25c0-.14.11-.25.25-.25s.25.11.25.25v23.71c0,.14-.11.25-.25.25Z"/>
</svg>