<svg xmlns="http://www.w3.org/2000/svg" id="smtafe_logo" aria-labelledby="site__logo-title" class="site__logo" data-name="SM TAFE logo" viewBox="0 0 369.05 105.69"><defs><style>.a48ca86c-82b8-4af0-8539-b9588c2dd404,.e7a16208-0061-4e92-a49a-66e2abf6821a{fill:#231f20}.e7a16208-0061-4e92-a49a-66e2abf6821a{fill-rule:evenodd}.a53e5843-4210-4c44-8aa8-bd53999521b9{fill:#8347ad}</style></defs><title id="site__logo-title">South Metro TAFE</title><path d="M15 89.76h3.13v2.85a4.84 4.84 0 0 1-3 1.11 3.44 3.44 0 0 1-3.65-3.21 4 4 0 0 1 0-.51 3.37 3.37 0 0 1 3-3.66H15a2.76 2.76 0 0 1 3 2l-1.45.29A1.52 1.52 0 0 0 15 87.49a1.89 1.89 0 0 0-1.68.8 2.8 2.8 0 0 0-.32 1.58c0 1.06.36 2.58 2 2.58a2.86 2.86 0 0 0 1.68-.62V91H15Zm4.25.31a3.35 3.35 0 0 0 3 3.64 4 4 0 0 0 .49 0 3.7 3.7 0 0 0 0-7.39 3.28 3.28 0 0 0-3.49 3.06 4 4 0 0 0 0 .68m1.49 0c0-1 .34-2.45 2-2.45s2 1.63 2 2.43c0 2.07-1.19 2.58-2 2.58a1.79 1.79 0 0 1-1.6-.9 2.8 2.8 0 0 1-.37-1.55m5.33-3.71h1.57l1.79 5.27h.02l1.73-5.27h1.53l-2.53 7.13h-1.55zm7.41 0h5.3v1.19h-3.87v1.6h3.59v1.18h-3.59v1.94h4v1.22h-5.43zm6.64 7.05h1.45v-2.89h.29c1 0 1 0 1.91 1.42l1.06 1.55h1.73l-.85-1.4a4 4 0 0 0-1.61-1.73 3 3 0 0 0 .8-.23A1.81 1.81 0 0 0 46 88.5a1.9 1.9 0 0 0-1.16-1.84 5 5 0 0 0-1.63-.18h-3.06Zm1.45-5.94h1.11c1 0 1.17 0 1.42.18a.74.74 0 0 1 .37.72.78.78 0 0 1-.55.83 4.6 4.6 0 0 1-1.29 0H41.6Zm5.79-1.11h1.42l2.89 4.75h.03v-4.75h1.32v7.13h-1.42l-2.87-4.65h-.03v4.65h-1.34zm7.16 0h2.14l1.29 4.85h.03l1.26-4.85h2.18v7.13H60.1v-5.63h-.02l-1.4 5.63h-1.37l-1.42-5.63h-.02v5.63h-1.32zm8.34 0h5.3v1.19h-3.85v1.6h3.59v1.18h-3.59v1.94h3.98v1.22h-5.43zm6.69 0h1.4l2.9 4.75h.02v-4.75h1.34v7.13H73.8l-2.87-4.65v4.65h-1.35zm8.76 1.19h-2.11v-1.19h5.68v1.19h-2.12v5.94h-1.45zm6.96 2.42a3.46 3.46 0 1 0 3.46-3.74 3.32 3.32 0 0 0-3.49 3.16 2.7 2.7 0 0 0 0 .57m1.49 0c0-1 .34-2.45 2-2.45s2 1.63 2 2.43c0 2.07-1.22 2.58-2 2.58a1.79 1.79 0 0 1-1.6-.9 2.8 2.8 0 0 1-.37-1.55m6.62-3.71h4.88v1.19h-3.46v1.7h3v1.19h-3v3.05h-1.42zM0 98.34h1.47l1.06 4.91h.03l1.32-4.91h1.7l1.24 4.99h.03l1.08-4.99h1.45l-1.73 7.13H6.12l-1.42-5.34h-.02l-1.4 5.34H1.71zm10.15 0h5.3v1.19H11.6v1.6h3.59v1.19H11.6v1.94h3.98v1.21h-5.43zm7.73 4.66a1.48 1.48 0 0 0 1.55 1.37c1 0 1.42-.52 1.42-1s-.51-.73-1.83-1.06c-.7-.18-2.28-.57-2.28-2.15 0-.77.52-2 2.59-2 1.39 0 2.58.55 2.71 2.17h-1.42c0-.36-.18-1-1.32-1-.44 0-1.21 0-1.21.7s.46.67 1.6.93 2.58.62 2.58 2.38a2.12 2.12 0 0 1-1.16 1.88 4.2 4.2 0 0 1-1.68.31 2.58 2.58 0 0 1-2.92-2.19 1.2 1.2 0 0 1 0-.38Zm7.18-3.47h-2.11v-1.19h5.65v1.19h-2.12v5.94h-1.42zm4.5-1.19h5.3v1.19h-3.85v1.6h3.59v1.19h-3.59v1.94h3.98v1.21h-5.43zm6.67 7.13h1.42v-3H38c1 0 1.06.13 1.94 1.42l1 1.55h1.73l-.88-1.39a3.9 3.9 0 0 0-1.58-1.73 2.7 2.7 0 0 0 .8-.24 1.83 1.83 0 0 0 1.09-1.75 1.87 1.87 0 0 0-1.19-1.81 4.5 4.5 0 0 0-1.63-.18h-3.05Zm1.42-5.94h1.13c1 0 1.14 0 1.43.16a.85.85 0 0 1 .36.75.81.81 0 0 1-.54.82 4.7 4.7 0 0 1-1.3 0h-1.08Zm5.81-1.19h1.4l2.92 4.76v-4.76h1.34v7.13h-1.45l-2.84-4.67h-.03v4.67h-1.34zm16.38 7.13L57 98.34h-1.55l-2.79 7.13h1.55l.6-1.6h2.84l.62 1.6Zm-4.6-2.81 1-2.59 1 2.59Zm6.31-4.32v3.85a3.3 3.3 0 0 0 .18 1.55 1.4 1.4 0 0 0 1.27.62c1.39 0 1.39-.88 1.39-2.09v-3.93h1.42v3.75a4.67 4.67 0 0 1-.38 2.58 2.61 2.61 0 0 1-2.38 1c-2.95 0-2.95-1.81-2.95-3.46v-3.87ZM68.4 103a1.47 1.47 0 0 0 1.6 1.39c1 0 1.42-.52 1.42-1s-.49-.73-1.84-1.06c-.69-.18-2.27-.57-2.27-2.15 0-.77.52-2 2.58-2 1.4 0 2.59.55 2.74 2.17h-1.49c0-.36-.19-1-1.32-1-.42 0-1.22 0-1.22.7s.47.67 1.61.93 2.58.62 2.58 2.38a2.12 2.12 0 0 1-1.19 1.88 4.2 4.2 0 0 1-1.68.31 2.58 2.58 0 0 1-2.92-2.19 1.2 1.2 0 0 1 0-.38Zm7.18-3.47h-2.12v-1.19h5.69v1.19H77v5.94h-1.42zm4.5 5.94h1.44v-3h.39c1 0 1.06.13 1.91 1.42l1.06 1.55h1.73l-.88-1.39a3.9 3.9 0 0 0-1.6-1.73 2.7 2.7 0 0 0 .8-.24 1.83 1.83 0 0 0 1.07-1.72 1.86 1.86 0 0 0-1.16-1.81 4.5 4.5 0 0 0-1.63-.18h-3.13Zm1.44-5.94h1.14c1 0 1.14 0 1.4.16a.83.83 0 0 1 .38.75.81.81 0 0 1-.57.82 4.7 4.7 0 0 1-1.29 0h-1.06Z" class="a48ca86c-82b8-4af0-8539-b9588c2dd404"/><path d="m93.72 105.47-2.84-7.13h-1.55l-2.77 7.13h1.53l.59-1.6h2.84l.62 1.6Zm-4.6-2.81 1-2.59 1 2.59Zm5.37-4.32h1.45v5.92h3.59v1.21h-5.04zm6.02-.02h1.45v7.13h-1.45zm9.31 7.15L107 98.34h-1.53l-2.84 7.13h1.53l.59-1.6h3l.62 1.6Zm-4.65-2.81 1-2.59 1 2.59Zm-103.52-26h.16s-.13 0 0 .16a1.7 1.7 0 0 0 .41.28 6.1 6.1 0 0 0 2 .16h5.13a69 69 0 0 1 7.34.36.32.32 0 0 1 .28-.36 2.2 2.2 0 0 1 .88 0 10.3 10.3 0 0 0 3.07.33.9.9 0 0 1-.25-.23l.8-.18a19 19 0 0 1 3 .47h3.21c.15 0 .2-.19.33-.21h.6a36 36 0 0 1 4.13.15 41.6 41.6 0 0 0 7.06 0 15 15 0 0 1 2.3 0c1.5.16 2.92.55 4.31.62a3.3 3.3 0 0 1-.46-.38c2.27.41 4.31.44 6.56.72l2.74.31v1.27h-6.72c-3.57 0-7 .18-10.83 0-2.38 0-4.6-.16-6.93-.29-3.38-.18-6.95-.41-10.33-.52A145 145 0 0 1 .59 77.7c-.15 0-.31-.24-.31-.44s.24-.31.31-.47l1-.44Zm39.15-3.51a5.2 5.2 0 0 0-1.11-.67l4.16.13h3a52 52 0 0 0 8 4.75l-1.39-.13A37 37 0 0 1 43.15 74a3.8 3.8 0 0 0-1.81-.52 1.5 1.5 0 0 0-.34-.28" class="a48ca86c-82b8-4af0-8539-b9588c2dd404"/><path d="M108.47 76.66v.16a1.7 1.7 0 0 1-.41.28 6.3 6.3 0 0 1-2.07.16h-5.06q-3.69 0-7.37.36a.31.31 0 0 0-.23-.36 2.3 2.3 0 0 0-.9 0 10.3 10.3 0 0 1-3.08.33 1 1 0 0 0 .26-.23l-.8-.18a19 19 0 0 0-3 .47h-3.23c-.15 0-.23-.19-.36-.21h-.59a35 35 0 0 0-4.11.15 42 42 0 0 1-7.08 0 15 15 0 0 0-2.3 0c-1.5.16-2.9.55-4.29.62l.46-.38c-2.3.41-4.34.44-6.59.72l-2.72.31c-.15.67-.15 1.14 0 1.27h6.5c3.59 0 7 .18 10.82 0 2.41 0 4.63-.16 6.93-.29 3.41-.18 7-.41 10.33-.52a144.5 144.5 0 0 0 19.82-1.62c.16 0 .34-.24.34-.44s-.23-.31-.34-.47l-1-.44Zm-39.14-3.51a8 8 0 0 1 1.11-.67l-4.14.13h-3.07a48 48 0 0 1-8 4.75l1.45-.18A37.4 37.4 0 0 0 67 73.9a3.8 3.8 0 0 1 1.81-.52 1.5 1.5 0 0 1 .38-.28" class="a48ca86c-82b8-4af0-8539-b9588c2dd404"/><path d="M48.06 35.79a.15.15 0 0 1-.15.15.17.17 0 0 1-.16-.15.16.16 0 0 1 .16-.16.17.17 0 0 1 .15.16" class="e7a16208-0061-4e92-a49a-66e2abf6821a"/><path d="M66 57.85a1.2 1.2 0 0 1-.44.13 15.2 15.2 0 0 0-3.33.72 4.7 4.7 0 0 1-1.33.3c-1.91 0-3.43-1.27-5.78-1.27-2.33 0-3.88 1.24-5.79 1.27a4.7 4.7 0 0 1-1.33-.3 13.5 13.5 0 0 0-3.38-.7.4.4 0 0 0 .16.39c.15.13.18.21.41.23a14 14 0 0 1 1.81.47 11 11 0 0 0 1.89.25 8 8 0 0 0 1.39 0 9 9 0 0 0 1.06-.15 6 6 0 0 1 .83-.21l1.7-.46a10.7 10.7 0 0 1 1.87-.31 4.2 4.2 0 0 1 1 0 7.4 7.4 0 0 1 1.68.31l.75.28A8 8 0 0 0 62 59a17 17 0 0 0 3.17-.65 11.6 11.6 0 0 1 1.68-.35h-.75m3.9-5.21v-.18s-.26.31-.28.36a4.8 4.8 0 0 1-1.06 1h-.16a1.6 1.6 0 0 0 0-.31 2 2 0 0 0 0-.36v-.49s-.18.23-.23.28l-.26.18s-.26.18-.29.16a1.6 1.6 0 0 1 0-.31 1.5 1.5 0 0 0 0-.73.82.82 0 0 0-.23-.44h-.15v.24a1.9 1.9 0 0 1-.44.64v-.31a1.9 1.9 0 0 0-.62-1.39c-.16-.18 0 0 0 .13a2.3 2.3 0 0 1-.36.93 1.1 1.1 0 0 1 0-.36 2.5 2.5 0 0 0 0-.39s-.16-.31-.24-.29v.21a1.4 1.4 0 0 1-.15.21v-.26a1.85 1.85 0 0 0-.6-1.22s-.25-.36-.38-.28 0 .26 0 .36v.42a.55.55 0 0 0-.34-.24h-.31a2.4 2.4 0 0 0 0-.38 1.7 1.7 0 0 0-.36-1.24l-.31-.26a.8.8 0 0 0 0 .31c0 .2-.16.38-.26.57s-.15.25-.18.23a1.3 1.3 0 0 1 0-.39A1.64 1.64 0 0 0 61.55 48h-.26s0 .21.13.28a1.09 1.09 0 0 1-.36 1h-.31c-.08 0 0-.18 0-.21a1.42 1.42 0 0 0-1.29-.69h-.18s.18 0 .2.12a1.56 1.56 0 0 1-.31.83 4 4 0 0 1-1.24.52 8.8 8.8 0 0 0-3.38 1.86 13.2 13.2 0 0 0-3 3.15c-.41.75-1 1.66-2.14 1.42a1.72 1.72 0 0 1-1.29-1.68 6.2 6.2 0 0 1 .41-2.22c.47-1.76 1-3.41 1.52-5.17A48 48 0 0 0 51.24 42c.91-4.42 0-6.18-.64-6.88a1.84 1.84 0 0 0-1.29-.72A2.39 2.39 0 0 0 47 35.81a1.5 1.5 0 0 0-.16.34 1.5 1.5 0 0 1 .26.18 3.6 3.6 0 0 1 0 .8 1 1 0 0 0 .18.39l-.18-.21a5 5 0 0 1 0-.78.23.23 0 0 0-.21-.25c-.1 0 0 .18-.13.23a3.7 3.7 0 0 1-.8.77c-.46.31-1 .55-1.06 1.14v.39a.35.35 0 0 0 .26-.16l.34-.13a13 13 0 0 0 1.44-.64 2 2 0 0 1 .88-.34 3.1 3.1 0 0 0 .91-.13c.25 0 .54-.28.59-.28a1.16 1.16 0 0 1 .49.49 2 2 0 0 1 0 .7 7 7 0 0 1 0 1.11 2.7 2.7 0 0 1-.15 1.06A40.8 40.8 0 0 1 46 50.82a12.8 12.8 0 0 0-1.68 4.34 5.8 5.8 0 0 0 0 2.12 13.8 13.8 0 0 1 3.59.75 3.2 3.2 0 0 0 1.22.18c1.73 0 3.3-1.21 5.78-1.24 2.59 0 4.06 1.27 5.79 1.24a3.2 3.2 0 0 0 1.22-.21 13.6 13.6 0 0 1 3.08-.66 1 1 0 0 0-.36-.19 1.8 1.8 0 0 0-.59.16h-.25a1.4 1.4 0 0 1 .42-.29 2 2 0 0 1 1.52.18l.18.26h.47a7.7 7.7 0 0 1 1.44.13 3.3 3.3 0 0 0 .6-.52 9 9 0 0 0 .59-.75 5.2 5.2 0 0 0 .44-1c0-.21.26-.39.34-.62a6 6 0 0 0 .2-.7 3.2 3.2 0 0 0 0-1.31M45.74 38.4a2.6 2.6 0 0 0-.29-.37 2 2 0 0 1 .41-.25c.08 0 .44.36.42.43a1.1 1.1 0 0 1-.44.29m2.27-2.25a.39.39 0 0 1-.5-.2.39.39 0 0 1 .23-.5H48a.39.39 0 0 1 .4.37.38.38 0 0 1-.25.38M64.6 52.17a.2.2 0 0 1 .23 0v.44s-.18-.16-.23-.16a2.8 2.8 0 0 0-.62.31l-.16.13s0-.31.16-.33a.79.79 0 0 1 .62-.39m-.65-.7a2.6 2.6 0 0 0 .36-.62c0 .31-.13.9-.38 1h-.11l.26-.33m-.26.67a3 3 0 0 0-.38.46 3 3 0 0 1-.19.31h-.38a3 3 0 0 0 .2-.26l.21-.23c.13 0 .39-.33.54-.31m-.69 1.94v-.28a.55.55 0 0 0-.39-.21.8.8 0 0 1 .57 0c.18.15 0 .39 0 .57m-.21-2.82c.18-.15.37-.46.52-.59a1.3 1.3 0 0 1-.26.49c0 .13-.18.44-.31.44a.4.4 0 0 1-.13-.18zM62.48 50a1.7 1.7 0 0 0 .37-.33v-.15a4 4 0 0 1-.24.64c0 .13-.26.37-.33.37s-.24-.19-.24-.24.31-.26.39-.31m-.64 3.7a.64.64 0 0 0-.39-.16s-.13-.2 0-.2.83 0 .9.18-.2.46-.31.57c0-.16.16-.29 0-.5m-.13-2a.65.65 0 0 1 .39 0c.29.26 0 1-.13 1.19s0-.18 0-.31a1.5 1.5 0 0 0-.2-.86m.33-.54s.18.42 0 .23a.68.68 0 0 0-.77-.18l-.29-.1h.41s.47 0 .6.21M60.93 53s0-.62-.36-.64h-.18v-.23h.15c.57 0 .62.36.47.8s0 0 0 .13m.15-1.5a4.3 4.3 0 0 0-.83-.42h.5a.82.82 0 0 1 .38.42.45.45 0 0 1 0 .23l-.15-.23m-1.45 0a2.1 2.1 0 0 1-.61-.16h.13a1 1 0 0 1 1 .39s.16.28.13.28h-.16a2.6 2.6 0 0 0-.47-.31M60 53c0 .15 0 .44-.12.18a.5.5 0 0 0-.42-.34h-.39c-.07 0-.15-.13-.12-.18a1.34 1.34 0 0 1 .59-.13.39.39 0 0 1 .46.3.36.36 0 0 1 0 .17m.88-3.39a1.7 1.7 0 0 0 .42-.85v-.23a1.4 1.4 0 0 1 0 .64.89.89 0 0 1-.37.65.7.7 0 0 1-.28 0l.18-.18m-.21.8-.87.26a2.35 2.35 0 0 1-1.17.18 5.5 5.5 0 0 1 2-.44M59 49.2v-.39a1.1 1.1 0 0 1 .18.33 1.2 1.2 0 0 1 0 .37 1.3 1.3 0 0 1-.28 0 .28.28 0 0 1 .13-.24m-1.22.88a4.54 4.54 0 0 1 2.63-.15c-.26 0-.57.28-.91.18H58m-1.26.39a1.3 1.3 0 0 1 .44-.34c.2 0-.34.31 0 .34l.62.13h-.24a4 4 0 0 1-.67 0c-.26 0-.39 0-.18-.18m-1.6.72a2.4 2.4 0 0 1 .57-.49s-.23.23-.16.33.52 0 .65 0h.26l-.16.13-.75.21H55v-.22m-1.08.85a.6.6 0 0 1 0-.26 1.1 1.1 0 0 1 .33-.28s-.39.59 0 .54a2.8 2.8 0 0 0 .67-.33c.13 0 .34-.13.21 0a3.7 3.7 0 0 1-1 .54h-.33V52m-.91 1a1.56 1.56 0 0 1 .6-.54v.31c0 .07-.18.36 0 .41s.51-.23.59-.28l.7-.34a2.6 2.6 0 0 1-1.16.72s-.42.21-.49 0a1 1 0 0 1 0-.23m-.7.9a2.2 2.2 0 0 1 .28-.64c0 .15-.15.52 0 .59s.21 0 .29 0l.75-.36c.23-.13-.13.16-.21.21a5 5 0 0 1-.88.51h-.21c-.05 0 0-.25 0-.31m-.18 1-.33.2c-.13 0 0-.51 0-.57v.24l.46-.29c.13-.08.34-.26.39-.23l-.36.47-.34.18m1.5 1.05h-.15v-.28a.87.87 0 0 0-.88 0 .79.79 0 0 1 1.06 0s.15.28 0 .39m.46-.91v-.15a7 7 0 0 0-1 .23c-.21.1-.26.13-.21 0A3 3 0 0 1 54 53.74l.44-.13a2 2 0 0 1 .23-.38 1.3 1.3 0 0 1 .59-.49c.13 0 .13 0 .18-.16a2 2 0 0 1 .7-.67h.54c.18 0 .21-.23.29-.31a1.73 1.73 0 0 1 .85-.29 1.2 1.2 0 0 1 .91.24s.28.23.23.33-.23-.23-.23-.26a2 2 0 0 0-1.14 0 .47.47 0 0 0-.36.21c0 .08.38.42.36.42a4 4 0 0 0-.47-.13 1.52 1.52 0 0 0-1 .2s-.33.21-.31.26.39.18.41.21H56a2 2 0 0 0-1 .46s-.18.24-.15.24H55a.63.63 0 0 1 .26.2v.18H55a1.6 1.6 0 0 0-1.24.39s-.57.49-.23.49h.33a.46.46 0 0 1 .39.26.6.6 0 0 1 0 .26M58 52.68c-.23 0-.29.19-.52 0s-.13 0-.13 0a2.2 2.2 0 0 1 .42-.25H58c.52 0 .93.33.7.8s-.21-.5-.59-.5M57 53.1c-.26 0-.34.23-.62.2s-.24 0-.16 0a1.24 1.24 0 0 1 .72-.38c.52 0 .83.28.65.69s0 .21 0 .21v-.13a.43.43 0 0 0-.33-.51.28.28 0 0 0-.18 0m-.44 1.11s-.13-.37-.25-.39a2.5 2.5 0 0 0-.55 0c-.18 0-.28 0-.28-.16s.36-.13.41-.13.93.24.73.7m-2.2.36s.39-.13.52-.15a.78.78 0 0 1 .59.23V55a.74.74 0 0 0-.65-.18c-.18 0-.2.13-.33 0m1.37 1.4-.39-.12a2.5 2.5 0 0 0-.88.2c-.13 0 .16-.23.18-.26a1.2 1.2 0 0 1 .42-.15.63.63 0 0 1 .62.18v.15m1-.67-.33-.23c-.08 0-.75.31-.91.34h-.21a1.13 1.13 0 0 1 1.12-.6c.18 0 .43 0 .43.26v.26m1.22-.58s-.47-.26-.67-.18-.26.2-.37.2H57a2.1 2.1 0 0 1 .91-.41c.38 0 .56.26.36.59m1.06-.2v-.2a.36.36 0 0 0-.39-.23h-.28a.8.8 0 0 1-.19-.18h.24a.45.45 0 0 1 .23 0c.31 0 .59 0 .54.46s0 .24 0 .21m.88 0v-.31a.4.4 0 0 0-.44-.18h-.36l.28-.13c.73-.13 1 .44.57.8m.16-.85.26-.13h.23c.28 0 .59 0 .67.26s0 .18-.13.26 0 0-.13 0 0-.21 0-.19l-.75-.18h-.13m6 1.74a.9.9 0 0 1-.36.28 5 5 0 0 1-.93 0c-.2 0 0 0 0 .13h.7l-.2.18a6.6 6.6 0 0 1-1.09 0c-.31 0 0 .15.23.15h.39a2 2 0 0 1-.62.16 3.1 3.1 0 0 0-1.14 0c-.15 0-.25.21-.43.31a1.66 1.66 0 0 1-1.24 0 1.6 1.6 0 0 0-.83-.16 12 12 0 0 0 1.26-.59 1.55 1.55 0 0 1 .93-.28h.37a2.47 2.47 0 0 1 1.31-.44 7.2 7.2 0 0 0 1.61 0m-.32-.89a2.8 2.8 0 0 1-.88.36 1.7 1.7 0 0 1-.49.13 1.6 1.6 0 0 1 .2-.26 6 6 0 0 0 .62-.83c.16-.23.16 0 .16-.2s-.31 0-.41 0a4.7 4.7 0 0 0-1.09.38v-.18a2.6 2.6 0 0 1 .7-.31h.28a4.5 4.5 0 0 1 .73 0v.16a3.5 3.5 0 0 1-.44.64s-.21.19-.21.24.23 0 .31 0a3.3 3.3 0 0 0 .83-.26s-.29.21-.34.23m.49-1.86a2.3 2.3 0 0 1-.33.49h-.21s.18-.26.21-.33a2.6 2.6 0 0 1 .38-.55 2.5 2.5 0 0 1 0 .39m1.81 1.37a.8.8 0 0 1-.26.52 7 7 0 0 1-.57.49 8.3 8.3 0 0 1 .91-1.29c.34-.34 0 .28 0 .33m1.37 0a5 5 0 0 1-.65.75v-.13a2.2 2.2 0 0 0 .26-.54.5.5 0 0 0 0-.18s.29-.23.36-.21a.8.8 0 0 1 0 .31" class="e7a16208-0061-4e92-a49a-66e2abf6821a"/><path d="M39.33 59.3c1.16-.7 3.3-2.58 8.73-.65a4.28 4.28 0 0 0 2.74 0 9.38 9.38 0 0 1 6.77-.51c3.1 1 3.28 1 5.68.25a9.1 9.1 0 0 1 7.45 1 18.4 18.4 0 0 1-1.35 3A8.15 8.15 0 0 0 62 62a4.9 4.9 0 0 1-3.75-.28 7.92 7.92 0 0 0-5.53-.29 6.64 6.64 0 0 1-4.65.52 11.3 11.3 0 0 0-4.75-.54 8.8 8.8 0 0 0-2.59.9s-.72-1.47-.8-1.65l-.57-1.27m3.04 5.7c.13 0 1.66-1.14 6 0a3.77 3.77 0 0 0 3.43 0 7.2 7.2 0 0 1 5.82-.31 5.14 5.14 0 0 0 4.08.36 8.66 8.66 0 0 1 6 0A37.9 37.9 0 0 1 55 76.9 41.1 41.1 0 0 1 43.15 66l-.75-1" class="a48ca86c-82b8-4af0-8539-b9588c2dd404"/><path d="M54.83 77.21C48.5 73.28 36.1 64.67 36.12 43.43v-5.16h.78v5.16c0 20.68 11.81 29 18.09 33 6.33-4 18.08-12.32 18.08-33v-5h.78v5c0 21.24-12.38 29.85-18.71 33.78Zm18.35-40.55v-.77H74a1.8 1.8 0 0 1 0 .46h-.23a1.9 1.9 0 0 1-.55.26m-37.1-1.45v-5.4h37.86v5.2h-.78v-4.42H36.9v4.62zm.11 1.27a.45.45 0 0 1 0-.28V36H37v.69a1.4 1.4 0 0 0-.39-.18Z" class="a48ca86c-82b8-4af0-8539-b9588c2dd404"/><path d="M55 64.49c-2 0-3.34 1.14-5 1.17a3.8 3.8 0 0 1-1-.19 12.1 12.1 0 0 0-4-.74 6.4 6.4 0 0 0-2.59.46V65a6.7 6.7 0 0 1 2.59-.53 13 13 0 0 1 4 .75 2.9 2.9 0 0 0 1 .18c1.53 0 2.84-1.14 5-1.14 2.14 0 3.51 1.16 5.17 1.14a2.9 2.9 0 0 0 1-.18 13.3 13.3 0 0 1 4.09-.75 6.7 6.7 0 0 1 2.58.46v.23a6.3 6.3 0 0 0-2.58-.43 12.1 12.1 0 0 0-4 .74 3.1 3.1 0 0 1-1.08.19c-1.66 0-3-1.17-5.17-1.17m-14.44-2.32a6.65 6.65 0 0 1 3.8-1.06 12.7 12.7 0 0 1 4 .72 3.3 3.3 0 0 0 1.16.21c1.66 0 3.13-1.19 5.45-1.19 2.33 0 3.8 1.19 5.48 1.19a3.3 3.3 0 0 0 1.17-.21 12.5 12.5 0 0 1 3.92-.72 6.8 6.8 0 0 1 3.78 1l-.13.21a6.6 6.6 0 0 0-3.65-1 13 13 0 0 0-3.85.68 3.8 3.8 0 0 1-1.24.24c-1.78 0-3.25-1.19-5.48-1.19-2.22 0-3.66 1.16-5.45 1.19a3.8 3.8 0 0 1-1.24-.24 12.8 12.8 0 0 0-3.87-.69 6.5 6.5 0 0 0-3.67 1Zm-8.3-25.51h.13m-3.02 13.62v-.15ZM10.57 76.53" class="a48ca86c-82b8-4af0-8539-b9588c2dd404"/><path d="M41.32 22c-.42-.28-1.24 0-1.68 0a25.6 25.6 0 0 0-7.94 3.7 3 3 0 0 0-1.11 1.78V28a2.1 2.1 0 0 0-.36-.68 3.7 3.7 0 0 0-.44-.67 15 15 0 0 0-1.11-1.13 5.2 5.2 0 0 1-.64-1.3 4.3 4.3 0 0 1-.57-1.62V22c0-.05.26 0 .33 0a1.3 1.3 0 0 0 .55 0c.18 0 .31-.2.43-.2H29c.7 0 1-.73 1-1.3a2.5 2.5 0 0 0 0-.5v-.18c0-.18-.34-.29-.55-.41a16 16 0 0 1-1.16-1.32c-.13 0-.44-.29-.23-.47s.44 0 .33-.23-.23 0-.31 0 0-.15 0-.21-.31-.54-.54-.59a.7.7 0 0 0-.36 0c-.1 0-.31-.31-.34-.34v-.8a8.7 8.7 0 0 0 .47-2.58 2 2 0 0 0-.67-1.35.7.7 0 0 0-.29 0 7 7 0 0 0-.38.78 6.47 6.47 0 0 1-1.53 3s-.39.29-.46.23a.7.7 0 0 1 0-.2c-.16-.49 0-1-.29-1.45A6 6 0 0 0 22.43 12a.27.27 0 0 0-.18-.26.71.71 0 0 0-.6.28 5.3 5.3 0 0 0-.36 2.3 3.43 3.43 0 0 0 .47 1.68 5 5 0 0 1 .38.65v.18a7 7 0 0 0 0 2.58q.09.66.24 1.32a8 8 0 0 1 .31 1.27v.62c0 .72.2 1.27.23 1.94a13 13 0 0 1-.44 1.86A31 31 0 0 0 22 30v3.9a10 10 0 0 1-.57 2c-.49 1.34-.83 2.58-1.24 3.87-.23.65-.49 1.27-.72 1.89-.44 1.14-.78 2.58-1.24 3.77a19.4 19.4 0 0 0-.91 3.75 12 12 0 0 0 0 1.19 5.3 5.3 0 0 1-.16 1.63 19 19 0 0 0 0 3.18c0 .57.18 1.13.23 1.73.15 1.73.23 3.51.23 4.88v1.94a.8.8 0 0 1 0 .31v4.08a4.5 4.5 0 0 1-.2 1.63 8.6 8.6 0 0 1-.78 2.58c-1.06 1.87-3.64 2.33-6.05 2.77a7.5 7.5 0 0 1-1.16 0 23 23 0 0 0-3.69.21 20 20 0 0 0-3 .46c-.26 0-.88 0-.88.31s.65.6 1 .67a5 5 0 0 0 1.34 0l4.06.13a28 28 0 0 0 7.75-.7c.23 0 .52-.25.67-.28h.67a42 42 0 0 0 4.37-.15h.44c.21 0 .28.2.41.28a2.7 2.7 0 0 0 .57 0 12.4 12.4 0 0 0 2.58 0 38 38 0 0 1 4.4.23c1.24 0 2.19.16 3.46.21.34 0 .65.13 1 .15a2.4 2.4 0 0 0 .85 0h1.14a2.3 2.3 0 0 1 .64 0s.26.16.31.13-.21-.46-.28-.49-.26 0-.16-.13l.34-.13h.85a2.7 2.7 0 0 0-.27-.4 4 4 0 0 1-.75-.2c-.13-.07 0 0 .18-.13s.57 0 .6 0a6 6 0 0 0-.55-.34h-.15l-.33-.18a5.6 5.6 0 0 0-1.17-.52h-1.46c-.49 0-.65-.2-1.09-.25a9.5 9.5 0 0 0-1.6.13H31L29.38 74a13 13 0 0 1-1.94-.26 3 3 0 0 1-.7-.28c0-.13.31 0 .39 0h.47a7 7 0 0 1 1.7 0H31c1.24 0 2.84.28 4.13.33a4 4 0 0 0 .83 0h.36a11 11 0 0 0 1.81.18 5 5 0 0 0 .62-.25c.15 0 .57.12.64 0s-.28-.31-.36-.34 0 0 .29 0h.25c.24 0 .83.13.88 0a1.56 1.56 0 0 0-.59-.39h-.23v-.19s.25.13.31 0 0-.18-.26-.23a4.6 4.6 0 0 0-.7-.36 3.2 3.2 0 0 0-1-.34 5.6 5.6 0 0 0-1 0 2.6 2.6 0 0 1-.88 0 13 13 0 0 0-1.86-.23 13 13 0 0 1-4.75-1c-.68-.31-.68-1.32-.57-2.09s.28-2.28.39-3.34a4.5 4.5 0 0 1 .1-1.21 2.8 2.8 0 0 1 .15-1c.16-.36 0-.64.16-1a21 21 0 0 1 .51-4.19c.21-.56.54-1.11.78-1.67v-.32a1.3 1.3 0 0 0 0-.28 9 9 0 0 0 .31-1 5.7 5.7 0 0 0 .18-1 15 15 0 0 0-.21-4.72 13 13 0 0 0-.77-2.38c0-.16-.29-.31-.31-.44a2.2 2.2 0 0 1 0-.72c.23-2.33 0-4.55.41-6.83 0 0 0-1.06.15-1.11h1.81a4.3 4.3 0 0 1 2.1.26c.31.16.46.54.85.7a.59.59 0 0 1 .41.33c.39.47 1.22.52 1.45 0s0-.64 0-1v-.23c0-.08-.62-.49-.78-.72s0-.23 0-.23h.26c.34 0 .44.23.52.49s0 .28 0 .28l.18-.26a1.9 1.9 0 0 0 0-.67V36a.68.68 0 0 0-.21-.46s-.36 0-.46-.24 0-.25-.16-.38a1.4 1.4 0 0 0-.49-.21H36v-.15a.84.84 0 0 0-.42-.21h-.23a1.5 1.5 0 0 1-.31-.52 3.5 3.5 0 0 0-.28-.54s-.16-.16 0-.26l.36-.23.39-.21s1.08-.46 1.08-.62-.64 0-.75 0a6.5 6.5 0 0 0-.85.39s-.34.26-.41.23-.13-.26-.13-.28V32a3.5 3.5 0 0 1-.21-.62h.26c.39-.13.78-.29 1.16-.46a2.7 2.7 0 0 1 .34-.42c.06 0 .16.26.16.24s.75 0 1-.21.31-.34.36-.34.16.21.26.23a.37.37 0 0 0 .21 0s-.13.34 0 .42.49-.34.54-.44a.7.7 0 0 1 0-.21l.31.29s-.18.33 0 .38.34-.12.39-.18.26-.38.33-.33 0 .33 0 .33-.2.26-.15.31.65-.25.72-.28 1-.52 1-1.09a.42.42 0 0 0-.23-.46.86.86 0 0 0-.39 0 2 2 0 0 1 0-.36.49.49 0 0 0-.51-.47s-.13.13-.21 0a2.4 2.4 0 0 0-.23-.41.67.67 0 0 0-.95-.05l-.05.05s-.15.26-.21.26h-.15c-.36-.26-.75 0-.85.41s0 .34 0 .47-.26 0-.34.15a.8.8 0 0 1-.21.28c-.07.08-.28.16-.36.26l-.34.25c-.16.13-.24.33-.34.41a4.6 4.6 0 0 1-.7.36s-.64.31-.75.26 0-.26-.12-.33a3.6 3.6 0 0 1-.34-1.06 2.6 2.6 0 0 1 .9-2.41 28.7 28.7 0 0 1 4.71-3 12 12 0 0 0 1.68-.88c.31-.21 1.08-1 .49-1.45m-1.81 6.83h.26s.28.56 0 .41-.42 0-.34-.31m-1.08-.41a.54.54 0 0 1 .36-.16c.18 0 .31 0 .38.36s.16.6 0 .29a.48.48 0 0 0-.59-.31l-.26.13s0-.24.13-.31m-1 .12H38V29h-.15a.86.86 0 0 0-.39 0s-.23.23-.26.21a2.4 2.4 0 0 1 .16-.54m-5.74 5.5a6.3 6.3 0 0 0 .26-1.83 3.6 3.6 0 0 1 .39.62c.13.23.39.54.36.67s-.44.36-.52.44l-.49.38zm0 .65a11 11 0 0 0 1.22-.65s.56.78.67 1 0 0-.29 0a8 8 0 0 1-1.83 0 1 1 0 0 1 .26-.2m-2-14.22a1.43 1.43 0 0 1-.65 1c-.31 0 0 0 0-.13a1.56 1.56 0 0 0 .49-.85v-.21M26.92 17c.31 0 .83.39.44.49 0 .16.13.24.16.39a.5.5 0 0 1 0 .18c0 .05.28.26.39.34a8 8 0 0 1 .64.77s.23.36 0 .18l-.55-.52a4 4 0 0 1-.65-.82c-.13-.18-.28-.31-.36-.42S26.85 17 27 17m0 1.14a4 4 0 0 1 .72.7c.23.23.54.41.7.59s0 0 .15 0l.13.13a1 1 0 0 1 .55.23c.07.08 0 .34 0 .39a3 3 0 0 1-.42-.21c-.18 0-.26-.25-.36-.28a.56.56 0 0 0-.36 0c-.18.16 0 .49.15.57s.6 0 .68.46c0 0 0 .34.15.39s-.49.49-.62.54a1.3 1.3 0 0 1-.83 0c-.2 0-.46-.36-.72-.2s0 .23-.18.28a3.6 3.6 0 0 1-.8 0 7 7 0 0 1-1.29 0 2.6 2.6 0 0 1-1.06-.73 2.3 2.3 0 0 1-.39-.78 6.5 6.5 0 0 1-.15-.88 3 3 0 0 1 .28.47l.29.49a6.4 6.4 0 0 0 1.08 1 3.2 3.2 0 0 0 2 .23c.15 0 .23 0 0-.16a2 2 0 0 1-.62-.49c-.11-.18.23 0 .44 0s.75.55 1.08.7a.64.64 0 0 0 .57 0h-.28l-.26-.31s-.39-.49-.13-.39.15 0 .33 0 .39.21.39 0-.15 0-.2 0a1.6 1.6 0 0 1-.47-.44s-.15-.33 0-.44.26 0 .34-.15a.7.7 0 0 0 0-.41c0-.6-1.11-.86-1.37-1.24 0 0-.16-.29-.13-.34.36 0 .49.36.72.49M24.4 18s.13-.18.2-.18a1.4 1.4 0 0 1 .44-.13.53.53 0 0 1 .39 0c.13.18-.23 0-.31 0s-.67.23-.72.15m0 .26s0 .31.23.34.57 0 .41-.47.24.44 0 .6a.63.63 0 0 1-.8 0s-.28-.44 0-.42m1.19-3v-.62a3.5 3.5 0 0 1 .26-.7 6 6 0 0 1 .23-.74 5 5 0 0 0 .36-.88 1.6 1.6 0 0 1 .21.25 2 2 0 0 1 0 .47 2.17 2.17 0 0 1-.31 1.27 4 4 0 0 0-.36.93c0 .23-.34.69-.6.46s0-.28 0-.41m-1.08.9a4.5 4.5 0 0 1 .9 0 1.47 1.47 0 0 1 1 .47l.2.28H26a4.5 4.5 0 0 0-1.76-.83h.1m-.15 1.32a1.3 1.3 0 0 1 .38-.21 2 2 0 0 1 .47 0l.33.24c.24.2 0 0-.25 0a1.34 1.34 0 0 0-.83.18H24c0 .13.23-.21.28-.24m.72 2.55a2.5 2.5 0 0 1-1-.2 1.8 1.8 0 0 1-.54-.37s-.13-.46-.18-.56v-.13l.36.25a2.93 2.93 0 0 0 1.4.91M21.39 15a4.2 4.2 0 0 1 .37-2.59.9.9 0 0 0 .2.24c.26.36.68.67.91 1a4.6 4.6 0 0 1 .39 1.63 2 2 0 0 1 0 .49h-.16a3 3 0 0 1-.15.83 1.9 1.9 0 0 1-.16-.88 4.3 4.3 0 0 0-.18-2.07l-.13-.65s-.31-.29-.36-.26 0 .34 0 .41.15.4.21.6.12.26.12.36a3.4 3.4 0 0 1-.12 1V15a6 6 0 0 0-.47-.78 3.33 3.33 0 0 0 .62 2.07s.31.21.31.26-.26.23-.28.23v-.21a5.5 5.5 0 0 1-.78-1.57m.85 3.9v-.2s-.15-.23 0-.36-.1.34-.1.34-.13.49-.15.15m.23-.52a2.9 2.9 0 0 1-.31-.8c0-.23.28 0 .33-.25s0-.16 0-.21a.45.45 0 0 1 .31-.21.36.36 0 0 1 0 .44 7.5 7.5 0 0 0-.46 1M20 56.2a1 1 0 0 1 .55 0h.18a1.6 1.6 0 0 0 .2.26 2.5 2.5 0 0 1 .75.33c.18.18 0 .18 0 .26H21l-.49-.41-.62-.23v-.13m3.92 9.45c-.13 0 0-.59 0-.77a19 19 0 0 0 0-3 4 4 0 0 0 0-.67v-.23a3.7 3.7 0 0 0-.62-1 .57.57 0 0 0 .37-.16H24c.55 0 .86.37.91 1a9 9 0 0 1-.34 2.1 9 9 0 0 0 0 1.06 2.6 2.6 0 0 1-.13 1c-.13.31 0 .67-.13.77M24 59.25a1 1 0 0 1-.83.39 3.7 3.7 0 0 1-.67-.5 12 12 0 0 0-1-1.11c.29 0 .52-.28.83-.13s.21.31.36.42a.9.9 0 0 0 .34.2h.49c.08 0 0 .52 0 .65m-3.59-1v-.86a3.4 3.4 0 0 1 0 1 3.1 3.1 0 0 1 0 1.14s-.16.33-.23.52 0-.29 0-.42v-1.39m-9.65 17.57a27 27 0 0 1-3.38.27l2.58-.28a7 7 0 0 0 1.14-.24c.26 0-.24.21-.34.24m3.67-.88a6.9 6.9 0 0 0 3.59-2.59 2.15 2.15 0 0 1-.44 1A5.14 5.14 0 0 1 14 75a5 5 0 0 1-.82.38 11.4 11.4 0 0 1-2.33.21 15 15 0 0 1 2.87-.8m3.85 0a4.3 4.3 0 0 1-1.27.93 14.9 14.9 0 0 1-5.16.8 18.6 18.6 0 0 0 4-1.14 4.8 4.8 0 0 0 1.06-.59l.21-.18.2-.21a7.7 7.7 0 0 0 1.66-2.4 6 6 0 0 0 .33-1 11 11 0 0 0 .31-1.39c.16-.91.37-1.66.52-2.59.23-1.7.21-3.74.47-5.37a2.4 2.4 0 0 1 0-.54 2 2 0 0 1 .2-.52c0-.23.21-.83.21-.26 0 1.11-.21 2.17-.28 3.31v2.22a9.6 9.6 0 0 1-.19 2.14v.16a1.3 1.3 0 0 0 .06-.39 3.2 3.2 0 0 1 .1-1.07c.12-.41 0-1.16.15-1.65V63c.18-1 .41-1.92.62-2.72l.31-.77a25 25 0 0 1-.46 2.58A48.6 48.6 0 0 1 19 72.35 6.7 6.7 0 0 1 17.29 75m4.34-.2v.2h-.49l-2.59.18a5.6 5.6 0 0 1-1 0l.41-.49c0-.18.31-.49.44-.54a2.6 2.6 0 0 1 .68 0 19 19 0 0 1 2-.13h.67c.08 0-.18.52-.18.6m.43-2.19a1.6 1.6 0 0 1 0 .57h-.23a12 12 0 0 0-2 .13h-.08s-.36.13-.28 0A20.9 20.9 0 0 0 20.85 67a13.7 13.7 0 0 1 .29-3.44 7.6 7.6 0 0 1 1.11-3.3s0 .12.23.2.21 0 .26 0 .13.44.21.57a1.58 1.58 0 0 1 .49.9 24 24 0 0 1 0 3.18 23 23 0 0 1-.34 3.62 17 17 0 0 1-.34 2.12c-.1.75-.23 1-.33 1.55m5.17 1.78c.56.13 1.24.21 1.88.29 1.86.18 3.75.2 5.51.28h.41l-.62.18h-.49s.7.18.72.21 0 .15.23 0H33.9c-.36 0-.36 0-.31.15H34a6 6 0 0 1 .83 0c.37.07.75.16 1.11.26h-1.78a11 11 0 0 1-1.89-.2h-1.52l-2.07-.26c-.7 0-1.42-.18-2.07-.18a6 6 0 0 0-1.05 0 1.9 1.9 0 0 0 .56.15 6 6 0 0 1-1.5.23 4.7 4.7 0 0 1-1.67 0 .58.58 0 0 0-.21-.44 1.7 1.7 0 0 1-.21-.43 4.3 4.3 0 0 1 .18-1.81c.18-1 .29-2.07.44-3.08a6 6 0 0 1 0-.59h.21c.36 0 .28.33.21.77s0 .29 0 .52a17.5 17.5 0 0 1-.47 2.58v.31s.18-.23.18-.18a50 50 0 0 0 1.27-6.66 11 11 0 0 1-.13 1.7 9.7 9.7 0 0 1-.26 2.79 21 21 0 0 0-.75 3.52 1.3 1.3 0 0 0 .18.67c.16.18.52.15.91.15h.82a4 4 0 0 1-.26.31 2.6 2.6 0 0 1-.54-.23c-.54-.36-.46-1.34-.31-2.12s.31-2.14.44-3 .21-1.81.31-2.76.16-2.59.18-3.59a15 15 0 0 1 .21-2.3 17 17 0 0 1 .54-2 2.4 2.4 0 0 1 0-.38 2.4 2.4 0 0 1 .21-.34 2.5 2.5 0 0 1 0 .39 14.7 14.7 0 0 0-.42 3.85V64a44 44 0 0 1-.23 5c0 .6-.18 1.35-.23 2.1v.23a1.9 1.9 0 0 1 .21-1 2.8 2.8 0 0 0 .18-.7V68.3a7 7 0 0 1 .2-2 2.76 2.76 0 0 0 0-1.34c0-.42.21-.26.29-.44a3.7 3.7 0 0 0 0-1.24c.07-.87.18-1.73.33-2.59a22 22 0 0 1 .47-2.24c0-.26.21-.52.31-.83a4.4 4.4 0 0 0 .26-.59v-.19s-.24.34-.29.44-.33.6-.54.93l-.28.44.15-.57a14 14 0 0 1 .7-1.67 16.5 16.5 0 0 0 .52-2.07A8 8 0 0 0 28 53v-1.43s0-.36-.13-.31 0 .41 0 .46a11 11 0 0 1-.57 2.79s-.18.55-.18.39.15-.7.18-1.11a23 23 0 0 0 .16-2.46 5.6 5.6 0 0 0 0-1 5.3 5.3 0 0 0-.68-1.24 5.5 5.5 0 0 1-.38-1.45 2.8 2.8 0 0 0-.73-1.13c-.15-.18-.28-.44-.44-.6a2.7 2.7 0 0 0-1.23-.62c-.34 0-.59-.28-1-.44a5 5 0 0 0-1-.2h.15a6.4 6.4 0 0 1 1.68.28 3 3 0 0 1 .93.21c.29.13.7.18.86.36a18.4 18.4 0 0 1 1.7 2.82 6.74 6.74 0 0 1 1.27 3.3v2.54a11 11 0 0 1 0 1.16 14 14 0 0 1-.6 3c-.2.67-.44 1.26-.59 1.94a15 15 0 0 0-.31 2 25 25 0 0 1-.41 3.12c-.26 2.38-.7 4.4-.88 6.67v.31s-.26 0-.31.15a.5.5 0 0 0 0 .24 3.15 3.15 0 0 0-.21 1.25c0 .21.23.26.44.28a4.7 4.7 0 0 0 1.19 0 1.85 1.85 0 0 1-.83-.54 3.5 3.5 0 0 1-.31-.75c0-.21.31.18.36.23a2.42 2.42 0 0 0 1.53.91M30.5 38a21 21 0 0 0-.28 2.35 33.4 33.4 0 0 1-.29 5.38c-.28 1.76-.31 3-.54 4.42a24 24 0 0 0 .66-3.15 2 2 0 0 1 0-.49s.16.26.16.28a9 9 0 0 1 .62 2.21 18 18 0 0 1 .17 3.5 12.4 12.4 0 0 1-.31 2.5c-.13.46-.41.9-.51 1.32s-.57 1.26-.75 2a15.4 15.4 0 0 0-.31 2.25c-.31 2.58-.62 4.78-.86 7.15a10 10 0 0 0 0 1.71A1.36 1.36 0 0 0 29 70.6a34.7 34.7 0 0 0 8 1.58l-1.55.13a7.3 7.3 0 0 1 1.86.15 11 11 0 0 0-1.63.18c.15 0 .57.24.47.37h-.34a7.4 7.4 0 0 1-2.2-.13 20.6 20.6 0 0 0-4.23-.16h-2.5a.9.9 0 0 1-.33 0c-.16 0-.29-.62-.21-.77a.28.28 0 0 1 .23-.16v.31a.6.6 0 0 0 .39.26 10 10 0 0 0 1.06-.26c1.24-.13 2.59.29 3.72.23a26 26 0 0 0-3.55-.33c-.18 0-.9 0-1-.13s0-.47 0-.62a.5.5 0 0 0 0-.18 8.4 8.4 0 0 1 0-1.42 49 49 0 0 1 .33-6.65c0-.86.18-1.63.23-2.59a3.6 3.6 0 0 1 .36-1.29 4 4 0 0 0 .21-.67 19.5 19.5 0 0 0 .68-4.4 10.5 10.5 0 0 0-.36-4.29.64.64 0 0 1-.15-.25 8.3 8.3 0 0 0-1.19-2.23l-.49-.82c-.16-.26-.47-.55-.67-.86a3.5 3.5 0 0 0-.73-.85 2.64 2.64 0 0 0-1.26-.31c-.42 0-.93-.28-1.45-.33a1.5 1.5 0 0 0-.52 0h-.44a3.16 3.16 0 0 1 2.59 0 1.66 1.66 0 0 1 .9.18 2.57 2.57 0 0 1 1.53 1.21 3 3 0 0 0 .33.39 3.4 3.4 0 0 0 .18-.62c0-.88-1-1.4-1.26-2s.18-.31.44-.21 1.36.31 1.34-.31v-.46a.53.53 0 0 1 .21-.42h.33c1-.52.78-2.3 1-3.67a9 9 0 0 1 .21-1h1.09v.8m4.7-3.64s-.26.67-.42.72c.31 0 .47-.18.78-.28s.44-.18.49-.13-.18.36-.28.46-.37.18-.42.31c.42 0 1.17-.31 1.53-.15a1.5 1.5 0 0 1 .31.31 4.5 4.5 0 0 1-.73.15 4.7 4.7 0 0 0-1.13.42 2.15 2.15 0 0 1 1.5.69s.28.42 0 .29a4.8 4.8 0 0 0-1.22-.47H35a5 5 0 0 1 .73.44 2.7 2.7 0 0 1 .31.36l-.26.21s-.6-.47-.8-.59a4 4 0 0 0-1.84-.37h-3c-.95 0-1.6-.13-2.37-.18s-1.73-.18-2.59-.2a3.4 3.4 0 0 1-1 0c-.75-.31-.68-1.35-.73-2.17s-.18-1.84-.31-2.85a9 9 0 0 1 .36 1 3.7 3.7 0 0 0 .5.67 2.1 2.1 0 0 1 0 1.11c0 .83 0 1.63.88 1.73h1.4c.33 0 .67.13 1.06.16a5 5 0 0 1 .88.13 38 38 0 0 0 3.82.38 14 14 0 0 1-1.42-.38A2.2 2.2 0 0 1 29.4 36a4 4 0 0 0-.75-.23h-.24c-.62-.15-1.44-.15-2-.34s-.72-.46-1.06-.59h-.13a2.1 2.1 0 0 1-.38-.62 1.33 1.33 0 0 1 0-1c0-.15.38-.18.54-.23a1.48 1.48 0 0 0 .83-1.27v-.56c0-.08.43.15.49.2s.13.52.28.67a2.6 2.6 0 0 0-.15-.77 4.5 4.5 0 0 0 0-.73l-.19-.31a.27.27 0 0 1-.25-.23 2.3 2.3 0 0 1 0-.64.9.9 0 0 0-.18-.44 1.2 1.2 0 0 1-.29-.26c-.05-.1 0-.23 0-.34a1.37 1.37 0 0 0-.15-.69c-.16-.21 0 0 .18 0a1.85 1.85 0 0 1 .62 1 2 2 0 0 0 .31.73c.1.23.2.31.18 0s0-.42 0-.62a8 8 0 0 0 .13-1.22c-.05-.44-.31-.57-.24-1s.26-.37.21-.65-.26-.62-.31-1a2 2 0 0 1 0-.36 4.7 4.7 0 0 1 0-1.68V23A5.4 5.4 0 0 0 28 25.58 7.6 7.6 0 0 1 29.33 27 12.9 12.9 0 0 1 31 30.54a6.4 6.4 0 0 1 .31 1.73 5.9 5.9 0 0 1-.42 1.94v.44a2 2 0 0 1-.31-.36 3.2 3.2 0 0 1 0-.62 8 8 0 0 0-.15-2.17 9.1 9.1 0 0 0-1-2.41s-.23-.46-.33-.44 0 .31 0 .34a8.27 8.27 0 0 1 1.13 4.29 2.3 2.3 0 0 1 0 .52 2.3 2.3 0 0 1-.49-.26c-.1-.11-.46-.6-.75-.88 0 .28.13 1.34-.21 1.42s-.31 0-.41-.16H28c-.39 0-.26-.12-.44-.38s0 0-.18-.16 0 0 0-.18-.36-.41-.42-.57 0-.15 0-.31a3 3 0 0 0-.23-.49c-.13 0-.18.44-.2.6a3.1 3.1 0 0 0 0 1.06 1.3 1.3 0 0 0 0 .56c0 .13.38 0 .56.13a11 11 0 0 1 1.14.34 17.5 17.5 0 0 0 2.58.67 8 8 0 0 0 1.37.21 8.4 8.4 0 0 0 1.74 0 2.8 2.8 0 0 0 .69-.44s.62-.47.78-.44M35.06 26l-.82.62a3 3 0 0 0-.6.73 3.8 3.8 0 0 0-.54 2 12.6 12.6 0 0 0 1.45 4.55 4.4 4.4 0 0 1 .26.59c0 .16-.26 0-.26 0a12.7 12.7 0 0 1-1.14-2 10.2 10.2 0 0 1-.85-2.59 3.34 3.34 0 0 1 .64-2.71 7.4 7.4 0 0 1 1.73-1.32c.65-.38 1.25-.72 1.84-1l.28-.16-.67.59c-.44.34-.88.6-1.32.88m2.59-1.47a2.2 2.2 0 0 1-.54.31s.31-.28.23-.23a1.7 1.7 0 0 1 .54-.34 6.6 6.6 0 0 1 1.06-.45l-1.29.72m43.02 2.38" class="e7a16208-0061-4e92-a49a-66e2abf6821a"/><path d="M80.75 50.28v-.15Zm18.81 26.25" class="a48ca86c-82b8-4af0-8539-b9588c2dd404"/><path d="M107.57 75.86a20 20 0 0 0-3-.44c-1.29 0-2.58-.15-3.67-.2a7.5 7.5 0 0 1-1.16 0c-2.33-.57-4.91-1-6-2.9a8 8 0 0 1-.74-2.58 13 13 0 0 0-.23-1.63 33 33 0 0 1 0-3.44v-2.89A47 47 0 0 1 93 56.9c0-.6.18-1.17.23-1.74a21 21 0 0 0 0-3.17 5.4 5.4 0 0 0-.2-1.55 12 12 0 0 0-.21-1.19 19.6 19.6 0 0 0-1.16-3.75c-.44-1.14-.8-2.58-1.22-3.77-.23-.62-.49-1.24-.72-1.89-.42-1.26-.72-2.58-1.24-3.84a10 10 0 0 1-.57-2 6.4 6.4 0 0 1 0-1.24V30a30 30 0 0 0-.34-3.67 11.3 11.3 0 0 1-.15-1.84c0-.67.23-1.21.26-1.93a3.2 3.2 0 0 1 0-.62 6.6 6.6 0 0 1 .32-1.28 12 12 0 0 0 .26-1.32 7 7 0 0 0 0-2.59v-.18c0-.18.31-.49.39-.64a3.66 3.66 0 0 0 .35-1.59 5.3 5.3 0 0 0-.36-2.3s-.34-.41-.59-.29 0 .16-.18.26a6.4 6.4 0 0 0-1.35 1.79c-.18.49-.13.95-.28 1.44a.7.7 0 0 0 0 .21 3 3 0 0 1-.47-.23 6.5 6.5 0 0 1-1.55-3 5.5 5.5 0 0 0-.36-.78.6.6 0 0 0-.26 0 2.17 2.17 0 0 0-.7 1.32 9 9 0 0 0 .47 2.58 5.6 5.6 0 0 1 0 1 1.6 1.6 0 0 1-.31.33h-.36c-.13 0-.49.44-.55.6a.26.26 0 0 0 0 .21h-.31l.34.2c.1.05 0 .36-.26.49a16 16 0 0 1-1.16 1.32c-.18.13-.47.21-.52.41s0 .13 0 .19v.59c0 .57.36 1.29 1.06 1.29h.26c.1 0 .26.16.41.18a1.1 1.1 0 0 0 .57 0s.23-.13.34 0 0 .44 0 .54a5.9 5.9 0 0 1-.57 1.63 5.6 5.6 0 0 1-.65 1.29c-.33.39-.77.68-1.13 1.14l-.44.67a4.4 4.4 0 0 0-.36.68v-.52a3 3 0 0 0-1.12-1.78 25.1 25.1 0 0 0-7.93-3.75c-.46-.13-1.26-.39-1.68 0s.18 1.24.49 1.45a10.3 10.3 0 0 0 1.68.87 29.3 29.3 0 0 1 4.71 3 2.38 2.38 0 0 1 .87 2.4 5 5 0 0 1-.33 1.06c-.1.36 0 .31 0 .34s-.67-.24-.75-.26a4.6 4.6 0 0 1-.7-.36s-.21-.29-.33-.42a4 4 0 0 1-.29-.28 2.4 2.4 0 0 1-.36-.26c-.1-.1-.13-.21-.23-.28l-.31-.16v-.46c0-.13-.49-.68-.86-.42h-.15l-.21-.27a.68.68 0 0 0-1 0s-.18.42-.24.42h-.23a.49.49 0 0 0-.54.43v.39c0 .06-.29 0-.36 0a.51.51 0 0 0-.26.47c0 .57.57.85 1 1.08s.65.44.75.29 0-.18-.16-.31-.15-.29 0-.34.26.26.34.34.31.23.36.18-.13-.26 0-.39a4 4 0 0 0 .29-.28v.2s.46.55.54.44 0-.33 0-.41 0 0 .21 0 .2-.23.25-.23.31.31.37.33.67.57 1 .21 0-.23.13-.23.31.36.38.41a10 10 0 0 0 1.17.47h.26a3.6 3.6 0 0 1-.24.62 2 2 0 0 1 0 .33s0 .26-.13.29-.38-.18-.41-.24a5.7 5.7 0 0 0-.88-.38s-.72-.39-.75-.16 1 .6 1.09.65l.41.2.36.24a.29.29 0 0 1-.15.25l-.26.55a1 1 0 0 1-.34.51H75a1.2 1.2 0 0 0-.44.21v.16h-.31a1.2 1.2 0 0 0-.47.2.44.44 0 0 1-.15.39c-.16.13-.34.13-.47.23A.58.58 0 0 0 73 36v.26c0 .07-.13.44 0 .67a.6.6 0 0 0 .15.26.4.4 0 0 1 .13-.29c.13-.1.18-.49.49-.49H74v.23s-.7.39-.75.73 0 .13 0 .2a1.33 1.33 0 0 0 0 1 .83.83 0 0 0 1.13.29.8.8 0 0 0 .29-.29.83.83 0 0 1 .44-.34c.36-.12.54-.54.85-.69a4.55 4.55 0 0 1 2.1-.26h1.24s0 1 .15 1.11c.34 2.27.18 4.5.42 6.82a4.3 4.3 0 0 1 0 .72c0 .13-.24.29-.31.44a12.4 12.4 0 0 0-.81 2.38 16 16 0 0 0-.2 4.73 5.7 5.7 0 0 0 .18 1 7 7 0 0 0 .31 1 1.3 1.3 0 0 1 0 .28V56c.2.57.57 1.11.77 1.68a23.4 23.4 0 0 1 .62 4 2.3 2.3 0 0 0 .16 1c.15.36 0 .83.15 1.06a11 11 0 0 1 0 1.16 21 21 0 0 0 .39 3.34c.18 1 0 1.78-.57 2.09a13 13 0 0 1-4.75 1 13 13 0 0 0-1.86.23 2.8 2.8 0 0 1-.91 0 5 5 0 0 0-.93 0 3.2 3.2 0 0 0-1 .34 5 5 0 0 0-.72.36s-.29.13-.26.23.26 0 .31 0 0 .18 0 .18h-.23a1.5 1.5 0 0 0-.6.36H71c-.34 0-.44.24-.34.34s.49-.13.65 0a1.4 1.4 0 0 0 .59.26c.61-.09 1.22-.15 1.84-.18h.36a3.8 3.8 0 0 0 .82 0c1.3 0 2.9-.31 4.14-.34h4.18a3.3 3.3 0 0 1-.67.28 11.6 11.6 0 0 1-1.94.26L79 73.9h-.65a10 10 0 0 0-1.62-.13 7 7 0 0 0-1.09.26h-1.48a4.8 4.8 0 0 0-1.16.51.19.19 0 0 0-.18.13h-.16s-.59.26-.57.34.47 0 .62 0 .42 0 .18.13-.54 0-.75.21-.38.31-.33.36.64-.16.88 0l.31.13c.13 0 0 0-.13.13s-.44.38-.29.49.24 0 .29-.13a1.9 1.9 0 0 1 .67 0h1.14a2 2 0 0 0 .85 0 8 8 0 0 1 1 0l3.47-.24a38 38 0 0 1 4.39-.23 12.4 12.4 0 0 0 2.58 0 2.5 2.5 0 0 0 .55 0c.15 0 .23-.26.44-.28h.43a42 42 0 0 1 4.37.15h.7c.15 0 .41.21.67.29a28 28 0 0 0 7.75.69l4.09-.12a6 6 0 0 0 1.34 0c.28 0 1-.42 1-.68s-.62-.25-.9-.31m-37-46.6c-.2.16 0-.39 0-.41h.13c.13 0-.2.23-.33.31m1.55-.42-.26-.12a.5.5 0 0 0-.62.31c-.16.31 0-.13 0-.29s.2-.39.39-.36a.8.8 0 0 1 .36.15s.18.29.13.31m1 .37-.28-.21a.8.8 0 0 0-.37 0H72a5 5 0 0 1 .31-.47h.31s.26.5.18.55m15.5 28.11c.16-.18.55-.18.75-.34s.13-.18.21-.25h.15a1.1 1.1 0 0 1 .57 0 5.5 5.5 0 0 1-.67.69l-.49.42H88v-.26m1.7 1V60a3.4 3.4 0 0 0-.23-.52 4.4 4.4 0 0 1 0-1.14 3.8 3.8 0 0 1 .13-1v.86m-3.33 7v.77c.16 0 0-.59 0-.77a7 7 0 0 1-.13-1 6 6 0 0 0 0-1.06 9 9 0 0 1-.29-2.14.86.86 0 0 1 .68-1 1 1 0 0 1 .23 0h.39c.15 0 .41 0 .36.15a4.4 4.4 0 0 0-.65 1 1 1 0 0 1-.13.28v.67a21 21 0 0 0 0 3m.27-5.88c0-.13-.13-.57 0-.64a1.5 1.5 0 0 1 .52 0 2 2 0 0 0 .33-.21c.16 0 .21-.34.36-.41s.55.23.83.12a11 11 0 0 0-1 1.12s-.21.38-.29.41a1 1 0 0 1-.82-.39m1.16-40.88a7.5 7.5 0 0 0-.46-1 .36.36 0 0 1 0-.44c.12 0 .23.18.31.21s0 0 0 .2.33 0 .31.26-.26.91-.29.8m-.08.24v.15s-.2 0-.18-.15a3 3 0 0 1 .24-.37v.37m-1.12-3.54a4 4 0 0 1 .29-1.63 11 11 0 0 1 .9-1 .6.6 0 0 0 .18-.23s0-.15.16 0a4.36 4.36 0 0 1 .36 2.59 5.2 5.2 0 0 1-.8 1.62v.21s-.28-.15-.28-.23.23-.18.31-.26a3.4 3.4 0 0 0 .59-2.14 3.4 3.4 0 0 0-.47.78s0 .18-.13.18a3.1 3.1 0 0 1 0-1.06 1.1 1.1 0 0 1 0-.36 1.6 1.6 0 0 1 .21-.6s.18-.36 0-.41-.31.21-.36.26a3.3 3.3 0 0 0-.47.59 4.3 4.3 0 0 0-.18 2.07 1.7 1.7 0 0 1-.18.88c0-.29 0-.7-.13-.83s0 0-.16 0 0-.39 0-.52m-.15 3.75a2 2 0 0 0 .36-.28q-.06.29-.15.57a3 3 0 0 1-.55.36 2.6 2.6 0 0 1-1.06.23 3 3 0 0 0 1.4-.9m-1.45-1.31s-.41.13-.28 0a.53.53 0 0 1 .39 0l.44.13s.25.16.2.18-.67-.15-.75-.15m-.06.11s.16.54.44.47.18-.26.23-.34c.18 0 0 .36 0 .41a.63.63 0 0 1-.8 0c0-.15-.15-.64 0-.59m1.13-.34h-.26a1.46 1.46 0 0 0-.82-.18c-.13 0-.49.18-.29 0l.37-.23a1.2 1.2 0 0 1 .46 0 .8.8 0 0 1 .36.21s.34.15.29.23m-.42-1.55h.08a4.2 4.2 0 0 0-2 .44s-.21.15-.23 0l.21-.29a1.46 1.46 0 0 1 1-.46 4.5 4.5 0 0 1 .9 0m-2.19-2.82a4 4 0 0 1 0-.46s.18-.29.2-.26a3.6 3.6 0 0 0 .37.88 2.8 2.8 0 0 0 .23.75 3.5 3.5 0 0 0 .26.7v.62c0 .15.2.25 0 .41S84 15 84 14.8a5.3 5.3 0 0 0-.36-.93 2.53 2.53 0 0 1-.34-1.26M81.36 19a6 6 0 0 1 .65-.77s.39-.21.39-.34v-.18c0-.18.2-.23.15-.39-.36 0 .16-.62.44-.49s0 .47 0 .67-.26.24-.39.42a4 4 0 0 1-.62.82l-.51.44c-.18.18 0-.15 0-.18m-.62 2.59a1.33 1.33 0 0 1-.57-1.09v.21a1.6 1.6 0 0 0 .46.85s.31.26 0 .13m1.63 0a1.37 1.37 0 0 1-.85 0s-.7-.44-.62-.54a.7.7 0 0 0 .15-.39c0-.49.37-.29.7-.47s.34-.41.16-.56a.65.65 0 0 0-.39 0s-.16.25-.34.28a3 3 0 0 1-.41.21v-.37a3.3 3.3 0 0 0 .54-.25c.21-.13 0-.13.13-.13h.16c.15 0 .44-.37.69-.6a4.6 4.6 0 0 1 .7-.7c.23 0 .39-.46.75-.49l-.13.34c-.26.39-1.21.65-1.37 1.24a.94.94 0 0 0 0 .41s.29 0 .31.16a1.6 1.6 0 0 1 0 .44 1.9 1.9 0 0 1-.46.44h.18c.08 0 0 .18.33 0s0 .31-.13.38a2 2 0 0 1-.33.24h.31a3.9 3.9 0 0 1 1.08-.7c.38-.08.47 0 .44 0a4.3 4.3 0 0 0-.64.49c-.11.13 0 0 0 .16a3.27 3.27 0 0 0 2-.24 5.8 5.8 0 0 0 1.09-.95 5 5 0 0 0 .62-.34 2.7 2.7 0 0 1 .28-.46 7 7 0 0 1-.15.87 3 3 0 0 1-.39.81 2.8 2.8 0 0 1-1.09.69 7 7 0 0 1-1.29 0c-.15 0-.64.13-.8 0s0-.26-.18-.28a2.3 2.3 0 0 0-.72.21M78.42 32v.16a5.5 5.5 0 0 0 .26 1.84v.29l-.68-.21s-.54-.28-.54-.44.31-.54.36-.67a5 5 0 0 0 .41-.62v-.16m.44 2.81a8 8 0 0 1-1.83 0h-.31s.56-1 .69-1a9 9 0 0 0 1.17.75s.36.18.25.21m-5.88-10.6c-.46-.23-.82-.46-1.29-.72a8 8 0 0 1 1.06.47 1.2 1.2 0 0 1 .52.33l.26.23a1.7 1.7 0 0 1-.55-.31m3 9.33a12.4 12.4 0 0 0 1.45-4.55 4.25 4.25 0 0 0-.54-2 2.9 2.9 0 0 0-.62-.68l-.8-.64A13 13 0 0 1 73.9 25c-.23-.19-.46-.39-.67-.6l.28.16c.6.28 1.17.62 1.84 1a8 8 0 0 1 1.73 1.31 3.32 3.32 0 0 1 .64 2.72 10.7 10.7 0 0 1-.85 2.58 12.7 12.7 0 0 1-1.14 2s-.18.23-.25 0a3 3 0 0 1 .25-.6m1.17 3.13a3.66 3.66 0 0 0-1.84.39c-.2 0-.49.59-.82.56s-.24-.13-.24-.2.26-.34.29-.36a4 4 0 0 1 .75-.44h-.75a5.4 5.4 0 0 0-1.24.46c-.18.13 0-.18 0-.28a2.25 2.25 0 0 1 1.52-.7 5.3 5.3 0 0 0-1.16-.41 6 6 0 0 1-.7-.16 1.4 1.4 0 0 1 .29-.31c.38-.15 1.13.21 1.52.16 0-.13-.26-.16-.41-.31s-.42-.39-.29-.47a.45.45 0 0 1 .49.13 4.2 4.2 0 0 0 .78.26c-.13 0-.41-.7-.39-.72a5.5 5.5 0 0 1 .75.41 2.6 2.6 0 0 0 .72.46 7.2 7.2 0 0 0 1.74 0 9 9 0 0 0 1.36-.2 18 18 0 0 0 2.59-.67c.41 0 .77-.29 1.14-.34s.46 0 .59-.13a1.4 1.4 0 0 0 0-.57 4.7 4.7 0 0 0 0-1.06c0-.15 0-.62-.21-.59l-.26.49v.31c0 .1-.28.31-.41.57s0 .13 0 .18 0 0-.15.15 0 .34-.44.39h-.42s-.31.18-.41.16a8.7 8.7 0 0 1-.21-1.43 9 9 0 0 1-.75.91c-.25.23-.36.31-.46.23a1.5 1.5 0 0 1 0-.52 8.24 8.24 0 0 1 1-4.21s.21-.28 0-.33-.26.31-.33.44a8.3 8.3 0 0 0-1 2.4 8.5 8.5 0 0 0-.16 2.2 2 2 0 0 1 0 .59s-.25.39-.31.36 0-.39-.13-.44a6.8 6.8 0 0 1-.41-1.94 7.3 7.3 0 0 1 .34-1.73 12.1 12.1 0 0 1 1.68-3.51 6.4 6.4 0 0 1 1.34-1.45A5.1 5.1 0 0 0 83 22.81v-.29a6.8 6.8 0 0 1 0 1.68v.37c0 .12-.26.69-.31 1s.13.42.18.65-.16.62-.21 1 .16.85 0 1.21 0 .41 0 .62 0 0 .16 0 .25-.49.33-.72a2 2 0 0 1 .62-1.06s.24-.31.18 0l-.18.7a.6.6 0 0 1 0 .33 4 4 0 0 0-.28.26 1.1 1.1 0 0 0-.16.44v.65c0 .15-.18.15-.25.23a.8.8 0 0 0-.19.31v.7a2.7 2.7 0 0 0 0 .8c.16-.16 0-.47.26-.65s.44-.28.52-.23 0 .46 0 .57a1.42 1.42 0 0 0 .83 1.26c.15 0 .44 0 .54.24a1.56 1.56 0 0 1 0 1 2.2 2.2 0 0 1-.54.73 9 9 0 0 1-1.06.62c-.6.18-1.42.18-2 .33h-.24a2.5 2.5 0 0 0-.75.24c-.38.12-.82 0-1.21.23a5 5 0 0 1-1.42.39c1.27-.07 2.54-.2 3.8-.39a5.6 5.6 0 0 1 .9-.13c.36 0 .7-.13 1.06-.16s.65 0 .93 0H85c.77 0 .9-.9.88-1.73a2.6 2.6 0 0 1 0-1.11c0-.26.36-.46.49-.75a8 8 0 0 1 .36-.95c-.13 1-.23 1.83-.31 2.84s0 1.86-.72 2.17a3.4 3.4 0 0 1-1 0c-.83 0-1.68.15-2.58.21s-1.58.18-2.38.18h-3M83 72.76h-2.48a20.7 20.7 0 0 0-4.24.16 7.4 7.4 0 0 1-2.2.13h-.36c0-.13.34-.31.49-.37a11.4 11.4 0 0 0-1.65-.18c.54-.18 1.31 0 1.88-.15l-1.52-.13a34.7 34.7 0 0 0 8-1.58 1.38 1.38 0 0 0 .77-1.21 12 12 0 0 0 0-1.71c-.26-2.37-.54-4.67-.85-7.15a19 19 0 0 0-.34-2.25 18 18 0 0 0-.75-2c-.19-.65-.36-.86-.49-1.32a9.5 9.5 0 0 1-.26-2.43 17.3 17.3 0 0 1 .42-3.51 8.2 8.2 0 0 1 .58-2.29.7.7 0 0 1 0-.29V47a17.5 17.5 0 0 0 .62 3.21c-.24-1.45-.39-2.87-.55-4.42s-.18-3.57-.31-5.38a23 23 0 0 0-.25-2.41 5 5 0 0 1 0-.8h1.06c.09.34.17.69.23 1 .18 1.37 0 3.15 1 3.67h.34a.64.64 0 0 1 .18.41v.46c0 .62.88.47 1.34.31s.57-.15.41.18-1.21 1.19-1.24 2.07c0 .16 0 .62.18.62s.26-.31.34-.39a2.62 2.62 0 0 1 1.52-1.21 1.6 1.6 0 0 0 .91-.18 3.14 3.14 0 0 1 2.58 0h-.44a2.2 2.2 0 0 0-.51 0c-.52 0-1 .31-1.45.33a2.9 2.9 0 0 0-1.29.31 3.9 3.9 0 0 0-.7.86c-.23.31-.52.59-.7.85s-.28.54-.46.8a7.6 7.6 0 0 0-1.19 2.28l-.16.23a10.6 10.6 0 0 0-.46 4.36 19.7 19.7 0 0 0 .73 4.31 3 3 0 0 0 .2.67 3.3 3.3 0 0 1 .36 1.3c0 .9.16 1.68.21 2.58.18 2.27.26 4.39.34 6.64a8.4 8.4 0 0 1 0 1.42.5.5 0 0 1 0 .18c0 .16.2.47.13.62s-.81.13-1 .13a24 24 0 0 0-3.59.47c1.14 0 2.59-.36 3.75-.24.36 0 .7.24 1.06.26a.6.6 0 0 0 .39-.26V72a.8.8 0 0 1 .25.16c0 .15 0 .72-.2.77a1 1 0 0 1-.34 0m4.34 2c0 .15-.15.26-.23.44s0 .39-.21.44a5.3 5.3 0 0 1-1.68 0 7.7 7.7 0 0 1-1.51-.28c.13 0 .6 0 .57-.15a6.6 6.6 0 0 0-1.09 0c-.62 0-1.34.13-2.06.18l-2 .26h-1.49a12 12 0 0 1-1.88.21h-1.76a9 9 0 0 1 1.13-.26h1.19a.8.8 0 0 0-.31-.16h-1.13c.2 0 .75-.13.75-.2s-.37 0-.5 0a5 5 0 0 0-.64-.19h.44a37.4 37.4 0 0 0 5.5-.28c.63-.06 1.25-.16 1.86-.28a2.58 2.58 0 0 0 1.55-.91s.24-.44.36-.23a3 3 0 0 1-.31.75 1.7 1.7 0 0 1-.85.54 4.7 4.7 0 0 0 1.19 0c.18 0 .36 0 .41-.28a3.2 3.2 0 0 0-.18-1.3V73s-.26 0-.33-.15a.8.8 0 0 1 0-.31c-.18-2.28-.62-4.29-.91-6.67 0-1-.28-2-.38-3.13a19 19 0 0 0-.32-2c-.15-.67-.41-1.26-.59-1.94a14.6 14.6 0 0 1-.59-3 7.6 7.6 0 0 1 0-1.17V52a6.7 6.7 0 0 1 1.26-3.3 16.7 16.7 0 0 1 1.6-3.16c.16-.18.57-.23.83-.36a3.7 3.7 0 0 1 .93-.21A7 7 0 0 1 88 44.7h.15a4.2 4.2 0 0 0-1 .21c-.42.13-.67.33-1 .44A3.2 3.2 0 0 0 85 46c-.15.16-.28.42-.44.6a2.44 2.44 0 0 0-.69 1.14 6 6 0 0 1-.42 1.44 4.9 4.9 0 0 0-.64 1.24 5.6 5.6 0 0 0 0 1 22 22 0 0 0 .19 2.4A2.9 2.9 0 0 0 83 55c.16.42-.13-.31-.15-.39a12 12 0 0 1-.6-2.79 1.8 1.8 0 0 0 0-.46s0 .26-.15.31V53a5 5 0 0 0 .23 1.4 12.4 12.4 0 0 0 .49 2 10.6 10.6 0 0 1 .7 1.71l.18.56s-.28-.41-.31-.43a11 11 0 0 1-.52-.93c-.18-.36-.23-.44-.28-.44s0 .15 0 .18a4 4 0 0 0 .23.59c0 .31.26.57.34.83.2.82.31 1.39.46 2.25a26 26 0 0 1 .38 2.61 3.7 3.7 0 0 0 0 1.24c0 .18.23.26.28.47a9.5 9.5 0 0 0 .13 1.31 17 17 0 0 1 .18 2v1.31a2.2 2.2 0 0 0 .21.7c0 .28 0 .85.21 1s0 0 0-.23c0-.75-.19-1.5-.24-2.1a46 46 0 0 1-.26-5v-1.14a13.2 13.2 0 0 0-.43-3.89s-.16-.39 0-.39a2.3 2.3 0 0 1 .2.34 2.5 2.5 0 0 1 0 .39 14 14 0 0 1 .57 2 16 16 0 0 1 .21 2.3 31 31 0 0 0 .15 3.59c.16 1.21.21 1.83.34 2.76s.23 2.1.41 3 .26 1.76-.28 2.12a2.4 2.4 0 0 1-.57.23h.52c.18 0 .74 0 .87-.15a1.07 1.07 0 0 0 .19-.67A22 22 0 0 0 86 71a24 24 0 0 1-.26-2.79 9 9 0 0 1-.13-1.7 43 43 0 0 0 1.27 6.66s0 .31.18.18 0-.31 0-.31c0-.62-.36-1.86-.44-2.58V70c0-.2-.15-.67.21-.77H87v.59c.18 1 .28 2.12.46 3.08a4.3 4.3 0 0 1 .18 1.81m.29-2.07v-.52c0-.2-.26-1-.31-1.55s-.26-1.42-.37-2.12c-.15-1.11-.2-2.3-.31-3.61a28 28 0 0 1 0-3.18c0-.52.31-.6.52-.91s0-.46.21-.56.18 0 .26 0 .15-.24.23-.21a7.66 7.66 0 0 1 1.11 3.31 33 33 0 0 1 .31 3.43A21.9 21.9 0 0 0 91 72.86c0 .19-.15 0-.28 0h-.34a11 11 0 0 0-2-.12h-.23m3.39 2.11L89 74.67h-.49v-.25a3 3 0 0 1-.18-.6H89a11 11 0 0 1 2 .18 2.5 2.5 0 0 1 .67 0c.13 0 .31.36.44.54l.41.49a5.6 5.6 0 0 1-1 0m2.5.68a4.7 4.7 0 0 1-1.24-.93A6.86 6.86 0 0 1 91 72.14a49 49 0 0 1-1.6-10.33c0-.83-.36-1.63-.46-2.59a5.4 5.4 0 0 1 .33.78c.21.8.44 1.75.62 2.71v1a.9.9 0 0 1 0 .33v.7a15 15 0 0 1 0 1.65 2.3 2.3 0 0 0 .16 1.06 1 1 0 0 0 .13.29v-.13c0-.72-.16-1.45-.18-2.09a5 5 0 0 1 0-.8V63.3c0-1.13-.26-2.19-.29-3.3 0-.57.16 0 .24.26l.2.51a5 5 0 0 1 0 .54c.26 1.63.21 3.67.47 5.35a25 25 0 0 0 .52 2.59 13 13 0 0 0 .28 1.39 6 6 0 0 0 .36 1 7.4 7.4 0 0 0 1.65 2.45l.24.21.18.18a4.8 4.8 0 0 0 1.06.59A17.6 17.6 0 0 0 99 76.2a15.2 15.2 0 0 1-5.32-.8m3.15-.26A6 6 0 0 1 96 75a5.24 5.24 0 0 1-2.87-1.86c-.49-.68-.43-.75-.43-1a6.44 6.44 0 0 0 3.59 2.43 19 19 0 0 1 2.87.83 11.4 11.4 0 0 1-2.33-.21m3.1.29h-.18a7 7 0 0 0 1 .16l2.59.28a29 29 0 0 1-3.36-.13M26.9 16.74c.26 0 .83 0 .8.47s0 .85-.47.69-.59-1.13-.33-1.16" class="e7a16208-0061-4e92-a49a-66e2abf6821a"/><path d="M83.2 16.74c-.26 0-.82 0-.82.47s0 .85.49.69.59-1.13.33-1.16" class="e7a16208-0061-4e92-a49a-66e2abf6821a"/><path d="M51.91 20.39c0 .31-.39.59-.95.62s-1-.19-1-.47.41-.59 1-.62 1 .18 1 .47m-5.48.51.44.65 1.14-.91-1.34-.49zM49 18.58a1.44 1.44 0 0 1-1-1.27 1.21 1.21 0 0 1 1.11-1.16.6.6 0 0 1 .42 0 2 2 0 0 1 0-.7 3.5 3.5 0 0 1 .47-1.73A3.32 3.32 0 0 1 51 16a.72.72 0 0 1 .67 0 1.19 1.19 0 0 1 1.16 1.17 1.46 1.46 0 0 1-.7 1.16l-.23.2v-.28a2.4 2.4 0 0 0 0-.54c0-.29 0-.54-.33-.57a.31.31 0 0 0-.34.28.45.45 0 0 0 0 .23h-.18a.8.8 0 0 1 0-.31.53.53 0 0 1 .54-.51.62.62 0 0 1 .5.72v.31a1.25 1.25 0 0 0 .39-.83 1 1 0 0 0-.8-1.06.64.64 0 0 0-.65.52h-.13a1.14 1.14 0 0 0 0-.52 3.1 3.1 0 0 0-.8-2 3.5 3.5 0 0 0-.36 1.52 2.5 2.5 0 0 0 .21 1 .72.72 0 0 0-.6-.37.75.75 0 0 0-.62.29 1 1 0 0 0-.28.67 1.12 1.12 0 0 0 .62 1 1.4 1.4 0 0 1 0-.57.56.56 0 0 1 .33-.51h.21a.43.43 0 0 1 .34.13.49.49 0 0 1 .18.41v.16h-.21c0-.29-.15-.31-.31-.34h-.13c-.18 0-.2.18-.2.39a1.4 1.4 0 0 0 0 .49v.26l.15.26Z" class="a48ca86c-82b8-4af0-8539-b9588c2dd404"/><path d="M49.35 18.14a.45.45 0 0 1 .39-.44l1.5-.16a.45.45 0 0 1 .46.39.45.45 0 0 1-.41.44l-1.45.21a.42.42 0 0 1-.44-.39m.44.18 1.5-.18a.24.24 0 0 0 .24-.23.24.24 0 0 0-.26-.21l-1.5.18a.26.26 0 0 0-.23.23.26.26 0 0 0 .25.21" class="a48ca86c-82b8-4af0-8539-b9588c2dd404"/><path d="M46.46 18.27h.21a1.6 1.6 0 0 0 1.62 1 1.76 1.76 0 0 0 1.53-.88H50a2 2 0 0 1-1.68 1 1.87 1.87 0 0 1-1.84-1.19m4.73.12.16-.13a1.72 1.72 0 0 0 1.32.54h.2a1.62 1.62 0 0 0 1.55-1.47v-.13h.18v.15A1.83 1.83 0 0 1 52.89 19h-.23a1.94 1.94 0 0 1-1.47-.62m-4.47 3.01H47V22h-.29v-.54m-.43-3.99a4.8 4.8 0 0 1 .62-1.76l-1.84.54v-.18l2.3-.67-.13.2s-.18.31-.36.7a4 4 0 0 0-.36 1.17h-.21" class="a48ca86c-82b8-4af0-8539-b9588c2dd404"/><path d="m48.32 18.86-.67-.28a2.8 2.8 0 0 0-.93-.26v-.18h.15a3.9 3.9 0 0 1 1.37.46l-.62-2.12-.28.44c-.23.34-.49.7-.75.78v-.18a2 2 0 0 0 .64-.7 6 6 0 0 0 .37-.62l-.08-.2.8 3Z" class="a48ca86c-82b8-4af0-8539-b9588c2dd404"/><path d="m46.51 19.89.26-1v.23c0 .26.72.52 1.45.52h.28c.93 0 1.65-.47 1.68-.78v-.25l.44.67.26-.85v.28c0 .31.62.54 1.32.54h.62c.9-.15 1.57-.64 1.65-1.06v-.41l.41 1.37h-.2l-.18-.67a2.63 2.63 0 0 1-1.68.93h-.68a1.73 1.73 0 0 1-1.37-.41l-.25.78-.42-.67a2.28 2.28 0 0 1-1.75.77 2.15 2.15 0 0 1-1.47-.41l-.16.57Zm-.08-17.1c0-.31.39-.49.34-1s0-.41 0-.46a1 1 0 0 1 .15-.7s0-.42.16-.29.18.47.23.6a1.54 1.54 0 0 1 0 1.08c0 .13-.41.62-.41.86m-1.9.19a1.33 1.33 0 0 0 .31-.85 7 7 0 0 0-.16-1 2.8 2.8 0 0 1 0-1s.18-.36.24-.16a4.4 4.4 0 0 0 .33 1 1.08 1.08 0 0 1 0 .93 6 6 0 0 0-.41 1.08m-1.59.7a8 8 0 0 0 0-2.2 7 7 0 0 1-.72-.8.9.9 0 0 0-.13-.26h.26a1.5 1.5 0 0 1 1.26.83 2.1 2.1 0 0 1 0 1 4.3 4.3 0 0 1-.13 1.13c-.13.29 0 .29-.13.39m-2.04 1.2c-.13.36 0-1.57 0-2a3.5 3.5 0 0 0-.18-.77c0-.21 0-.36-.39-.54s-.25-.32-.41-.39.26 0 .39 0a1.26 1.26 0 0 1 1.21 1 5.6 5.6 0 0 1 0 1v.2L42.56 5c0 .18-.31 0-.39.16m-.8.91s-.31-1.24-.31-1.45c0-.72-.18-2.62-1.86-2.62-.47 0-.75.39-.6.49s.13-.31.75 0a5 5 0 0 1 1.3 2L41 6m-.85 2.89a7 7 0 0 1-.44-1.06A3.8 3.8 0 0 0 39 6.54c-.49-.39-.8-1.71-1.5-1.79h-.57a1.4 1.4 0 0 1 1.71 0 3.85 3.85 0 0 1 1.45 2.59c0 .13.13 1 .38 1.11m7.62-5.79a1.14 1.14 0 0 0 .67-1.11 2.5 2.5 0 0 0-.29-.75.26.26 0 0 0-.23.18 2.4 2.4 0 0 0 0 1s-.41.36-.41.57" class="a48ca86c-82b8-4af0-8539-b9588c2dd404"/><path d="M46.46 23.38a1.1 1.1 0 0 1-.31-.31c-1.42-1.39-3.46-5.55-4-5.68a1.08 1.08 0 0 1-.77-.67 1 1 0 0 0 0-.26s.39-.44.49-.42.28 0 .21 0a25 25 0 0 0-1.24-2.63 1 1 0 0 1-.6-1.09 3 3 0 0 1 .49-.31c.13-.07.13 0 .16 0s.23.18.2 0a11.7 11.7 0 0 1-.23-2.58c-.77-.23-.7-.57-.7-.72a2 2 0 0 1 0-.34c.13-.21.21-.26.29-.26a.51.51 0 0 1 .59.23h.16a8 8 0 0 1 0-1s0-.52-.16-.55-.28-.51-.28-.59a.34.34 0 0 1 0-.28.47.47 0 0 1 .33 0c.31 0 .34.67.31.72s0 0 .13.13.13 0 .16 0a7 7 0 0 0 .31-1c0-.07-.23-.9-.13-1a.6.6 0 0 1 .26 0h.2c.21 0 .13.39.16.44s.7-.64.67-.75a6 6 0 0 0 0-.59v-.2c0-.18.44-.18.47 0a5 5 0 0 1 0 .57 7 7 0 0 0 .72-.52c.13-.13 0-.36 0-.62s.93 0 1.14 0 0 .42 0 .55.36 0 .54-.16a.72.72 0 0 0 .25-.49c0-.16.31 0 .51 0s0 .34 0 .46.39 0 .6-.23a.46.46 0 0 0 .28-.39c0-.12.13-.23.42-.12s0 .31 0 .36.51.13.59 0a.42.42 0 0 1 .47-.24c.23.08 0 .34 0 .37 1.06.15 1.26.49.9.36a6.2 6.2 0 0 0-2.58 0c-9.62 2.58-4.34 14.18-.36 18.5a.36.36 0 0 0-.34.23c0 .21-.44.65-.31.83s.13.44 0 .36m1.6-20.8" class="a48ca86c-82b8-4af0-8539-b9588c2dd404"/><path d="M35.4 16.38a2.4 2.4 0 0 0 .26.59 1 1 0 0 1-.26-.59m1.42 2.71h-.31a.55.55 0 0 0 .31 0m0-3.61v.18m1.42 3.82h-.15a.8.8 0 0 0 .38 0h.21a1.1 1.1 0 0 1-.44 0m2.59-5.17h-.78a1.4 1.4 0 0 0-.9 0c-.24 0-.68.42-.93 1.76 0 .13-.29.13-.86.88.16-.31.8-.88.8-.8a2.6 2.6 0 0 1-.36 1.19 3.4 3.4 0 0 1 1.2-.78 1.6 1.6 0 0 1-.19.34 3.8 3.8 0 0 0-.59 1.6c0 .85.52.62.57.64a2.6 2.6 0 0 0 .67-1.78 5.36 5.36 0 0 1 .65-2.74 8 8 0 0 1 1.29 1.68l.3-.34c0-.15-.23-1.52-.82-1.83m.41 1.39c-.26 0-.95-.8-1.16-1s.39-.44.52-.44c.54 0 .64.62.67.8a6 6 0 0 1 0 .59M35.92 19a.46.46 0 0 0 .36.31.49.49 0 0 1-.47-.31m.62-6a.35.35 0 0 0 .26.16.44.44 0 0 1-.26-.16m1.06 0h-.75a3 3 0 0 0 .75 0m1.24-3c-.13 0 0-.7.39-.91s0 0 .18 0h-.21a3 3 0 0 1-.74 0 .54.54 0 0 0-.68 0 2.45 2.45 0 0 0-.9 1.76c0 .21 0 .75-.23.49A3 3 0 0 1 37 12a3.1 3.1 0 0 1 .16-1 3 3 0 0 1 .2-.47.75.75 0 0 0 .21.49c.23.24.28.91.28.75s.39-.44.44-.56.13-.47.23-.44a2.7 2.7 0 0 1 0 .69c0 .57-.36.78-.41 1s.47.23.39.31h-.18a.61.61 0 0 0 .36-.39 10 10 0 0 0 0-2.58Zm.84-.76a1 1 0 0 1 .21.31s.46 1.81.31 1.75a3.8 3.8 0 0 1-1.19-1v-.15a2.8 2.8 0 0 0 .49 1.11 8 8 0 0 0 .75.87l.59-.25a6.14 6.14 0 0 0-1.06-2.59m6.76-6.45c0-.36.39-.54.34-1.06a4 4 0 0 1 0-.46c0-.34.23-1.12.28-1s.18.47.24.6a1.54 1.54 0 0 1 0 1.08c0 .13-.42.62-.42.86m-5.5 3.21s-.31-1.24-.31-1.45c0-.72-.18-2.62-1.86-2.62-.47 0-.75.39-.6.49s.31-.36.75 0A6.18 6.18 0 0 1 41 6m-.87 2.86a9 9 0 0 0-.42-1A3.9 3.9 0 0 0 39 6.54c-.49-.39-.8-1.71-1.5-1.79h-.57a1.4 1.4 0 0 1 1.71 0 3.85 3.85 0 0 1 1.45 2.59s.13.9.49.9" class="a48ca86c-82b8-4af0-8539-b9588c2dd404"/><path d="M36.69 13.2c-.28 0-.41-.28-.46-.54a2.5 2.5 0 0 1 0-.67 1.66 1.66 0 0 0-.21-.75.28.28 0 0 1 0-.18 1 1 0 0 1 .36.23l.29.26a2 2 0 0 0 0-.34 2.56 2.56 0 0 1 .93-1.83A.7.7 0 0 1 38 9a.8.8 0 0 1 .31 0H39c.67 0 1.09.78 1.37 1.53a11 11 0 0 1 .47 1.57h-.14a12 12 0 0 0-.47-1.55c-.23-.78-.7-1.46-1.23-1.43h-1a.8.8 0 0 0-.33.15 2.4 2.4 0 0 0-.88 1.73 2 2 0 0 1 0 .49s0 .13-.16.13a.28.28 0 0 1-.18 0l-.31-.29a2.2 2.2 0 0 1 .18.72 3.3 3.3 0 0 0 0 .63c0 .23.16.41.29.41h1.5a.47.47 0 0 0 .44-.34 4.3 4.3 0 0 0 0-.88v-1.56a.41.41 0 0 1 .31.2 3.4 3.4 0 0 0 .49 1.17 5.3 5.3 0 0 0 .88 1h-.13a9 9 0 0 1-.91-1.06 3.5 3.5 0 0 1-.51-1.16V12a5.6 5.6 0 0 1 0 1 .62.62 0 0 1-.62.44h-1.37M38 19.35a1.6 1.6 0 0 0-.64-.13h-1a.62.62 0 0 1-.62-.62 5 5 0 0 1 0-.8 1.5 1.5 0 0 0 0-.42 3.2 3.2 0 0 0-.41-.88 1 1 0 0 1 .26.16l.23.21.46.51a6 6 0 0 1 0-.59 4.3 4.3 0 0 1 .16-1h.13V16l.15.44a1.7 1.7 0 0 0 .21.72 6 6 0 0 1 1-1l.26-.18c.26-1.35.73-1.71 1-1.84a1.5 1.5 0 0 1 .52 0 1.6 1.6 0 0 1 .44 0H41c.49.29.69 1.16.82 1.66v.2h-.18v-.3a2.7 2.7 0 0 0-.15-.56 1.6 1.6 0 0 0-.57-1h-1.13a.8.8 0 0 0-.44 0c-.2 0-.62.36-.88 1.7 0 .16-.15.16-.28.26a2.2 2.2 0 0 0-.57.62.14.14 0 0 1-.15 0 .4.4 0 0 0-.18-.28 6 6 0 0 0-.18-.62 1.4 1.4 0 0 0-.16-.49.28.28 0 0 0 0 .18 4 4 0 0 0 0 .67V17a4 4 0 0 0-.44-.51l-.21-.21a6 6 0 0 0 .31.72 1.5 1.5 0 0 1 .13.52v.77c0 .25 0 .47.34.52h.23c.21 0 .29-.13.7-.13a2.2 2.2 0 0 1 .72.16.65.65 0 0 0 .34 0s.85-.26.93-1.84a5.8 5.8 0 0 1 .62-2.74A8.2 8.2 0 0 1 42 16.1h-.18a9.2 9.2 0 0 0-1.24-1.66q-.12.29-.21.57a10 10 0 0 0-.32 2c0 1.65-.85 2-1.08 2a1.1 1.1 0 0 1-.44 0" class="a48ca86c-82b8-4af0-8539-b9588c2dd404"/><path d="M38.19 19.12a1.1 1.1 0 0 1 0-.44v-.1a3.4 3.4 0 0 1 .57-1.68 1.1 1.1 0 0 0-.34.18 5 5 0 0 0-.54.46h-.15v-.13a2.55 2.55 0 0 0 .38-1.41h.21a2.7 2.7 0 0 1-.32 1 1.2 1.2 0 0 1 .31-.23 1.9 1.9 0 0 1 .64-.31c0 .13 0 .21-.31.39a3.6 3.6 0 0 0-.52 1.55v.21a.9.9 0 0 0 0 .33.21.21 0 0 0 .19 0 .45.45 0 0 0 .23 0v.16a.55.55 0 0 1-.31 0 .41.41 0 0 1-.36-.21m.5-5.89a.34.34 0 0 1-.38-.28.3.3 0 0 1 0-.19 1.6 1.6 0 0 0 .37-.93 3 3 0 0 0 0-.41v.26c-.13.26-.44.31-.44.62v-.21a.8.8 0 0 0-.16-.39c-.08-.12-.16-.25-.23-.38a.9.9 0 0 1-.13.31 1.9 1.9 0 0 0 0 .67v.26-.29a1 1 0 0 0-.31-.46l.13-.16a1.2 1.2 0 0 1 .28.42 1.7 1.7 0 0 1 .13-.6 6 6 0 0 0 .21-.51v.07a1.6 1.6 0 0 0 .23.55.8.8 0 0 1 .21.41c.13-.15.31-.23.31-.31l.15-.39H39a3 3 0 0 1 0 .6 1.6 1.6 0 0 1-.39 1 .17.17 0 0 0 .15.16h.31a.42.42 0 0 1-.31 0Zm.23-2.95c0-.8.52-1 .68-1v.21s-.47 0-.47.8a2 2 0 0 0 0 .36h-.18a3 3 0 0 1 0-.41m1.19-.37H40a6.7 6.7 0 0 1 .46 2.58h-.18a6.7 6.7 0 0 0-.46-2.58" class="a48ca86c-82b8-4af0-8539-b9588c2dd404"/><path d="M38.89 10.28H39a3.2 3.2 0 0 0 1.32 1.24v.21a3.4 3.4 0 0 1-1.42-1.34m.81 4.75c.26-.62.5-1 1-1v.2c-.34 0-.55.26-.78.91Zm1.5.86v-.64a1.47 1.47 0 0 0-.13-.75h.19a2.3 2.3 0 0 1 0 .82v.88l-.16.13a.8.8 0 0 1 0-.44" class="a48ca86c-82b8-4af0-8539-b9588c2dd404"/><path d="M40.57 15.29a4 4 0 0 0-.65-.56l.13-.16c.18 0 .41.36.65.57a1.23 1.23 0 0 0 .51.39v.18c-.2 0-.41-.21-.64-.42M38 14.11V14a2.3 2.3 0 0 0 0-.52.4.4 0 0 1 0-.16h.18a2.3 2.3 0 0 1 .19.62.29.29 0 0 1-.26.16Zm-1.85-.03v-.18h.15a.7.7 0 0 0 0-.28v-.21a.3.3 0 0 1 0-.23h.16v.54s0 .18-.13.23a.28.28 0 0 1-.18 0H36m1.67.05a.86.86 0 0 0 0-.39.5.5 0 0 1 0-.25h.18v.18a.72.72 0 0 1 0 .46v.16a.34.34 0 0 1 0 .2.28.28 0 0 1-.18 0ZM37 14v-.13a1.6 1.6 0 0 0 0-.31 1.4 1.4 0 0 0 0-.41h.18a1 1 0 0 1 0 .49 1 1 0 0 1 0 .34s0 .28-.23.28Zm-.44 0v-.13a1 1 0 0 0 0-.41.8.8 0 0 0 0-.31h.21a2 2 0 0 1 0 .36 1.4 1.4 0 0 1 0 .49.24.24 0 0 1-.24.24Zm.8 1.84a.51.51 0 0 1-.18-.42h.18v.24a.6.6 0 0 0 0-.26.8.8 0 0 0 0-.49 1 1 0 0 1 0-.49 2 2 0 0 1 0-.34.2.2 0 0 0 0-.15.55.55 0 0 0 0-.31 1.6 1.6 0 0 1-.13-.47h.19a1.1 1.1 0 0 0 0 .36 1 1 0 0 1 0 .42.5.5 0 0 1 0 .25.5.5 0 0 0 0 .24.62.62 0 0 0 0 .38 1.5 1.5 0 0 1 0 .6 1.6 1.6 0 0 1 0 .31.34.34 0 0 1 0 .28m-1.22 4.34v-.18s.16 0 .23-.26a1.6 1.6 0 0 0 0-.54v-.13h.21v.13a1.5 1.5 0 0 1 0 .6.42.42 0 0 1-.41.38Z" class="a48ca86c-82b8-4af0-8539-b9588c2dd404"/><path d="M35.89 20.13V20s.16 0 .21-.21a1.4 1.4 0 0 0 0-.41h.2a2 2 0 0 1 0 .49.39.39 0 0 1-.38.34m2.08-.57v-.37h.18v.31c0 .26 0 .52.29.57v.18c-.39 0-.44-.49-.44-.75m-.49-.13v-.31h.21a1 1 0 0 0 0 .26c0 .31 0 .75.29.78v.18c-.42 0-.42-.65-.42-1m-.85.92s.15 0 .21-.31a3.2 3.2 0 0 0 0-.62v-.18h.18a1 1 0 0 1 0 .23 4 4 0 0 1 0 .68.48.48 0 0 1-.39.46Z" class="a48ca86c-82b8-4af0-8539-b9588c2dd404"/><path d="M37 22.25a.38.38 0 0 1 0-.25 1 1 0 0 1 0-.34h.18a1.4 1.4 0 0 0 0 .29h.16a1.3 1.3 0 0 0 .23-.83 4 4 0 0 0-.15-1.11 6 6 0 0 1 0-.85v-.08h.18a5 5 0 0 0 0 .77 6 6 0 0 1 .15 1.19 1.37 1.37 0 0 1-.28 1H37M48.09 2.66a1.14 1.14 0 0 0 .67-1.11 2.5 2.5 0 0 0-.29-.75.26.26 0 0 0-.23.18 2.4 2.4 0 0 0 0 1s-.41.36-.41.57m-1.32 17.34.26-1v.23c0 .26.72.52 1.45.52h.28c.93 0 1.65-.47 1.68-.78v-.25l.44.67.26-.85v.28c0 .31.62.54 1.32.54h.62c.9-.15 1.57-.64 1.65-1.06h.18l.28 1h-.2l-.18-.67a2.63 2.63 0 0 1-1.68.93h-.67a1.7 1.7 0 0 1-1.37-.45l-.26.78-.42-.67a2.28 2.28 0 0 1-1.75.77h-.08a2.15 2.15 0 0 1-1.47-.41l-.16.57Zm-3.1-3.72a.94.94 0 0 1-.26-.59.88.88 0 0 1 .34-.7.84.84 0 0 1 .59-.21.91.91 0 0 1 .7.34.8.8 0 0 1 .23.57.94.94 0 0 1-.33.72 1 1 0 0 1-1.32-.13m.31-1.06a.54.54 0 0 0-.23.47.56.56 0 0 0 .15.41.66.66 0 0 0 .49.24.72.72 0 0 0 .47-.24.7.7 0 0 0 .2-.49.55.55 0 0 0-.5-.61.57.57 0 0 0-.5.21" class="a48ca86c-82b8-4af0-8539-b9588c2dd404"/><path d="M43 14.52a.9.9 0 0 1-.21-.59.87.87 0 0 1 .36-.7.82.82 0 0 1 .6-.21.91.91 0 0 1 .69.31 1 1 0 0 1 .24.6 1 1 0 0 1-.34.72 1.06 1.06 0 0 1-.59.21.94.94 0 0 1-.73-.34m.29-1.11a.56.56 0 0 0-.16.52.57.57 0 0 0 .16.41.65.65 0 0 0 .49.23.58.58 0 0 0 .39-.15.65.65 0 0 0 .23-.49.72.72 0 0 0-.23-.52.64.64 0 0 0-.47 0 .6.6 0 0 0-.41.15" class="a48ca86c-82b8-4af0-8539-b9588c2dd404"/><path d="M43.67 13.12a1 1 0 0 1-.93-.93 1.14 1.14 0 0 1 1-.93 1 1 0 0 1 .72.34 1.06 1.06 0 0 1 .21.59.94.94 0 0 1-.34.73 1 1 0 0 1-.59.2m-.39-1.42a.63.63 0 0 0 0 .88.53.53 0 0 0 .46.23.65.65 0 0 0 .65-.65.7.7 0 0 0-.16-.41.75.75 0 0 0-.49-.21.8.8 0 0 0-.38 0" class="a48ca86c-82b8-4af0-8539-b9588c2dd404"/><path d="M43.46 11.13a1 1 0 0 1-.31-.59 1.1 1.1 0 0 1 .34-.72 1.06 1.06 0 0 1 .59-.21 1 1 0 0 1 .73.34.83.83 0 0 1 .2.59.9.9 0 0 1-.33.7.84.84 0 0 1-.6.23.88.88 0 0 1-.7-.34m.31-1.08a.63.63 0 0 0 0 .88.68.68 0 0 0 .47.24.86.86 0 0 0 .41-.16.66.66 0 0 0 .24-.49.67.67 0 0 0-.16-.41.6.6 0 0 0-.49-.21.53.53 0 0 0-.39 0" class="a48ca86c-82b8-4af0-8539-b9588c2dd404"/><path d="M45.37 10.2a.8.8 0 0 1-.69-.31.93.93 0 0 1 .1-1.3.91.91 0 0 1 1.28.12.93.93 0 0 1 .21.59 1 1 0 0 1-.27.7.87.87 0 0 1-.63.2M45 8.81a.62.62 0 0 0-.23.49.6.6 0 0 0 .15.41.55.55 0 0 0 .79.13.2.2 0 0 0 .07-.05.76.76 0 0 0 .22-.49.65.65 0 0 0-.65-.64.6.6 0 0 0-.41.15" class="a48ca86c-82b8-4af0-8539-b9588c2dd404"/><path d="M46.28 9.25a.88.88 0 0 1-.23-.6 1 1 0 0 1 .33-.65 1.06 1.06 0 0 1 .6-.21 1 1 0 0 1 .72.34 1.06 1.06 0 0 1 .21.59.94.94 0 0 1-.34.7.86.86 0 0 1-.59.23.9.9 0 0 1-.7-.33m.28-1a.7.7 0 0 0-.2.49.55.55 0 0 0 .12.39.8.8 0 0 0 .5.26.67.67 0 0 0 .65-.64.65.65 0 0 0-.63-.73.6.6 0 0 0-.43.15" class="a48ca86c-82b8-4af0-8539-b9588c2dd404"/><path d="M48 9.15a.87.87 0 0 1-.2-.6.93.93 0 0 1 .31-.7.88.88 0 0 1 1.24.05v.06a1.06 1.06 0 0 1 .21.59.91.91 0 0 1-.89.93.9.9 0 0 1-.7-.33m.34-1.06a.53.53 0 0 0-.23.46.66.66 0 0 0 .62.65.65.65 0 0 0 .64-.65.6.6 0 0 0-.18-.31.75.75 0 0 0-.44-.24.55.55 0 0 0-.39.16" class="a48ca86c-82b8-4af0-8539-b9588c2dd404"/><path d="M49.69 9.56a.88.88 0 0 1-.23-.6 1 1 0 0 1 .33-.72.93.93 0 0 1 .6-.21.89.89 0 0 1 .69.34.82.82 0 0 1 .24.59.94.94 0 0 1-.34.7.84.84 0 0 1-.59.21.93.93 0 0 1-.7-.31M50 8.47a.7.7 0 0 0-.2.49.52.52 0 0 0 .13.39.62.62 0 0 0 .49.23.67.67 0 0 0 .51-.15.55.55 0 0 0 0-.47.5.5 0 0 0 0-.41.62.62 0 0 0-.87 0" class="a48ca86c-82b8-4af0-8539-b9588c2dd404"/><path d="M51.24 10.33a.88.88 0 0 1-.34-.59 1 1 0 0 1 .34-.74.84.84 0 0 1 .59-.21 1 1 0 0 1 .73.31 1.07 1.07 0 0 1 .2.62.87.87 0 0 1-.33.7 1 1 0 0 1-.6.23.92.92 0 0 1-.69-.34m.28-1.08a.62.62 0 0 0-.23.49.58.58 0 0 0 .15.39.63.63 0 0 0 .88 0 .6.6 0 0 0 .2-.47.51.51 0 0 0-.13-.41.62.62 0 0 0-.87 0m-7.36 5.42c.25-.16.44-.7.51-.44s.44 1 0 .8-.67-.31-.59-.36M43.82 13c.26 0 .68-.57.65-.31s.21 1-.16.8-.62-.46-.49-.49m.18-1.68c.26 0 .8-.19.77 0s-.28.77-.36.62-.51-.6-.41-.57m.88-1.37c.24 0 .8 0 .73.18s-.73.72-.68.57-.15-.78 0-.75m1.3-1c.23 0 .38.44.62.44s-.62.33-.8.43 0-.87.18-.87m1.16.33c.18 0 .39-.75.54-.55s.54.65.23.6a3.3 3.3 0 0 0-.77 0m1.45-.03c.23 0 .69-.7.72-.49s.34.75 0 .7-1-.21-.83-.21" class="a48ca86c-82b8-4af0-8539-b9588c2dd404"/><path d="M50.31 9.77c.26 0 .93-.47.9-.31s.13.93 0 .85a7 7 0 0 1-.85-.54m1.71.8c.18 0 .54-.42.59-.26s.26.39 0 .36a2.2 2.2 0 0 1-.62 0m5.5-.41c.24 0 .57.28.37.36s-.75.15-.65 0 .18-.39.28-.39M59 9.4c.28.18.9.37.67.49s-1 .65-.91.44.14-.62.24-.93m1.36.11c0-.24.16-.93.34-.73s.62.57.31.62-.68.18-.65 0m1.4-.07c.15 0 .46-.78.62-.5s.38.57.15.55a5 5 0 0 0-.77 0m1.44.08c.24 0 .78-.63.78-.24s.15.65 0 .55-.85-.29-.7-.31m1.21.67c.24 0 .88-.29.83 0s0 .69-.26.57-.67-.57-.57-.52m.91 1.01c.21 0 .8.13.65.28s-.39.62-.47.47-.26-.81-.18-.75m.34 1.44c.18 0 .82.37.49.49s-.6.52-.55.34a4 4 0 0 0 0-.83m-.1 1.5c.16.23.65.67.44.67s-.75.49-.7.24a10 10 0 0 1 .26-.91M63.82 2.84c0-.31-.38-.54-.33-1.06s0-.41 0-.46a1 1 0 0 0-.16-.7s0-.42-.15-.29-.18.47-.24.6a1.8 1.8 0 0 0 0 1.08 2.8 2.8 0 0 1 .42.86m1.73.2c0-.18-.31-.33-.31-.85a4.2 4.2 0 0 1 .15-1 2.4 2.4 0 0 0 0-1s-.2-.36-.23-.16a9 9 0 0 1-.33 1 1 1 0 0 0 0 .93 4.5 4.5 0 0 1 .38 1.06m1.66.69a8 8 0 0 1 0-2.17 8 8 0 0 0 .72-.8.4.4 0 0 1 .21-.28h-.26a1.48 1.48 0 0 0-1.27.83 2.1 2.1 0 0 0 0 1 4.4 4.4 0 0 0 .13 1.14 3 3 0 0 1 .13.44M68.06 5c.13.36 0-1.58 0-2a2.6 2.6 0 0 1 .18-.77c0-.21 0-.36.39-.54s.26-.32.41-.37-.26 0-.39 0a1.25 1.25 0 0 0-1.21 1 5.6 5.6 0 0 0 0 1v.28A4.2 4.2 0 0 0 67.6 5c.15.15.33 0 .41.18m.75.89S69 4.83 69 4.62C69 3.9 69.18 2 70.86 2c.47 0 .75.39.6.49s-.16-.31-.75 0a5 5 0 0 0-1.3 2s-.31 1.32-.33 1.55M70 8.89a6 6 0 0 0 .44-1.06 4 4 0 0 1 .73-1.29c.49-.39.8-1.71 1.49-1.79h.57a1.38 1.38 0 0 0-1.7 0 3.85 3.85 0 0 0-1.45 2.59c0 .13-.13 1-.39 1.11M62 2.66a1.14 1.14 0 0 1-.67-1.11 2.5 2.5 0 0 1 .28-.75.28.28 0 0 1 .24.18A2.7 2.7 0 0 1 62 2s.42.36.42.57m11.12 16.65h-.31a.55.55 0 0 0 .31 0m0-2.79v-.36a2 2 0 0 0 0 .36m-.18-.88a.5.5 0 0 1 0-.18m.36 3.63a.45.45 0 0 0 .44-.13.49.49 0 0 1-.47.31m1-2.81a1.4 1.4 0 0 1-.21.62 2.3 2.3 0 0 0 .26-.6m-3.13 2.91h.21a.86.86 0 0 0 .39 0H72a1.1 1.1 0 0 1-.44 0m.3-3.34c-.26-1.34-.7-1.65-.93-1.75a1.42 1.42 0 0 0-.91 0h-.77c-.59.31-.75 1.67-.83 1.83l.34.31a7.8 7.8 0 0 1 1.29-1.68 5.46 5.46 0 0 1 .65 2.74 2.5 2.5 0 0 0 .67 1.78s.51.21.57-.64a3.7 3.7 0 0 0-.6-1.61s-.28-.36-.18-.33a3.15 3.15 0 0 1 1.16.77 2.75 2.75 0 0 1-.32-1.15 4.3 4.3 0 0 1 .8.8c-.57-.75-.82-.75-.85-.88m-1.86-1.32a11 11 0 0 1-1.16 1c-.26.1 0-.57 0-.6s.13-.85.64-.8.75.31.55.44m-.28-3.37c-.15 0 .29-1.71.31-1.76a1.2 1.2 0 0 1 .24-.34A5.85 5.85 0 0 0 69.3 12l.6.31a10 10 0 0 0 .74-.88 3.5 3.5 0 0 0 .5-1.11v.15a3.8 3.8 0 0 1-1.19 1m2.92-.68s.15.39.2.47a3.1 3.1 0 0 1 .16 1 3 3 0 0 1 .41-.73c-.23.29-.2-.26-.23-.46a2.33 2.33 0 0 0-.88-1.76.5.5 0 0 0-.67 0 3 3 0 0 1-.75 0H71c.36.21.54.83.41.9a9.4 9.4 0 0 0 0 2.59.62.62 0 0 0 .37.39h-.19s.5.15.39-.29-.39-.67-.39-1.24a3.3 3.3 0 0 1 .13-.7l.24.44c.06.1.44.36.44.57s0-.52.28-.75a.75.75 0 0 0 .21-.39Zm.6 2.34a.31.31 0 0 0 .26-.15.4.4 0 0 1-.26.15m0 0h-.75a2.4 2.4 0 0 0 .75 0" class="a48ca86c-82b8-4af0-8539-b9588c2dd404"/><path d="M63.64 23.38a1.1 1.1 0 0 0 .34-.31c1.42-1.39 3.46-5.55 4-5.68a1.08 1.08 0 0 0 .78-.67 1 1 0 0 1 0-.26s-.34-.47-.44-.47h-.21c.08 0 .88-2.58 1.19-2.58a1 1 0 0 0 .6-1.09 2.2 2.2 0 0 0-.5-.28h-.15c-.03 0-.23.18-.21 0a11.2 11.2 0 0 0 .24-2.58c.77-.24.72-.57.72-.7s0-.6-.41-.62-.52.18-.55.23-.18 0-.18 0a5.6 5.6 0 0 0 0-1s0-.51.16-.54.28-.49.28-.59a.37.37 0 0 0 0-.29.6.6 0 0 0-.3.05c-.31 0-.34.67-.31.72s0 0 0 .13-.16 0-.19 0a7 7 0 0 1-.31-1 1.25 1.25 0 0 0 .21-.7c0-.15 0-.51-.52-.28s-.15.39-.18.44a5.4 5.4 0 0 1-.7-.8A4 4 0 0 0 67 4a1 1 0 0 0 0-.23.3.3 0 0 0-.4-.13.34.34 0 0 0-.12.12v.52a7 7 0 0 1-.72-.52c-.13-.13 0-.39 0-.62s-.88 0-1.09 0 0 .42 0 .55-.36 0-.54-.16a.66.66 0 0 1-.28-.53c0-.16-.31 0-.52 0s0 .34 0 .46-.39 0-.59-.23a.43.43 0 0 1-.29-.39c0-.12-.13-.23-.41-.12S62 3 62 3s-.52.13-.59 0-.21-.42-.21-.34v.36c-1.06.16-1.27.49-.91.36a6.6 6.6 0 0 1 2.59 0c9.66 2.72 4.26 14.32.28 18.61h.16a.37.37 0 0 1 .33.28 1.34 1.34 0 0 1 .13.88" class="a48ca86c-82b8-4af0-8539-b9588c2dd404"/><path d="M70 8.86c.12-.34.26-.67.41-1a4 4 0 0 1 .73-1.29c.49-.39.8-1.71 1.49-1.79h.57a1.38 1.38 0 0 0-1.7 0 3.85 3.85 0 0 0-1.45 2.59s-.13 1-.39 1.11m2.56 4.64h-.28a.64.64 0 0 1-.62-.43 3 3 0 0 1 0-.94v-1.52a4.2 4.2 0 0 1-.52 1.16 9 9 0 0 1-.83 1h-.13s.68-.75.8-.93a3.9 3.9 0 0 0 .5-1.16.41.41 0 0 1 .31-.21v1.63a3 3 0 0 0 0 .85.46.46 0 0 0 .43.34h1.5c.13 0 .21-.16.29-.42a3.2 3.2 0 0 0 0-.62 1.6 1.6 0 0 1 .18-.72l-.29.26a.28.28 0 0 1-.18 0h-.15a.5.5 0 0 1 0-.18v-.16a2.44 2.44 0 0 0-.88-1.73.8.8 0 0 0-.35-.19h-1.07c-.47 0-.88.67-1.16 1.42a11 11 0 0 0-.44 1.57h-.18a8.4 8.4 0 0 1 .44-1.63c.28-.74.69-1.52 1.34-1.55h.77A.8.8 0 0 1 72 9a.68.68 0 0 1 .47.21A2.58 2.58 0 0 1 73.4 11a3 3 0 0 0 0 .41l.28-.26a.94.94 0 0 1 .47-.34V11a1.4 1.4 0 0 0-.21.74v.68a.53.53 0 0 1-.46.54h-1.21m-.51 6.52c-.24 0-1-.39-1.09-2a10 10 0 0 0-.31-1.86 3.3 3.3 0 0 0-.26-.75 9.2 9.2 0 0 0-1.26 1.71h-.19a9 9 0 0 1 1.4-1.81h.13a.4.4 0 0 0 0 .15l.21.57a9 9 0 0 1 .31 2c0 1.57.85 1.86.9 1.83a.5.5 0 0 0 .34 0 2.5 2.5 0 0 1 .72-.16c.41 0 .49.13.7.13h.2c.6-.2.6-.38.6-.69a3 3 0 0 0 0-.75 1.2 1.2 0 0 1 .13-.52 6 6 0 0 0 .31-.72 1.3 1.3 0 0 0-.21.2c-.39.42-.52.62-.59.7v-1a8 8 0 0 0-.16-.86 3 3 0 0 0-.15.44l-.18.67c0 .16 0 .26-.18.29a.15.15 0 0 1-.16 0 2.2 2.2 0 0 0-.57-.62c-.13 0-.23 0-.28-.26-.26-1.34-.67-1.6-.88-1.71a1.1 1.1 0 0 0-.44 0h-1.14c-.38.18-.59 1.06-.72 1.58a.7.7 0 0 1-.16.36h-.15a.5.5 0 0 1 .13-.28 3 3 0 0 1 .15-.6 1.9 1.9 0 0 1 .65-1.11h.8a1.6 1.6 0 0 1 .44 0 1.5 1.5 0 0 1 .52 0c.25 0 .75.49 1 1.86h.16a3.1 3.1 0 0 1 .65.7 10 10 0 0 1 .43-1.32h.13a.7.7 0 0 1 0 .29 2.5 2.5 0 0 1 0 .67 3 3 0 0 1 0 .59l.47-.51.21-.21a1 1 0 0 1 .28-.16 7 7 0 0 1-.39.88 3 3 0 0 0 0 .42 5 5 0 0 1 0 .77c0 .34 0 .67-.49.72h-1a1.33 1.33 0 0 0-.65.13.8.8 0 0 1-.44 0Z" class="a48ca86c-82b8-4af0-8539-b9588c2dd404"/><path d="M71.57 19.33a.55.55 0 0 1-.31 0v-.16a.5.5 0 0 0 .24 0 .19.19 0 0 0 .18 0 .65.65 0 0 0 0-.34v-.25a3.3 3.3 0 0 0-.52-1.58c-.21-.18-.28-.26-.31-.39a1.7 1.7 0 0 1 .65.31 1.4 1.4 0 0 1 .31.23 2.66 2.66 0 0 1 0-1.19H72a2.7 2.7 0 0 0 .42 1.22v.13h-.16l-.15-.16a5 5 0 0 0-.55-.21 1.1 1.1 0 0 0-.33-.18 3.74 3.74 0 0 1 .57 1.68v.11a1.6 1.6 0 0 1 0 .44.43.43 0 0 1-.36.2Zm0-6.44h.13a.28.28 0 0 0 .18 0 .17.17 0 0 0 .16-.15 1.85 1.85 0 0 1-.39-1 2 2 0 0 1 0-.59h.13a.15.15 0 0 1 .16 0 1 1 0 0 0 0 .26s.18 0 .31.31a.67.67 0 0 1 .2-.42 2 2 0 0 0 .31-.44.3.3 0 0 1 0 .19.7.7 0 0 0 .13.28A1.5 1.5 0 0 1 73 12a1.5 1.5 0 0 1 .29-.41 1.9 1.9 0 0 0-.39.7v.15-.3a1.9 1.9 0 0 0 0-.67.8.8 0 0 1 0-.31l-.23.39a1.25 1.25 0 0 0-.18.65c0-.31-.32-.37-.44-.62a1 1 0 0 1 0-.26 1.4 1.4 0 0 0 0 .41 1.58 1.58 0 0 0 .36.93.28.28 0 0 1 0 .18.34.34 0 0 1-.34.34.42.42 0 0 1-.31 0m-.47-2.77a2 2 0 0 0 0-.36c0-.72-.44-.8-.46-.8V9c.15 0 .67.21.67 1a3 3 0 0 1 0 .41Zm-1.65 1.76a7.2 7.2 0 0 1 .49-2.59h.18a6.2 6.2 0 0 0-.47 2.59Z" class="a48ca86c-82b8-4af0-8539-b9588c2dd404"/><path d="M69.77 11.42a3.26 3.26 0 0 0 1.31-1.24h.16c-.29.44-1 1.24-1.42 1.32Zm-.34 2.89v-.2c.49 0 .72.41 1 1h-.18c-.24-.65-.44-.88-.78-.9m-.79 2.09v-1a1.8 1.8 0 0 1 .13-.83H69a1.75 1.75 0 0 0-.13.75V16a.8.8 0 0 1 0 .44Z" class="a48ca86c-82b8-4af0-8539-b9588c2dd404"/><path d="M68.78 15.71v-.18a1.4 1.4 0 0 0 .52-.39c.23-.21.47-.44.65-.57v.16a5.5 5.5 0 0 0-.62.56c-.24.21-.44.42-.65.42ZM71.81 14a4.5 4.5 0 0 1 .2-.62h.21a.4.4 0 0 1 0 .16A2.5 2.5 0 0 0 72 14v.18a.29.29 0 0 1-.26-.16m1.88.03c-.16 0-.13-.33-.13-.54v-.1h.15a.3.3 0 0 1 0 .23v-.23a1.3 1.3 0 0 0 0 .39v.2h-.18a.28.28 0 0 1-.18 0" class="a48ca86c-82b8-4af0-8539-b9588c2dd404"/><path d="M72.25 14.08a.7.7 0 0 1 0-.21v-.15a.76.76 0 0 1 0-.47v-.18h.18a.6.6 0 0 1 0 .26.86.86 0 0 0 0 .39v.46a.28.28 0 0 1-.18 0m.67-.28a1 1 0 0 1 0-.34 1 1 0 0 1 0-.49h.18a1.5 1.5 0 0 0 0 .42 1.3 1.3 0 0 0 0 .28v.41c-.16 0-.21-.15-.23-.28m.41.1a1.4 1.4 0 0 1 0-.49 2 2 0 0 1 0-.36h.18a1.6 1.6 0 0 0 0 .31 1 1 0 0 0 0 .41v.36c-.15 0-.21 0-.26-.23" class="a48ca86c-82b8-4af0-8539-b9588c2dd404"/><path d="M72.43 15.66a.8.8 0 0 1 0-.31 1.2 1.2 0 0 1 0-.6.86.86 0 0 0 0-.39.45.45 0 0 0 0-.23.4.4 0 0 1 0-.26 1 1 0 0 1 0-.41 1.6 1.6 0 0 0 .13-.36h.18a1 1 0 0 1-.16.46.8.8 0 0 0 0 .31V14a.9.9 0 0 1 0 .33 1.06 1.06 0 0 1 0 .5 1 1 0 0 0 0 .49.55.55 0 0 0 0 .31v-.24h.21a.46.46 0 0 1-.21.42.29.29 0 0 1-.23-.21m1.09 4.4a1.5 1.5 0 0 1 0-.6v-.15h.2v.13a1.6 1.6 0 0 0 0 .54.29.29 0 0 0 .23.26v.18c-.2 0-.33-.18-.41-.39m.34-.18a1.4 1.4 0 0 1 0-.49h.2a1.4 1.4 0 0 0 0 .41c0 .16.13.24.18.21v.21c-.18 0-.31-.18-.36-.34m-2.12.41c.24 0 .29-.31.29-.56v-.31h.2a2 2 0 0 1 0 .36c0 .26 0 .67-.43.75Z" class="a48ca86c-82b8-4af0-8539-b9588c2dd404"/><path d="M72.12 20.23c.2 0 .28-.46.28-.78v-.25h.21v.31c0 .31 0 .85-.42.95ZM73 20a4 4 0 0 1 0-.67v-.23h.21v.23a2.2 2.2 0 0 0 0 .62c0 .21.13.34.2.31v.21c-.23 0-.33-.26-.38-.47" class="a48ca86c-82b8-4af0-8539-b9588c2dd404"/><path d="M73 22.32h-.28a1.38 1.38 0 0 1-.29-1 5.3 5.3 0 0 1 .16-1.19v-.77h.2v.15a6 6 0 0 1 0 .86 4 4 0 0 0-.15 1.11 1.27 1.27 0 0 0 .23.82H73a.66.66 0 0 0 0-.3h.18a.9.9 0 0 1 0 .33.37.37 0 0 1 0 .21H73M62 2.66a1.14 1.14 0 0 1-.67-1.11 2.5 2.5 0 0 1 .28-.75.28.28 0 0 1 .24.18A2.7 2.7 0 0 1 62 2s.42.36.42.57m1.25 18.33-.44.65-1.14-.91 1.35-.49z" class="a48ca86c-82b8-4af0-8539-b9588c2dd404"/><path d="m62.076 20.749.027-.178 1.582.24-.027.178zM61 18.58a2.5 2.5 0 0 0 .29-.88.36.36 0 0 0-.21-.39h-.18c-.15 0-.31 0-.31.34h-.18a.4.4 0 0 1 0-.16.49.49 0 0 1 .18-.41.4.4 0 0 1 .34 0h.21a.56.56 0 0 1 .33.57 1.4 1.4 0 0 1-.13.56 1.07 1.07 0 0 0 .66-.95 1 1 0 0 0-.28-.67.87.87 0 0 0-.62-.29.74.74 0 0 0-.6.36v-.2a2.7 2.7 0 0 0 0-.8 3.4 3.4 0 0 0-.36-1.53 3.2 3.2 0 0 0-.8 2 1.6 1.6 0 0 0 0 .44h-.15a.67.67 0 0 0-.65-.52 1 1 0 0 0-1 1 1.2 1.2 0 0 0 .39.85v-.26c0-.34 0-.72.49-.77a.54.54 0 0 1 .55.51 1.6 1.6 0 0 1 0 .31l-.31-.13v-.23a.31.31 0 0 0-.31-.31c-.26 0-.34.28-.34.59a2.3 2.3 0 0 0 0 .52v.29l-.23-.21a1.51 1.51 0 0 1-.7-1.19 1.19 1.19 0 0 1 1.34-1h.06a.77.77 0 0 1 .59.24A3.4 3.4 0 0 1 60 14a3.5 3.5 0 0 1 .46 1.73 2 2 0 0 1 0 .7.6.6 0 0 1 .42 0A1.16 1.16 0 0 1 62 17.57a1.45 1.45 0 0 1-1 1.26l-.29.13Z" class="a48ca86c-82b8-4af0-8539-b9588c2dd404"/><path d="m60.33 18.58-1.49-.18a.45.45 0 0 1-.42-.44.47.47 0 0 1 .44-.39l1.5.15a.47.47 0 0 1 .39.44.45.45 0 0 1-.44.39Zm-1.67-.7a.21.21 0 0 0 .19.23l1.53.18a.25.25 0 0 0 .25-.2.24.24 0 0 0-.23-.24l-1.5-.18a.23.23 0 0 0-.23.21m-4.82-2.46a5 5 0 0 0-.57-.62l-.18-.15H57l-.18.15a8 8 0 0 0-.57.6 3.4 3.4 0 0 0-.67 1h-.18a5.2 5.2 0 0 1 1.11-1.53h-3a4.7 4.7 0 0 1 1.11 1.55h-.18a2.8 2.8 0 0 0-.67-1" class="a48ca86c-82b8-4af0-8539-b9588c2dd404"/><path d="m56.9 18.21-.54-.49a2 2 0 0 0-.83-.46v-.21a1.94 1.94 0 0 1 .95.52l.39.33v-2.19l-.39.28a2.3 2.3 0 0 1-.95.52v-.13a2 2 0 0 0 .83-.39l.54-.49.18-.18v3.08Zm-3.83-2.97.16.18.54.49a2.1 2.1 0 0 0 .83.47v.21a2.4 2.4 0 0 1-.93-.52l-.42-.36v2.19l.42-.33c.31-.23.64-.52.93-.52v.21a2.2 2.2 0 0 0-.83.46l-.54.49-.16.19Zm8.66 4.21a2 2 0 0 1-1.68-.87h.18a1.75 1.75 0 0 0 1.53.87 1.6 1.6 0 0 0 1.62-1h.21a1.87 1.87 0 0 1-1.83 1.19Z" class="a48ca86c-82b8-4af0-8539-b9588c2dd404"/><path d="M57.21 19a1.85 1.85 0 0 1-1.73-1.68.22.22 0 0 1 0-.16h.18v.13a1.63 1.63 0 0 0 1.55 1.48h.2a1.77 1.77 0 0 0 1.25-.52l.15.13a2 2 0 0 1-1.47.62h-.24m6.26 1.2a11.5 11.5 0 0 1 .46-1.62H64a11 11 0 0 0-.51 1.6Zm.28-2.61a4 4 0 0 0-.36-1.16c-.18-.39-.36-.7-.36-.7l-.13-.2 2.4.72-.7 1.4h-.15l.66-1.32-1.76-.52a4.4 4.4 0 0 1 .65 1.76.5.5 0 0 1 0 .18Z" class="a48ca86c-82b8-4af0-8539-b9588c2dd404"/><path d="M62.61 16v.21c.11.21.23.42.36.62a2.1 2.1 0 0 0 .65.7h-.13a1.77 1.77 0 0 1-.75-.78 3 3 0 0 1-.29-.44L62 18.58a4.1 4.1 0 0 1 1.4-.47h.26a.15.15 0 0 1-.13 0h-.13a3 3 0 0 0-.93.26l-.57.28h-.2Zm-3.44 5.16c-.57 0-1.06-.28-1.06-.67s.49-.6 1-.6c.57 0 1.06.29 1.06.68 0 .38-.49.59-1 .59m-.88-.67a.37.37 0 0 0 .23.28 1.14 1.14 0 0 0 .65.18 1.3 1.3 0 0 0 .62-.13c.15 0 .23-.18.23-.25a.36.36 0 0 0-.23-.31 1.8 1.8 0 0 0-.65-.18 1 1 0 0 0-.59.15.31.31 0 0 0-.24.28Zm-4.8.15v-1.21h3v1.21Zm.28 0h2.59v-1h-2.59Zm.83-13.98a.8.8 0 0 1-.29-.59.9.9 0 0 1 .19-.41.83.83 0 0 1 .59-.26.65.65 0 0 1 .46.18.76.76 0 0 1 .29.57.68.68 0 0 1-.18.49.73.73 0 0 1-.57.26.78.78 0 0 1-.49-.16m.13-.88a.37.37 0 0 0 0 .29.44.44 0 0 0 .15.36.76.76 0 0 0 .65-.16.55.55 0 0 0 0-.31.47.47 0 0 0-.44-.38.35.35 0 0 0-.36.18M66 16.51a.84.84 0 0 1-.59-.21.7.7 0 0 0 .41.16.65.65 0 0 0 .6-.47.56.56 0 0 0 .15-.41.54.54 0 0 0-.15-.47.63.63 0 0 0-.88 0 .86.86 0 0 0 0 .39.7.7 0 0 0 .21.49 1 1 0 0 1-.34-.72 1 1 0 0 1 .24-.6 1 1 0 0 1 .69-.31.93.93 0 0 1 .6.21.87.87 0 0 1 .33.7 1 1 0 0 1-.2.59.91.91 0 0 1-.73.34Z" class="a48ca86c-82b8-4af0-8539-b9588c2dd404"/><path d="M65.81 14.65a1 1 0 0 1-.31-.65.92.92 0 0 1 .21-.52.93.93 0 0 1 .7-.39.84.84 0 0 1 .59.21.87.87 0 0 1 0 1.23.83.83 0 0 1-.7.34 1.06 1.06 0 0 1-.59-.21m.59 0a.64.64 0 0 0 .7-.59V14a.58.58 0 0 0-.13-.59.58.58 0 0 0-.41 0 .65.65 0 0 0-.49.21.8.8 0 0 0 .03.38.7.7 0 0 0 .2.49.72.72 0 0 0 .42.15" class="a48ca86c-82b8-4af0-8539-b9588c2dd404"/><path d="M65.86 13a.93.93 0 0 1-.33-.73 1.06 1.06 0 0 1 .21-.59.88.88 0 0 1 .67-.34.94.94 0 0 1 .9.93.82.82 0 0 1-.21.6.84.84 0 0 1-.69.33 1 1 0 0 1-.6-.2m.6 0a.65.65 0 0 0 .49-.23.9.9 0 0 0 .13-.42.63.63 0 0 0-.24-.49.62.62 0 0 0-.38 0 .7.7 0 0 0-.49.21.67.67 0 0 0-.16.41.66.66 0 0 0 .24.52.67.67 0 0 0 .42.16" class="a48ca86c-82b8-4af0-8539-b9588c2dd404"/><path d="M65.35 11.24a.6.6 0 0 0 .84 0 .63.63 0 0 0 0-.88.6.6 0 0 0-.42 0 .55.55 0 0 0-.46.21.7.7 0 0 0-.16.41.63.63 0 0 0 .24.49 1 1 0 0 1-.11-1.29 1 1 0 0 1 .7-.33 1.07 1.07 0 0 1 .62.2 1 1 0 0 1 .31.73.91.91 0 0 1-.88.93.92.92 0 0 1-.59-.24M64.16 10a.6.6 0 0 0 .41.15.7.7 0 0 0 .49-.23.74.74 0 0 0 .13-.41A.61.61 0 0 0 65 9a.66.66 0 0 0-.92 0 .65.65 0 0 0 0 .91.5.5 0 0 0 .11.1.92.92 0 0 1-.1-1.3.93.93 0 0 1 .68-.32 1.06 1.06 0 0 1 .6.21 1 1 0 0 1 .33.72.86.86 0 0 1-.23.59.83.83 0 0 1-.7.31.85.85 0 0 1-.59-.2" class="a48ca86c-82b8-4af0-8539-b9588c2dd404"/><path d="M63.15 9.58a.86.86 0 0 1-.59-.23.88.88 0 0 1-.34-.7 1.06 1.06 0 0 1 .21-.59.93.93 0 0 1 1.65.55.88.88 0 0 1-.23.6 1 1 0 0 1-.7.37m0-.31a.62.62 0 0 0 .67-.56v-.06a.63.63 0 0 0-.26-.41.644.644 0 1 0-.93.89.3.3 0 0 0 .11.09.6.6 0 0 0 .41.13m-4 .31a.94.94 0 0 1-.34-.7.89.89 0 0 1 .85-.96.9.9 0 0 1 .59.21.92.92 0 0 1 .34.72.88.88 0 0 1-.23.6.93.93 0 0 1-.7.31.84.84 0 0 1-.59-.21m.59 0a.62.62 0 0 0 .49-.23.68.68 0 0 0 .17-.4.55.55 0 0 0-.21-.49.7.7 0 0 0-.41-.31.65.65 0 0 0-.49.23.66.66 0 0 0 .08.88.62.62 0 0 0 .41.16" class="a48ca86c-82b8-4af0-8539-b9588c2dd404"/><path d="M57.6 10.44a.88.88 0 0 1-.34-.7.93.93 0 0 1 .23-.62.94.94 0 0 1 1.29 0 .92.92 0 0 1 .34.72.8.8 0 0 1-.23.57.88.88 0 0 1-.7.34 1.06 1.06 0 0 1-.59-.21m.59 0a.65.65 0 0 0 .47-.41.86.86 0 0 0 0-.39.8.8 0 0 0 0-.49.63.63 0 0 0-.88 0 .56.56 0 0 0-.15.41.54.54 0 0 0 .23.47.6.6 0 0 0 .41.15M64 18.73a.57.57 0 0 1-.49-.62.72.72 0 0 1 .62-.67c.31 0 .49.28.49.62a.72.72 0 0 1-.62.67m-.28-.7c0 .26.15.42.31.42a.49.49 0 0 0 .41-.49c0-.26 0-.44-.31-.44a.58.58 0 0 0-.41.48Z" class="a48ca86c-82b8-4af0-8539-b9588c2dd404"/><path d="M64 18.73a.57.57 0 0 1-.49-.62.72.72 0 0 1 .62-.67c.31 0 .49.28.49.62a.72.72 0 0 1-.62.67m-.28-.7c0 .26.15.42.31.42a.49.49 0 0 0 .41-.49c0-.26 0-.44-.31-.44a.58.58 0 0 0-.41.48Zm-9.1-3.38a.78.78 0 0 1-.25-.54.63.63 0 0 1 .18-.47.73.73 0 0 1 .51-.26.8.8 0 0 1 .47.18.65.65 0 0 1 .26.55.69.69 0 0 1-.69.69.7.7 0 0 1-.44-.15m.44 0a.64.64 0 0 0 .42-.18.65.65 0 0 0 0-.34.36.36 0 0 0-.28-.42.33.33 0 0 0-.24 0 .51.51 0 0 0-.39.19.6.6 0 0 0 0 .33.53.53 0 0 0 .18.39.55.55 0 0 0 .31 0m-.4 2.66a.57.57 0 0 1-.05-.8l.05-.05a.6.6 0 0 1 .84 0 .604.604 0 1 1-.77.93" class="a48ca86c-82b8-4af0-8539-b9588c2dd404"/><path d="M54.62 17.36a.78.78 0 0 1-.25-.54.65.65 0 0 1 .18-.47.72.72 0 0 1 .51-.25.74.74 0 0 1 .47.18.63.63 0 0 1 .26.54.7.7 0 0 1-.16.44.73.73 0 0 1-.57.26.7.7 0 0 1-.44-.16m.44 0a.6.6 0 0 0 .42-.15.65.65 0 0 0 0-.34.46.46 0 0 0-.18-.39.43.43 0 0 0-.34-.13.51.51 0 0 0-.39.19.6.6 0 0 0 0 .33.53.53 0 0 0 .18.39.55.55 0 0 0 .31 0" class="a48ca86c-82b8-4af0-8539-b9588c2dd404"/><path d="M54.62 17.36a.78.78 0 0 1-.25-.54.65.65 0 0 1 .18-.47.72.72 0 0 1 .51-.25.74.74 0 0 1 .47.18.63.63 0 0 1 .26.54.7.7 0 0 1-.16.44.73.73 0 0 1-.57.26.7.7 0 0 1-.44-.16m.44 0a.6.6 0 0 0 .42-.15.65.65 0 0 0 0-.34.46.46 0 0 0-.18-.39.43.43 0 0 0-.34-.13.51.51 0 0 0-.39.19.6.6 0 0 0 0 .33.53.53 0 0 0 .18.39.55.55 0 0 0 .31 0m6.39-7.78a.88.88 0 0 1-.6-.23.6.6 0 0 0 .41.15.54.54 0 0 0 .47-.23.63.63 0 0 0 0-.88.55.55 0 0 0-.39-.16.7.7 0 0 0-.49.23.63.63 0 0 0 0 .88.87.87 0 0 1-.33-.7 1 1 0 0 1 .2-.59.94.94 0 0 1 .73-.34.9.9 0 0 1 .59.23 1 1 0 0 1 0 1.3 1 1 0 0 1-.7.33M44.83 16c.16 0 .13-.39.29-.23s-.21.39-.29.34M65.3 16c-.16 0-.16-.39-.29-.23s.18.39.29.34m-14.4 5.05c.57 0 1.06-.28 1.06-.67s-.49-.6-1-.6c-.57 0-1.06.29-1.06.68-.03.43.46.59 1 .59m-.9-.62a.37.37 0 0 1 .24-.31 2 2 0 0 1 .66-.23 1.1 1.1 0 0 1 .62.15.3.3 0 0 1 .24.26.42.42 0 0 1-.24.29 1.23 1.23 0 0 1-.62.2 1.3 1.3 0 0 1-.62-.13c-.18-.07-.26-.18-.26-.28Zm9.17.46c.54 0 1-.19 1-.47s-.42-.59-1-.62-1 .18-1.06.47.55.62 1.06.62m-5.5-1.47h2.79v1.01h-2.79zm1.01 5.61c-.91-1.45-1.48-1.58-1.4-1.5a3.3 3.3 0 0 1 .83 1.36 4.4 4.4 0 0 1-.62-.41l-1.09-.78a2.66 2.66 0 0 0 .39 1.19c-.39-.21-.75-1-1.45-1.19a3 3 0 0 1 .52.7c.75 1.19 1.73 1.21 1.68 1.16a4 4 0 0 1-.83-1.32 3.14 3.14 0 0 0 2.22 1.27 1.7 1.7 0 0 1-.25-.48m5.76-1.24a3.6 3.6 0 0 1 .7 1.37s-.68-.39-.73-.44c-.51-.47-.72-.9-.75-.85a1.55 1.55 0 0 0 .16 1.21c-.39-.41-.7-1.11-1.37-1.34a3 3 0 0 1 .44.72c.67 1.29 1.63 1.29 1.57 1.24a2.56 2.56 0 0 1-.64-1.32C61 26.12 62 25.89 62 25.86a3.2 3.2 0 0 1-.41-.49c-.69-1.37-1.2-1.63-1.15-1.47m-4.37-1.68c.13 0-.21-.16-.67-.16s-.9.34-1.55.39c.65 0 .7.39 1.55.39s.8-.13.67-.13a1.76 1.76 0 0 1-1.21-.18 1.73 1.73 0 0 1 1.21-.31m1.22.23c.64.13.64.44 1.49.52h.7a1.67 1.67 0 0 1-1.21-.29h1.19a12 12 0 0 0-1.17-.15 1.66 1.66 0 0 1 1.24 0 1.3 1.3 0 0 0-.67-.21c-.86-.2-.93.13-1.57.13m3.2.13c.65 0 .65.44 1.5.52s.83 0 .7 0a2.1 2.1 0 0 1-1.19-.31c-.39-.31.77 0 1.16 0a5.7 5.7 0 0 1-1.16-.18 1.88 1.88 0 0 1 1.24 0 1.3 1.3 0 0 0-.67-.18c-.83-.16-.83.15-1.58.15m-9.04.03a4.3 4.3 0 0 0 1.18-.16h-1.18a1.73 1.73 0 0 1 1.21-.28 1.05 1.05 0 0 0-.7 0c-.85 0-.88.39-1.52.46.64 0 .72.34 1.57.29s.78-.21.68-.18a2 2 0 0 1-1.24-.13m-3.13.15a5.7 5.7 0 0 0 1.16-.18h-1.19a1.86 1.86 0 0 1 1.22-.28h-.7c-.46 0-.85.41-1.5.51.65 0 .73.31 1.58.24.46 0 .77-.21.67-.21a1.72 1.72 0 0 1-1.24-.08" class="a48ca86c-82b8-4af0-8539-b9588c2dd404"/><path d="M66.61 13.1a1 1 0 0 0 .55-.31.77.77 0 0 0 .2-.6.91.91 0 0 0-.31-.69.83.83 0 0 0-.64-.21l.18-.16a.83.83 0 0 0 .2-.59.88.88 0 0 0-.79-.93h-.1a1 1 0 0 0-.43 0 .8.8 0 0 0 .18-.44 1 1 0 0 0-.34-.72 1.06 1.06 0 0 0-.59-.21.88.88 0 0 0-.7.34 1.07 1.07 0 0 0-.2-.62 1.06 1.06 0 0 0-.59-.21.92.92 0 0 0-.72.34v.31a1 1 0 0 0-.29-.52.95.95 0 0 0-1.32.12.86.86 0 0 0-.18.54.9.9 0 0 0-.2-.26.93.93 0 0 0-.6-.21.91.91 0 0 0-.7.34A.85.85 0 0 0 59 9v.16a.94.94 0 0 0-1.29 0 .93.93 0 0 0-.23.62.7.7 0 0 0 0 .36h-.58a3 3 0 0 0 0-.59 2 2 0 0 0-.39-1.06 2.7 2.7 0 0 1-.44-.67 6 6 0 0 1-.49-1.19 5.6 5.6 0 0 1 1.14.59l.23.16V4.83l-.23.17-.42.26a4.5 4.5 0 0 1-.8.37 7.5 7.5 0 0 1 .57-1.3v-.25h-2.4l.15.23.26.42a3.8 3.8 0 0 1 .36.8h-.15A6.2 6.2 0 0 1 53.13 5l-.21-.15v2.4l.21-.16.43-.26a5 5 0 0 1 .75-.33 4.8 4.8 0 0 1-.51 1.16l-.39.65a1.78 1.78 0 0 0-.36 1.06 1.5 1.5 0 0 0 0 .59h-.62a1.1 1.1 0 0 0 0-.36 1.06 1.06 0 0 0-.21-.6 1 1 0 0 0-.72-.31.87.87 0 0 0-.6.2.8.8 0 0 0-.23-.59.92.92 0 0 0-1.28-.14l-.21.26a.76.76 0 0 0-.18-.59.92.92 0 0 0-1.29-.13 1 1 0 0 0-.28.55.65.65 0 0 0 0-.34 1 1 0 0 0-.72-.34 1.06 1.06 0 0 0-.6.21 1 1 0 0 0-.33.72.9.9 0 0 0-.7-.33 1 1 0 0 0-.93.93.72.72 0 0 0 .18.44.94.94 0 0 0-.47 0 1.06 1.06 0 0 0-.59.21 1.1 1.1 0 0 0-.34.72.92.92 0 0 0 .24.59l.18.16a.9.9 0 0 0-.57.2 1 1 0 0 0-.34.7.88.88 0 0 0 .23.6.9.9 0 0 0 .52.31.55.55 0 0 0-.36 0 .89.89 0 0 0-.34.69 1.06 1.06 0 0 0 .21.6 1 1 0 0 0 .65.33.88.88 0 0 0-.34.7.91.91 0 0 0 .88.93.87.87 0 0 0 .6-.2.84.84 0 0 0 .28-.55v.29h-.23c.18.44.41.9.64 1.39a.6.6 0 0 0-.13.36 1 1 0 0 0 0 .26.79.79 0 0 0 .6.65c.19.5.35 1 .49 1.52l-.18.57.49.75 1.86-.7-1.5-.62.16-.54a2.15 2.15 0 0 0 1.49.41h.29a2.32 2.32 0 0 0 1.76-.77l.41.67.26-.78a1.74 1.74 0 0 0 1.37.47h.67a2.63 2.63 0 0 0 1.68-.93l.28 1 .29-1a2.63 2.63 0 0 0 1.68.93h.67A1.8 1.8 0 0 0 59.2 19l.26.78.38-.67a2.38 2.38 0 0 0 1.79.77h.28a2.17 2.17 0 0 0 1.5-.41l.15.54v.13l-1.49.59 1.18.93V22a.9.9 0 0 0-.46 0h-.47a.8.8 0 0 0-.43 0h-.47a.75.75 0 0 0-.42 0h-.86a.47.47 0 0 0-.33 0h-2.32a.55.55 0 0 0-.36 0h-.65a1.1 1.1 0 0 0-.36 0h-.46a1.1 1.1 0 0 0-.36 0h-1.43a.8.8 0 0 0-.43 0H53a.75.75 0 0 0-.42 0H50.9a.7.7 0 0 0-.41 0h-.13a.26.26 0 0 0-.21 0h-.23a.8.8 0 0 0-.44 0h-.57a1.2 1.2 0 0 0-.46.12h-1.37a.7.7 0 0 0-.47.29 1.8 1.8 0 0 0-.28.44 2.5 2.5 0 0 0 0 .39.45.45 0 0 0 0 .28h-.08a1.84 1.84 0 0 0-1.86 1.78 1.54 1.54 0 0 0 .47 1.11 1.42 1.42 0 0 0 1 .49c.44 0 .8-.2 1.09-.2a3 3 0 0 0 .59 0 2.3 2.3 0 0 0 1-.21 1.44 1.44 0 0 0 .75.21 1.9 1.9 0 0 0 .71-.2h.26a1.9 1.9 0 0 1 .62-.13h.55a2.16 2.16 0 0 0 1.08-.37 1.23 1.23 0 0 0 .65.16 2.2 2.2 0 0 0 .62-.13h.49a1.6 1.6 0 0 0 .54 0 1.9 1.9 0 0 0 .88-.16 1.3 1.3 0 0 0 .54.21h1.09a1.1 1.1 0 0 1 .51 0 2.8 2.8 0 0 0 .81.13 1.6 1.6 0 0 0 .9-.28 1.4 1.4 0 0 0 .72.2h.57a1.2 1.2 0 0 1 .54 0 1.6 1.6 0 0 0 .68 0 1.4 1.4 0 0 0 .72.16h.39a6 6 0 0 1 .82 0 2 2 0 0 1 .6 0h.2A1.24 1.24 0 0 0 65.86 25a2.17 2.17 0 0 0-.86-1.6 1.34 1.34 0 0 0-1-.4h-.39a.7.7 0 0 0 0-.28 1.2 1.2 0 0 0-.28-.85h-.16c-.15 0 0-.44 0-.6l.57-.36-.15-.54a14 14 0 0 1 .49-1.53.76.76 0 0 0 .59-.64 1 1 0 0 0 0-.26.7.7 0 0 0 0-.36c.21-.49.44-1 .62-1.4h-.23v-.28a.88.88 0 0 0 .29.54.84.84 0 0 0 .59.21.92.92 0 0 0 .72-.34.9.9 0 0 0 .21-.59.88.88 0 0 0-.34-.7.85.85 0 0 0 .62-.34.87.87 0 0 0 0-1.23v-.05a.65.65 0 0 0-.54-.3m-9.87-7.75v1.34a5.5 5.5 0 0 0-1-.49v-.36a4.2 4.2 0 0 0 1-.47Zm-2.35.85a6 6 0 0 0-1 .49V5.37a5.5 5.5 0 0 0 1 .49Zm12.46 5.48a.65.65 0 0 1 .23.49.74.74 0 0 1-.13.41.65.65 0 0 1-1.14-.41.73.73 0 0 1 .16-.42.72.72 0 0 1 .44-.18.76.76 0 0 1 .44.13Zm-1 2.94a1 1 0 0 0-.54.26c0-.21.16-.41.21-.59a1.4 1.4 0 0 0 .33.36Zm-.36-3.36a1.1 1.1 0 0 0 .49.16l-.2.15a.5.5 0 0 0 0 .24 2 2 0 0 0-.29-.52Zm.34 1.55a.7.7 0 0 0 .38.13.93.93 0 0 0-.54.29c.06-.13.11-.26.16-.39ZM66 9.89a.6.6 0 0 1 .42 0 .63.63 0 0 1 0 .88.6.6 0 0 1-.84 0 .66.66 0 0 1-.24-.49.73.73 0 0 1 .16-.42.57.57 0 0 1 .54 0Zm-1.68-1a.63.63 0 0 1 .88 0 .6.6 0 0 1 .2.49.8.8 0 0 1-.13.42.7.7 0 0 1-.49.23.65.65 0 0 1-.65-.65.64.64 0 0 1 .13-.38Zm.7 1.65-.42-.39h.13a.8.8 0 0 0 .44 0 .86.86 0 0 0-.15.44Zm-1-.77a2.6 2.6 0 0 0-.62-.26.87.87 0 0 0 .44-.26.9.9 0 0 0 .18.54Zm-1.36-1.53a.63.63 0 0 1 .88 0 .7.7 0 0 1 .21.49.62.62 0 0 1-.62.62.58.58 0 0 1-.62-.54.58.58 0 0 1 .18-.46Zm-.39.59a.83.83 0 0 0 .29.52H62l.16-.13a3 3 0 0 1 .11-.39M61 8.24a.73.73 0 0 1 .5-.24.54.54 0 0 1 .38.15.63.63 0 0 1 0 .88.53.53 0 0 1-.46.23.64.64 0 0 1-.56-.71.6.6 0 0 1 .14-.31m-.31.85a.5.5 0 0 0 .21.26h.23l-.62.13a.8.8 0 0 0 .13-.48Zm-1.39-.44a.66.66 0 0 1 .49-.41.67.67 0 0 1 .41.16.54.54 0 0 1 .21.49.65.65 0 0 1-.13.38.63.63 0 0 1-.88 0 .55.55 0 0 1-.21-.46.5.5 0 0 1 .13-.26Zm-.13 1.19a.4.4 0 0 0 0-.15.86.86 0 0 0 .49.18h-.26l-.51.28a.73.73 0 0 0 .23-.41Zm-1.47-.41a.63.63 0 0 1 .88 0 .7.7 0 0 1 .21.49.65.65 0 0 1 0 .39.63.63 0 0 1-.88 0 .55.55 0 0 1-.24-.47.57.57 0 0 1 0-.51ZM56.46 9h-.8v-.8a1.56 1.56 0 0 1 .8.7Zm-2-4.68h1.34a7 7 0 0 0-.52 1H55a5.3 5.3 0 0 0-.53-1Zm.31 1.43a.36.36 0 0 1 .36-.13.48.48 0 0 1 .44.46.55.55 0 0 1 0 .31.44.44 0 0 1-.34.16.55.55 0 0 1-.31 0 .44.44 0 0 1-.15-.36.42.42 0 0 1 0-.43Zm0 1a.6.6 0 0 0 .26 0h.23a7 7 0 0 0 .5 1.25 1.54 1.54 0 0 0-1.55 0 6 6 0 0 0 .62-1.22Zm-.23 1.5v.8h-.81a1.55 1.55 0 0 1 .77-.84Zm-.86 1.09h1.14V8.06h.59v1.16h1.14a1.4 1.4 0 0 1 0 .29.4.4 0 0 1 0 .15h-2.93v-.15a1.4 1.4 0 0 1 0-.29Zm2 3.59a.74.74 0 0 0 .18-.47 1 1 0 0 0-.18-.41.74.74 0 0 0 .18-.47.5.5 0 0 0-.13-.25 2.1 2.1 0 0 0 .57-.5 12 12 0 0 0-.44 1.58v.65a.55.55 0 0 0-.18-.24Zm0 .7V14l.07-.49Zm0-2.59a.7.7 0 0 0 0-.28.74.74 0 0 0-.26-.55h1a1.55 1.55 0 0 1-.65.62Zm-.21 2.59a.75.75 0 0 0-.34-.21.35.35 0 0 0-.36.18.7.7 0 0 1 0-.36.42.42 0 0 1 0-.31.46.46 0 0 1 .39-.18.4.4 0 0 1 .34 0 .49.49 0 0 1 .18.38.53.53 0 0 1-.13.42Zm0 .56a.65.65 0 0 1 0 .34.64.64 0 0 1-.41.18.55.55 0 0 1-.31 0 .46.46 0 0 1-.18-.39.47.47 0 0 1 0-.33.44.44 0 0 1 .38-.18.5.5 0 0 1 .34 0 .44.44 0 0 1 .36.31Zm-1-1.34a.43.43 0 0 0-.13.34v-.68a9 9 0 0 0-.34-1.65 1.8 1.8 0 0 0 .6.37v.28a.64.64 0 0 0 .18.41.62.62 0 0 0-.18.44.74.74 0 0 0 .08.44Zm0 .88v-.29a1 1 0 0 0 .18.21Zm0-3.54a.66.66 0 0 0-.19.46.4.4 0 0 0 .13.29 1.54 1.54 0 0 1-.82-.88h1.06Zm.54 0a.42.42 0 0 1 .31 0 .46.46 0 0 1 .18.39.42.42 0 0 1 0 .31 1.07 1.07 0 0 0-.78.15.47.47 0 0 1 0-.33.65.65 0 0 1 0-.34.62.62 0 0 1 .47-.31Zm-.52 2.27a.6.6 0 0 1 0-.33.6.6 0 0 1 .42-.18.42.42 0 0 1 .31 0 .49.49 0 0 1 .18.38.65.65 0 0 1 0 .34.73.73 0 0 0-.42-.16.36.36 0 0 0-.36.19.8.8 0 0 1 0-.37Zm.91-.46a.9.9 0 0 0-.39-.13.4.4 0 0 0-.39.16.5.5 0 0 1 0-.34.6.6 0 0 1 0-.33.5.5 0 0 1 .54-.42.65.65 0 0 1 .34 0 .46.46 0 0 1 .18.39.43.43 0 0 1-.1.54Zm-2.74-1.2h-.21a3 3 0 0 1 .39-.13Zm-1.32-1.42a.63.63 0 0 1 .88 0 .6.6 0 0 1 .13.41.64.64 0 0 1-.21.47.63.63 0 0 1-.88 0 .55.55 0 0 1-.16-.39.65.65 0 0 1 .41-.62Zm-.33 1-.49-.28h-.21a.83.83 0 0 0 .59-.42v.16a1 1 0 0 0 .29.41ZM49.79 8.6a.63.63 0 0 1 .88 0 .64.64 0 0 1 .13.4.55.55 0 0 1-.21.46.63.63 0 0 1-.88 0 .53.53 0 0 1-.12-.38.69.69 0 0 1 .41-.61Zm-.49.55a1 1 0 0 0 .18.46l-.59-.13h.2a.88.88 0 0 0 .39-.48Zm-1-1.06a.55.55 0 0 1 .41-.09.7.7 0 0 1 .49.21.6.6 0 0 1 .15.41.65.65 0 0 1-.64.65.6.6 0 0 1-.39-.27.67.67 0 0 1-.16-.41.56.56 0 0 1 .16-.46Zm-.44.72a1.4 1.4 0 0 0 .13.34.44.44 0 0 0 .18.12h-.54a.72.72 0 0 0 .2-.46Zm-1.32-.57a.66.66 0 0 1 .93.08.65.65 0 0 1-.08.92.67.67 0 0 1-.39.16.8.8 0 0 1-.5-.26.55.55 0 0 1-.12-.39.7.7 0 0 1 .22-.49Zm-.28 1.09a.85.85 0 0 0 .46.28 2.8 2.8 0 0 0-.62.26.86.86 0 0 0 .18-.49v-.13ZM45 8.89a.65.65 0 0 1 .91.08.6.6 0 0 1 .15.41.78.78 0 0 1-.7.57.72.72 0 0 1-.49-.24.59.59 0 0 1 .13-.9Zm0 1.29a.8.8 0 0 0 .44 0h.13a2.2 2.2 0 0 0-.41.39.9.9 0 0 0-.16-.47Zm-1.39.44a.62.62 0 0 1 .23-.49.53.53 0 0 1 .39 0 .6.6 0 0 1 .49.2.72.72 0 0 1 .15.42.65.65 0 0 1-.23.49.76.76 0 0 1-.41.15.63.63 0 0 1-.62-.64Zm.85 2.79a1.2 1.2 0 0 0-.52-.29.8.8 0 0 0 .36-.12 3 3 0 0 0 .12.41Zm0-1.73-.21-.16a1 1 0 0 0 .47-.15.7.7 0 0 1-.18.54c-.19.21-.06-.23-.11-.31Zm.15 2.74a3 3 0 0 0 .18.59.77.77 0 0 0-.51-.26 1.14 1.14 0 0 0 .31-.41Zm-1.42-1.81a.63.63 0 0 1 0-.88.86.86 0 0 1 .39 0A.76.76 0 0 1 44 12a.7.7 0 0 1 .16.41.65.65 0 0 1-.65.65.57.57 0 0 1-.36-.41Zm0 1.73a.58.58 0 0 1 0-.41.56.56 0 0 1 .16-.52.58.58 0 0 1 .41 0 .64.64 0 0 1 .47 0 .76.76 0 0 1 .15.41.65.65 0 0 1-.23.49.55.55 0 0 1-.39.16.67.67 0 0 1-.61-.13Zm1.32 1.73a.7.7 0 0 1-.41.16.72.72 0 0 1-.42-.24.56.56 0 0 1-.15-.41.54.54 0 0 1 .23-.47.63.63 0 0 1 .88 0 .6.6 0 0 1 .13.39.7.7 0 0 1-.2.49Zm.65 0h.12a8.4 8.4 0 0 1-.77-3.23 3.28 3.28 0 0 1 3.19-3.37h.3a4.08 4.08 0 0 1 2.42.65 4 4 0 0 0 2.23.67c.14.33.27.66.38 1a5 5 0 0 1-2.58-.79 4.44 4.44 0 0 0-2.17-.77 3 3 0 0 0-1.71.59 2.75 2.75 0 0 0-1 2.3 6.15 6.15 0 0 0 .67 2.59h.26a1.5 1.5 0 0 0 .75-.19c.38-.18-.75 1.68-.75 1.79v.15a.53.53 0 0 0-.34-.15.3.3 0 0 0-.23 0Zm8.08-4a1 1 0 0 1 0 .34v.33a3.34 3.34 0 0 0-1.83-.59h-.52l-1.24.26a4.7 4.7 0 0 0-2.35-.65h-.8a3 3 0 0 0-.65.26h-.18a2.4 2.4 0 0 1 .71-1.02 2.73 2.73 0 0 1 1.53-.54 4.2 4.2 0 0 1 2.27.74 5.74 5.74 0 0 0 3.1 1Zm-7.05 6.49c-.18 0-.39-.24-.41-.52a.6.6 0 0 1 0-.26.28.28 0 0 1 .18 0c.18 0 .38.23.41.52 0 .26-.16.41-.31.41ZM47 21.4l-.32-.4 1.06-.19Zm0-1.06.86.34-1.09.15.13-.41Zm.78 6a2.3 2.3 0 0 1-.52 0H47c-.39 0-.72.2-1.08.18a1.27 1.27 0 0 1-1.22-1.29 1.51 1.51 0 0 1 1.42-1.48 2.1 2.1 0 0 1 .49 1 3 3 0 0 0 .16.44 3.8 3.8 0 0 1-1.14-.75 2.7 2.7 0 0 0 0 1.14 1.73 1.73 0 0 1-.49-1 1.52 1.52 0 0 0 .86 1.85A4.5 4.5 0 0 1 46 25a2.33 2.33 0 0 0 2 1 1.07 1.07 0 0 1-.42-.62 3.5 3.5 0 0 0-1.18-1.53h.2c.16 0 .8 0 1.35 1.48a2.8 2.8 0 0 0 .72 1.08 1.7 1.7 0 0 1-1 0Zm6.74-.29h-.67a2 2 0 0 1-1.14-.18c-.93-.64-.93-1.31-1.47-2a2 2 0 0 0-.26-.16l.39-.18a1.6 1.6 0 0 1 .44 0 1.5 1.5 0 0 1 .59.13h.6a.7.7 0 0 1 .28 0c.39 0 1 .13 1.4 1.17a2.7 2.7 0 0 0 .77 1.34h-.52Zm7.76.37h-.57a1.4 1.4 0 0 0-.65 0h-.57a1.48 1.48 0 0 1-1.19-.73c-.31-.44-.54-1-.8-1.37a2 2 0 0 0-.4-.36.9.9 0 0 1 .52 0 1.7 1.7 0 0 1 .82.18h1a1.05 1.05 0 0 1 .54.18 5.9 5.9 0 0 1 1 1.55 2.6 2.6 0 0 0 .54.8Zm1.42-3.29v.34h-.55a3.2 3.2 0 0 1-.62 0H62a2 2 0 0 0-1 .28.9.9 0 0 0-.51-.12h-.91a3 3 0 0 0-.93-.21 1.2 1.2 0 0 0-.8.23 1.8 1.8 0 0 0-1-.28 1.4 1.4 0 0 0-.49 0 1.5 1.5 0 0 1-.42 0h-.2a2.4 2.4 0 0 0-.75 0 2.06 2.06 0 0 0-.91.18 1.44 1.44 0 0 0-.75-.21H53a1 1 0 0 1-.34 0h-.12a1.7 1.7 0 0 0-.73-.15 1.4 1.4 0 0 0-.57 0 1.6 1.6 0 0 1-.51.18 1.75 1.75 0 0 0-.78-.18 3 3 0 0 0-.59 0 1.3 1.3 0 0 1-.39 0h-.72a1.48 1.48 0 0 0-1 .25.7.7 0 0 0-.29-.15.55.55 0 0 1-.15-.36.67.67 0 0 1 .23-.7.64.64 0 0 1 .31-.23h1.16a1 1 0 0 1 .52-.18h.54a.8.8 0 0 1 .43-.16h.65a.9.9 0 0 1 .33 0h.6a.55.55 0 0 1 .31 0h.56a.8.8 0 0 1 .37 0h3.38a.26.26 0 0 0 .21 0h1.13a.7.7 0 0 1 .29 0h.62a.7.7 0 0 1 .28 0h.6a.8.8 0 0 1 .31 0h2.43a.7.7 0 0 1 .36 0h.46a1 1 0 0 1 .73 1.19l-.06.15Zm-.34-1.62-.85-.65 1-.41.16.51Zm.31-1.81-.18-.7v.23a1.8 1.8 0 0 1-1.47.52h-.26c-.93 0-1.66-.47-1.68-.78v-.25l-.41.67-.26-.86v.29c0 .31-.62.54-1.32.54h-.62c-.91-.15-1.58-.64-1.65-1.06v-.41L55.43 19l-.31-1.06v.41c0 .42-.75.91-1.66 1.06h-.62c-.7 0-1.21-.23-1.32-.54v-.29l-.25.86-1-.8v.25c0 .31-.75.73-1.68.78h-.31a1.79 1.79 0 0 1-1.47-.52v-.25l-.18.7a3.2 3.2 0 0 0-.29-.91.55.55 0 0 0 .36-.54.87.87 0 0 0-.2-.46.28.28 0 0 0 .18 0 9.4 9.4 0 0 0 .85-1.14c0-.16.54 2.07.72 2.4s-1.37-.54-1.57-.46.62 1.39 1.88 1.13 1.45-1 1.24-.95-.54-.47-.15-.62 0-.7-.41-.62c-.83.15 0 1.42-.19 1.29-2-1.27 0-2.82.75-1.94a2.75 2.75 0 0 1 .26-2.58c.18-.26 1.06 1.21.93 2.58.26-1 2.59-.64 1.37 1.42-.44.47 0-1.26-.67-1s-.41.67-.18.72.41.31 0 .67 1.32.9 2.17.36 1.19-1.34.93-1.44-.7.31-1.29.87a16 16 0 0 1 0-2.4c0-.28 1.42 1 1.42.78 0-.75-1.19-1.63-1.16-1.68s.31 0 .33 0a15 15 0 0 0-.26-2.3 15 15 0 0 0-.77-2.15h.57a12 12 0 0 1 .64 2.17c.16 1 .21 2.3.21 2.3h.21V15a.65.65 0 0 0 .44.16.78.78 0 0 0 .55-.16v.15h.18a12.7 12.7 0 0 1 .24-2.3 10 10 0 0 1 .62-2.09h.64a16 16 0 0 0-.77 2.14 15 15 0 0 0-.26 2.3h.36c.08 0-1.24.93-1.19 1.68a.6.6 0 0 0-.84 0 .57.57 0 0 0 0 .81.63.63 0 0 0 .85 0 .59.59 0 0 0 0-.73c0 .16 1.42-1.06 1.45-.77a16 16 0 0 1 0 2.4c-.57-.57-1.09-1-1.29-.88s0 .83.93 1.45 2.58-.54 2.25-.8-.16-.67 0-.67.54-.47-.19-.73-.2 1.48-.67 1c-1.29-2.07 1.11-2.4 1.37-1.42-.18-1.32.82-2.8.92-2.54a2.81 2.81 0 0 1 .29 2.58c.75-.88 2.58.67.75 1.94-.21.13.64-1.14-.19-1.29-.41 0-.74.51-.43.62s0 .67-.16.62-.23.64 1.24 1 2.25-1 1.89-1.14-1.68.65-1.58.47a20 20 0 0 1 .75-2.4 7.6 7.6 0 0 0 .83 1.13.23.23 0 0 0 .2 0 .94.94 0 0 0-.2.47.59.59 0 0 0 .33.7 3.2 3.2 0 0 1-.28 1Zm-6.74-7.55a5.8 5.8 0 0 0 2.81-.8A4.44 4.44 0 0 1 62 10.6a2.77 2.77 0 0 1 1.52.54 2.4 2.4 0 0 1 .75 1.12H64l-.62-.3h-.8a4.6 4.6 0 0 0-2.35.64L59 12.37h-.54a3.35 3.35 0 0 0-1.81.6v-.34a1.2 1.2 0 0 1 .2-.49ZM64.47 18c0 .29-.23.52-.41.49-.16 0-.31-.15-.31-.41a.52.52 0 0 1 .41-.52.37.37 0 0 1 .21 0 .4.4 0 0 1 0 .26Zm.41-2H65l-.59 1.32a.45.45 0 0 0-.23 0 .54.54 0 0 0-.34.16.22.22 0 0 0 0-.16L63 15.53c.42 0 .65.26.78.15H64a6.8 6.8 0 0 0 .67-2.58 2.78 2.78 0 0 0-.91-2.28 3.06 3.06 0 0 0-1.7-.59 4.43 4.43 0 0 0-2.41.78 5.3 5.3 0 0 1-2.58.74 9 9 0 0 1 .39-1 3.8 3.8 0 0 0 2.22-.67 4.1 4.1 0 0 1 2.43-.65 3.28 3.28 0 0 1 3.55 3v.37a8.9 8.9 0 0 1-.86 3.2Zm1.84-.49a.59.59 0 0 1-.23.49.66.66 0 0 1-.49.24.8.8 0 0 1-.34-.24.7.7 0 0 1-.21-.49.86.86 0 0 1 0-.39.63.63 0 0 1 .88 0 .57.57 0 0 1 .36.47Zm.28-1.2a.62.62 0 0 1-.49.23.72.72 0 0 1-.42-.15.7.7 0 0 1-.2-.49.75.75 0 0 1 0-.42.68.68 0 0 1 .62 0 .6.6 0 0 1 .41.15.58.58 0 0 1 .23.47.6.6 0 0 1-.15.31Z" class="a48ca86c-82b8-4af0-8539-b9588c2dd404"/><path d="m144 43.36-3.58 3 23.87 57.05 38.31-19.59V9.21l-9-6.68-48.27 39.8Z" style="fill:#fff"/><path d="M195.71 70.07h3.68l-1.83-5.71zm-31.15-15.62h4.51l-2.24-8.23z" class="a53e5843-4210-4c44-8aa8-bd53999521b9"/><path d="m200.58 73.71-.85-2.47h-4.38l-.83 2.47h-1.35l3.48-10.31h1.78l3.5 10.31Zm-11.57 0-2.13-9.2-2.16 9.2h-1.91l-2.67-10.31h1.3l2.35 9 2.13-9h1.85l2.14 9 2.35-9h1.3l-2.7 10.31ZM177 42.33h12.46v3.89h-8.06v4.19h7.43v3.92h-7.43V62H177ZM171.25 62l-1.07-3.82h-6.62L162.5 62h-4.6l6-19.64h5.9l6 19.64Zm19.81 0V42.33h11.52V9.21l-9-6.68-48.27 39.8H159v3.89h-5.3V62h-4.44V46.22H144v-2.86l-3.58 3 23.87 57.05 38.31-19.59V62Z" class="a53e5843-4210-4c44-8aa8-bd53999521b9"/><path d="M195.43 53.77h7.16v4.28h-7.16zm0-7.52h7.16v3.6h-7.16z" class="a53e5843-4210-4c44-8aa8-bd53999521b9"/><path d="m224.07 63.49-.28 10.23h-4.01l.78-18.41h4.15l4.42 11.72 4.42-11.72h4.15l.77 18.41h-4.01l-.27-10.23-3.21 7.85h-3.7zm24.48 1.33c0-1-.27-1.72-1.65-1.72s-1.83.78-1.83 1.72v.58h3.48Zm-3.48 3.56v.39c0 1.55.61 2 2.44 2a16 16 0 0 0 4.08-.58l.59 3a15.9 15.9 0 0 1-5.06.86c-4.36 0-6-2.15-6-5.47v-3.21c0-2.86 1.29-5.39 5.77-5.39s5.44 2.66 5.44 5.59v2.86ZM259.72 74c-2.57 0-4.06-1-4.06-3.45v-7h-1.82v-3.29h1.82V57l4-.55v3.82h3.06l-.2 3.18h-2.86V70c0 .56.32.75.82.75a5.2 5.2 0 0 0 1.66-.25l.47 3a9.3 9.3 0 0 1-2.86.49m9.43-8.48v8.21h-4V60.26h3.32l.27 1.3a12.7 12.7 0 0 1 3.64-1.6l.33 3.76a19.7 19.7 0 0 0-3.56 1.77m13 3.17v-3.35c0-1.27-.66-2-2.1-2s-2.1.72-2.1 2v3.34c0 1.28.67 2 2.1 2s2.1-.71 2.1-2m-8.18-.11v-3.11c0-2.77 1.3-5.45 6.08-5.45s6.08 2.68 6.08 5.45v3.12c0 2.76-1.3 5.44-6.08 5.44S274 71.31 274 68.55m19 1.65a11.4 11.4 0 0 0 2.54.34c1.06 0 1.44-.63 1.44-1.52V65c0-1-.38-1.52-1.44-1.52a4.43 4.43 0 0 0-2.54 1Zm8-1.2c0 3.18-1.38 5-4.53 5a15.2 15.2 0 0 1-3.43-.39v5.59l-4 .55V60.26h3.12l.42 1.08a8.6 8.6 0 0 1 4.17-1.34c2.74 0 4.25 1.69 4.25 5Zm10.4-.34v-3.35a1.83 1.83 0 0 0-2.1-2c-1.43 0-2.1.72-2.1 2v3.34c0 1.28.66 2 2.1 2s2.1-.71 2.1-2m-8.18-.11v-3.11c0-2.77 1.3-5.45 6.08-5.45s6.08 2.68 6.08 5.45v3.12c0 2.76-1.3 5.44-6.08 5.44s-6.08-2.68-6.08-5.44m15.06 5.17V54.75l3.98-.54v19.51zm7.57-13.46h4v13.46h-4Zm0-5.92h4v4.23h-4ZM337.9 74c-2.57 0-4.06-1-4.06-3.45v-7H332v-3.29h1.83V57l4-.55v3.82h3.07l-.22 3.2h-2.86V70c0 .56.32.75.83.75a5.4 5.4 0 0 0 1.65-.25l.46 3a9.3 9.3 0 0 1-2.86.49m11.96-5.1H348c-.86 0-1.18.22-1.18 1s.3 1 1.08 1a4.5 4.5 0 0 0 2-.47Zm.72 4.83-.28-.86a8.3 8.3 0 0 1-3.82 1.1C344 74 343 72.2 343 70c0-2.71 1.24-3.82 4-3.82h2.86v-1c0-1.39-.25-1.85-2.38-1.85a18 18 0 0 0-3.64.38l-.53-3a18.8 18.8 0 0 1 4.84-.67c4.67 0 5.73 1.42 5.73 5.15v8.59Zm14.42 0v-8.9a.86.86 0 0 0-.7-1h-.3a7.7 7.7 0 0 0-2.86 1v8.9h-4V60.26h3l.42 1A13.6 13.6 0 0 1 366 60c2.3 0 3.1 1.72 3.1 4.32v9.38ZM225.61 46.57a15.1 15.1 0 0 1-6-1.19l.7-3.22a17.4 17.4 0 0 0 5.31.89c2.14 0 2.56-.42 2.56-2s-.07-1.87-3.11-2.51c-4.46-.95-5.13-1.85-5.13-5.85 0-3.68 1.3-5.15 6.38-5.15a26.4 26.4 0 0 1 5.6.61l-.42 3.49a28.4 28.4 0 0 0-5.12-.52c-1.91 0-2.27.33-2.27 1.69 0 1.77.07 1.8 3 2.49 5 1.19 5.25 2.17 5.25 5.8s-1.18 5.47-6.75 5.47m8.98-5.46V38c0-2.76 1.3-5.46 6.09-5.46s6.1 2.7 6.1 5.46v3.1c0 2.77-1.29 5.46-6.1 5.46s-6.09-2.68-6.09-5.45m8.2.11v-3.35c0-1.28-.66-2-2.11-2a1.83 1.83 0 0 0-2.1 2v3.35c0 1.28.66 2 2.1 2s2.11-.72 2.11-2m10.76-8.43v8.93a.85.85 0 0 0 .68 1h.27a8 8 0 0 0 2.92-1v-8.93h4V46.3h-3l-.39-1a13.6 13.6 0 0 1-5.39 1.3c-2.3 0-3.1-1.71-3.1-4.32v-9.49Zm16.01 13.78c-2.59 0-4.09-1-4.09-3.46V36h-1.82v-3.21h1.82v-3.24l4-.51v3.82h3.07l-.22 3.21h-2.86v6.55c0 .56.33.75.83.75a5.9 5.9 0 0 0 1.66-.25l.48 3a9.4 9.4 0 0 1-2.87.45m13.33-.27v-8.94a.85.85 0 0 0-.73-1h-.23a8.6 8.6 0 0 0-2.91 1v8.91h-4v-19l3.94-.55v7.09a11.9 11.9 0 0 1 4.83-1.25c2.3 0 3.1 1.72 3.1 4.33v9.45Z" style="fill:#414142"/></svg>