<?xml version="1.0" encoding="UTF-8"?>
<svg id="Layer_1" data-name="Layer 1" xmlns="http://www.w3.org/2000/svg" viewBox="0 0 334.89 147.87">
  <defs>
    <style>
      .cls-1 {
        fill: #fff;
      }
    </style>
  </defs>
  <polygon class="cls-1" points="122.5 46.14 122.5 63.88 116.71 63.88 116.71 36.91 124.16 36.91 133.02 55.5 133.02 36.91 138.81 36.91 138.81 63.88 131.32 63.88 122.5 46.14"/>
  <path class="cls-1" d="m155.05,56.46v-4.9c0-1.86-.97-2.92-3.07-2.92s-3.08,1.06-3.08,2.92v4.9c0,1.87.97,2.92,3.08,2.92s3.07-1.05,3.07-2.92m-11.98-.16v-4.58c0-4.05,1.9-7.97,8.91-7.97s8.91,3.93,8.91,7.97v4.58c0,4.05-1.9,7.97-8.91,7.97s-8.91-3.93-8.91-7.97"/>
  <path class="cls-1" d="m170.96,51.85v12.03h-5.83v-19.72h4.86l.4,1.9c1.21-.81,3.72-1.98,5.3-2.31l.49,5.51c-1.74.69-3.97,1.7-5.22,2.59"/>
  <path class="cls-1" d="m185.7,64.28c-3.76,0-5.95-1.42-5.95-5.06v-10.36h-2.67v-4.69h2.67v-4.74l5.83-.81v5.55h4.5l-.33,4.69h-4.17v9.56c0,.81.49,1.09,1.22,1.09.65,0,1.58-.08,2.43-.36l.69,4.41c-1.3.45-2.87.73-4.21.73"/>
  <path class="cls-1" d="m205.17,63.88v-13.04c0-.89-.4-1.42-1.42-1.42s-3,.81-4.25,1.46v13h-5.83v-27.77l5.75-.81v10.28c2.39-1.09,4.78-1.82,7.05-1.82,3.36,0,4.53,2.51,4.53,6.32v13.81h-5.83Z"/>
  <polygon class="cls-1" points="122.58 89.39 122.18 104.37 116.3 104.37 117.44 77.4 123.51 77.4 129.99 94.57 136.46 77.4 142.54 77.4 143.67 104.37 137.8 104.37 137.4 89.39 132.7 100.88 127.28 100.88 122.58 89.39"/>
  <path class="cls-1" d="m158.45,91.33c0-1.38-.4-2.51-2.43-2.51s-2.67,1.14-2.67,2.51v.85h5.1v-.85Zm-5.1,5.22v.57c0,2.27.89,2.88,3.56,2.88,1.82,0,4.25-.33,5.99-.85l.85,4.37c-1.78.65-4.65,1.25-7.41,1.25-6.39,0-8.82-3.16-8.82-8.02v-4.61c0-4.25,1.9-7.9,8.46-7.9s7.98,3.89,7.98,8.18v4.13h-10.61Z"/>
  <path class="cls-1" d="m174.81,104.77c-3.77,0-5.95-1.42-5.95-5.06v-10.36h-2.67v-4.69h2.67v-4.74l5.83-.81v5.55h4.5l-.33,4.69h-4.17v9.56c0,.81.49,1.09,1.21,1.09.65,0,1.58-.08,2.43-.36l.69,4.41c-1.29.45-2.87.73-4.21.73"/>
  <path class="cls-1" d="m188.61,92.34v12.03h-5.83v-19.72h4.86l.4,1.9c1.22-.81,3.72-1.98,5.3-2.31l.49,5.51c-1.74.69-3.97,1.7-5.22,2.59"/>
  <path class="cls-1" d="m207.72,96.96v-4.9c0-1.86-.97-2.91-3.07-2.91s-3.08,1.05-3.08,2.91v4.9c0,1.86.97,2.92,3.08,2.92s3.07-1.05,3.07-2.92m-11.98-.16v-4.58c0-4.05,1.9-7.98,8.91-7.98s8.91,3.93,8.91,7.98v4.58c0,4.05-1.9,7.97-8.91,7.97s-8.91-3.93-8.91-7.97"/>
  <path class="cls-1" d="m223.63,99.22c1.01.24,2.51.49,3.72.49,1.54,0,2.11-.93,2.11-2.23v-5.95c0-1.38-.57-2.23-2.11-2.23-1.34,0-2.87.81-3.72,1.54v8.38Zm11.66-1.74c0,4.66-2.03,7.28-6.64,7.28-1.62,0-3.69-.24-5.02-.57v8.14l-5.83.81v-28.5h4.57l.61,1.58c1.38-.89,3.93-1.98,6.07-1.98,4.01,0,6.24,2.47,6.24,7.29v5.95Z"/>
  <path class="cls-1" d="m250.52,96.96v-4.9c0-1.86-.97-2.91-3.07-2.91s-3.08,1.05-3.08,2.91v4.9c0,1.86.97,2.92,3.08,2.92s3.07-1.05,3.07-2.92m-11.98-.16v-4.58c0-4.05,1.9-7.98,8.91-7.98s8.91,3.93,8.91,7.98v4.58c0,4.05-1.9,7.97-8.91,7.97s-8.91-3.93-8.91-7.97"/>
  <polygon class="cls-1" points="260.6 104.37 260.6 76.59 266.43 75.78 266.43 104.37 260.6 104.37"/>
  <path class="cls-1" d="m271.69,84.65h5.83v19.72h-5.83v-19.72Zm0-8.67h5.83v6.2h-5.83v-6.2Z"/>
  <path class="cls-1" d="m289.39,104.77c-3.76,0-5.95-1.42-5.95-5.06v-10.36h-2.67v-4.69h2.67v-4.74l5.83-.81v5.55h4.5l-.33,4.69h-4.17v9.56c0,.81.49,1.09,1.22,1.09.64,0,1.58-.08,2.43-.36l.69,4.41c-1.29.45-2.87.73-4.21.73"/>
  <path class="cls-1" d="m306.88,97.28h-2.79c-1.25,0-1.74.32-1.74,1.41s.45,1.54,1.58,1.54c1.21,0,2.07-.28,2.96-.69v-2.27Zm1.05,7.08l-.4-1.25c-2.27,1.25-4.3,1.66-5.63,1.66-3.65,0-5.14-2.63-5.14-5.99,0-3.97,1.82-5.55,5.87-5.55h4.25v-1.5c0-2.02-.36-2.71-3.48-2.71-1.74,0-3.48.2-5.35.57l-.77-4.37c1.86-.57,4.82-.97,7.09-.97,6.84,0,8.34,2.07,8.34,7.53v12.59h-4.78Z"/>
  <path class="cls-1" d="m329.06,104.37v-13.04c0-.89-.4-1.42-1.42-1.42s-3,.73-4.25,1.42v13.04h-5.83v-19.72h4.33l.61,1.5c2.43-1.17,5.59-1.9,7.86-1.9,3.36,0,4.53,2.51,4.53,6.32v13.81h-5.83Z"/>
  <g>
    <polygon class="cls-1" points="81.03 99.02 86.42 99.02 83.73 90.67 81.03 99.02"/>
    <g>
      <polygon class="cls-1" points="35.4 76.14 42.01 76.14 38.72 64.08 35.4 76.14"/>
      <rect class="cls-1" x="80.61" y="75.14" width="10.49" height="6.27"/>
      <rect class="cls-1" x="80.61" y="64.13" width="10.49" height="5.27"/>
    </g>
    <path class="cls-1" d="m88.16,104.34l-1.24-3.62h-6.41l-1.22,3.62h-1.97l5.1-15.08h2.63l5.1,15.08h-1.97Zm-16.99,0l-3.13-13.47-3.12,13.47h-2.74l-3.96-15.08h1.9l3.44,13.22,3.13-13.22h2.72l3.12,13.22,3.44-13.22h1.9l-3.96,15.08h-2.74Zm-17.59-45.96h18.27v5.75h-11.79v6.14h10.89v5.75h-10.89v11.15h-6.48v-28.78Zm-8.46,28.78l-1.55-5.62h-9.64l-1.55,5.62h-6.74l8.77-28.78h8.64l8.81,28.78h-6.74Zm29.02,0v-28.78h16.97V9.85L77.86,0,7.14,58.38h20.06v5.75h-7.73v23.03h-6.48v-23.03h-7.73v-4.18l-5.25,4.33,34.92,83.59,56.18-28.77v-31.95h-16.97Z"/>
  </g>
</svg>