<?xml version="1.0" encoding="UTF-8"?><svg id="Layer_2" xmlns="http://www.w3.org/2000/svg" viewBox="0 0 185.31 162.27"><defs><style>.cls-1{fill:#1e3a5f;}</style></defs><g id="Layer_1-2"><path class="cls-1" d="m53.55,46.04h13.65l4.45,18.93h.09l4.45-18.93h13.65v32.17h-9.07v-20.64h-.09l-5.41,20.64h-7.15l-5.41-20.64h-.09v20.64h-9.07v-32.17Zm40.7,0h9.59v32.17h-9.59v-32.17Zm22.38,0h9.37l11.34,32.17h-9.94l-1.31-4.6h-9.9l-1.39,4.6h-9.64l11.47-32.17Zm7.54,20.68l-2.79-9.91h-.09l-3.01,9.91h5.89ZM27.77,139.12h3.34l2.52,6.98h.03l2.38-6.98h3.34v10.15h-2.22v-7.19h-.03l-2.64,7.19h-1.83l-2.64-7.12h-.03v7.12h-2.22v-10.15Zm15.6,1.66h-2.14v-1.66h2.14v1.66Zm-2.14,1.14h2.14v7.35h-2.14v-7.35Zm11.22,6.88c0,1.21-.47,3.26-4.04,3.26-1.54,0-3.32-.7-3.44-2.36h2.13c.2.75.83,1.01,1.6,1.01,1.19,0,1.74-.75,1.72-1.82v-.97h-.03c-.47.78-1.39,1.14-2.34,1.14-2.35,0-3.33-1.68-3.33-3.7,0-1.91,1.18-3.64,3.35-3.64,1.03,0,1.8.33,2.33,1.18h.03v-.98h2.04v6.88Zm-2.04-3.3c0-1.19-.44-2.26-1.83-2.26-1.21,0-1.74.99-1.74,2.09s.41,2.2,1.74,2.2c1.22,0,1.83-.98,1.83-2.03Zm3.7-3.58h2.04v1.37h.03c.41-.92,1.42-1.56,2.49-1.56.17,0,.32.03.47.07v1.88c-.2-.04-.51-.07-.77-.07-1.59,0-2.11,1.05-2.11,2.36v3.31h-2.14v-7.35Zm5.78,2.26c.12-1.87,1.92-2.46,3.67-2.46,1.55,0,3.43.33,3.43,2.09v3.82c0,.67.08,1.34.27,1.63h-2.17c-.08-.23-.14-.47-.15-.71-.68.67-1.66.91-2.63.91-1.5,0-2.66-.7-2.66-2.2.03-3.34,5.28-1.55,5.19-3.2,0-.85-.63-1-1.39-1-.83,0-1.34.31-1.42,1.11h-2.14Zm4.95,1.49c-.36.3-1.12.31-1.78.43-.66.11-1.27.34-1.27,1.08s.62.94,1.31.94c1.68,0,1.74-1.23,1.74-1.69v-.75Zm6.45-3.75h1.57v1.35h-1.57v3.64c0,.68.18.85.9.85.24,0,.47-.01.67-.06v1.58c-.36.06-.83.07-1.25.07-1.33,0-2.46-.27-2.46-1.75v-4.34h-1.3v-1.35h1.3v-2.2h2.14v2.2Zm4.89-1.14h-2.14v-1.66h2.14v1.66Zm-2.14,1.14h2.14v7.35h-2.14v-7.35Zm7.51-.2c2.46,0,4.05,1.54,4.05,3.88s-1.59,3.87-4.05,3.87-4.03-1.54-4.03-3.87,1.58-3.88,4.03-3.88Zm0,6.23c1.46,0,1.9-1.17,1.9-2.35s-.44-2.36-1.9-2.36-1.89,1.18-1.89,2.36.44,2.35,1.89,2.35Zm5.36-6.03h2.04v1.02h.05c.54-.84,1.48-1.22,2.38-1.22,2.28,0,2.85,1.21,2.85,3.03v4.52h-2.14v-4.15c0-1.21-.36-1.81-1.37-1.81-1.16,0-1.66.61-1.66,2.11v3.85h-2.14v-7.35Zm13.07-2.8h2.37v10.15h-2.37v-10.15Zm4.15,2.8h2.04v1.02h.05c.54-.84,1.48-1.22,2.38-1.22,2.28,0,2.85,1.21,2.85,3.03v4.52h-2.14v-4.15c0-1.21-.36-1.81-1.37-1.81-1.16,0-1.66.61-1.66,2.11v3.85h-2.14v-7.35Zm10.54,4.96c0,.87.81,1.23,1.65,1.23.6,0,1.4-.23,1.4-.94,0-.61-.91-.84-2.43-1.14-1.25-.27-2.47-.65-2.47-1.96,0-1.88,1.72-2.36,3.4-2.36s3.28.54,3.44,2.35h-2.04c-.06-.78-.7-1-1.46-1-.48,0-1.19.07-1.19.68,0,.72,1.22.82,2.43,1.1,1.25.27,2.48.7,2.48,2.06,0,1.93-1.8,2.56-3.56,2.56s-3.59-.64-3.67-2.59h2.04Zm9.13-4.96h1.57v1.35h-1.57v3.64c0,.68.18.85.91.85.24,0,.47-.01.66-.06v1.58c-.36.06-.83.07-1.25.07-1.33,0-2.46-.27-2.46-1.75v-4.34h-1.3v-1.35h1.3v-2.2h2.14v2.2Zm4.89-1.14h-2.14v-1.66h2.14v1.66Zm-2.14,1.14h2.14v7.35h-2.14v-7.35Zm6.46,0h1.57v1.35h-1.57v3.64c0,.68.18.85.91.85.24,0,.47-.01.66-.06v1.58c-.36.06-.83.07-1.25.07-1.33,0-2.46-.27-2.46-1.75v-4.34h-1.3v-1.35h1.3v-2.2h2.14v2.2Zm9.9,7.35h-2.04v-1.02h-.04c-.54.84-1.48,1.22-2.39,1.22-2.28,0-2.85-1.21-2.85-3.03v-4.52h2.14v4.15c0,1.21.36,1.81,1.37,1.81,1.16,0,1.66-.61,1.66-2.1v-3.85h2.14v7.35Zm4.29-7.35h1.57v1.35h-1.57v3.64c0,.68.18.85.91.85.24,0,.47-.01.66-.06v1.58c-.36.06-.83.07-1.25.07-1.33,0-2.46-.27-2.46-1.75v-4.34h-1.3v-1.35h1.3v-2.2h2.14v2.2Zm4.24,4.16c.06,1.29.71,1.86,1.92,1.86.86,0,1.55-.5,1.69-.95h1.89c-.6,1.75-1.89,2.47-3.65,2.47-2.46,0-3.98-1.59-3.98-3.87s1.62-3.88,3.98-3.88c2.66,0,3.96,2.11,3.79,4.36h-5.63Zm3.49-1.28c-.2-1.03-.66-1.56-1.7-1.56-1.39,0-1.73.99-1.78,1.56h3.49Zm-98.85,9.71c2.46,0,4.04,1.54,4.04,3.88s-1.58,3.87-4.04,3.87-4.03-1.54-4.03-3.87,1.59-3.88,4.03-3.88Zm0,6.23c1.46,0,1.9-1.17,1.9-2.35s-.44-2.36-1.9-2.36-1.89,1.18-1.89,2.36.44,2.35,1.89,2.35Zm5.75-4.68h-1.28v-1.35h1.28v-.57c0-1.31.86-2.23,2.61-2.23.38,0,.77.04,1.13.06v1.51c-.26-.03-.53-.04-.78-.04-.59,0-.82.23-.82.84v.44h1.48v1.35h-1.48v6h-2.14v-6Zm11.62-4.15h2.43l4.03,10.15h-2.46l-.81-2.26h-4.03l-.85,2.26h-2.4l4.09-10.15Zm-.23,6.23h2.79l-1.36-3.72h-.03l-1.4,3.72Zm14.52,3.92h-2.04v-1.03h-.05c-.54.84-1.48,1.22-2.38,1.22-2.28,0-2.85-1.21-2.85-3.03v-4.52h2.14v4.15c0,1.21.36,1.81,1.37,1.81,1.16,0,1.66-.61,1.66-2.11v-3.85h2.14v7.35Zm3.27-2.39c0,.87.81,1.24,1.64,1.24.6,0,1.4-.23,1.4-.94,0-.61-.91-.84-2.43-1.14-1.25-.27-2.48-.65-2.48-1.96,0-1.88,1.72-2.36,3.4-2.36s3.28.54,3.44,2.35h-2.04c-.06-.78-.7-1-1.46-1-.48,0-1.19.07-1.19.68,0,.72,1.22.82,2.43,1.09,1.25.27,2.48.7,2.48,2.06,0,1.93-1.8,2.56-3.56,2.56s-3.59-.64-3.67-2.59h2.04Zm9.13-4.96h1.57v1.35h-1.57v3.64c0,.68.18.85.91.85.24,0,.47-.01.66-.06v1.58c-.36.05-.83.07-1.25.07-1.33,0-2.46-.27-2.46-1.75v-4.34h-1.3v-1.35h1.3v-2.2h2.14v2.2Zm2.69,0h2.04v1.37h.03c.41-.92,1.42-1.56,2.49-1.56.17,0,.32.03.47.07v1.88c-.2-.04-.51-.07-.77-.07-1.59,0-2.12,1.05-2.12,2.36v3.31h-2.14v-7.35Zm5.79,2.26c.12-1.88,1.92-2.46,3.67-2.46,1.55,0,3.43.33,3.43,2.09v3.82c0,.67.08,1.34.27,1.64h-2.17c-.07-.23-.13-.47-.15-.71-.68.67-1.66.91-2.63.91-1.49,0-2.66-.7-2.66-2.2.03-3.34,5.28-1.55,5.19-3.2,0-.85-.63-1-1.39-1-.83,0-1.34.31-1.42,1.11h-2.14Zm4.95,1.49c-.36.3-1.12.31-1.78.43-.66.11-1.27.34-1.27,1.08s.62.94,1.31.94c1.68,0,1.74-1.24,1.74-1.69v-.75Zm3.8-6.55h2.14v10.15h-2.14v-10.15Zm5.95,1.66h-2.14v-1.66h2.14v1.66Zm-2.14,1.14h2.14v7.35h-2.14v-7.35Zm3.67,2.26c.12-1.88,1.92-2.46,3.67-2.46,1.55,0,3.43.33,3.43,2.09v3.82c0,.67.07,1.34.27,1.64h-2.17c-.08-.23-.13-.47-.15-.71-.68.67-1.66.91-2.63.91-1.49,0-2.66-.7-2.66-2.2.03-3.34,5.29-1.55,5.19-3.2,0-.85-.63-1-1.39-1-.83,0-1.34.31-1.42,1.11h-2.14Zm4.95,1.49c-.36.3-1.12.31-1.78.43-.67.11-1.27.34-1.27,1.08s.62.94,1.31.94c1.68,0,1.73-1.24,1.73-1.69v-.75Zm-25.11-46.11c.12.28.19.53.42.82.23.27.45.43.9.78l17.34,13.59c.27.16.33.16.37.15.02,0,.03,0,.06.01.16.02.36.02.63.02.5,0,1.2-.02,1.87-.1.68-.11,1.25-.14,1.8-.55l.06-.06,1.23-1.66.1-.13,9.25-12.33c.33-.45.54-.91.54-1.43.01-.49-.25-.99-.65-1.26-.4-.28-.87-.38-1.39-.39-.04,0-.07,0-.08,0l-29.2.6c-.07,0-.22,0-.43,0-.39,0-.96.02-1.5.13-.27.06-.54.13-.81.3-.26.15-.59.52-.59.99,0,.08,0,.12.01.13l-.03.2.07.18Zm31.39-.31s.05,0,.05,0c.73.09.64.13.71.49,0,.08,0,.18-.03.29l-8.53,11.51-.7.94c-.32.43-.81.65-1.31.65-.35,0-.69-.11-.99-.33l-16.78-12.73,27.57-.82Zm49.23-29.37c-.14-7.27-3.64-14.93-10.24-22.79-5.62-6.7-13.34-13.31-22.35-19.18-3.16-2.06-8.79-5.73-12.45-7.62L113.21.89c-.42-.49-.88-.87-1.54-.89-.34,0-.65.15-.88.37-.99.01-1.56.99-1.58,1.86l-1.73,19.85-5.58-1.18-.44-2.29c-.34-1.64-1.81-2.84-3.47-2.86-.04,0-.1,0-.2,0h-.18c-.12,0-.24-.02-.37-.02-.05,0-.11,0-.19,0l-23.84,1.23h-.1s-.02,0-.02,0l-.51.02c-.71.04-1.47.23-2.22.51-.29.11-.58.23-.87.37-.07.03-.12.07-.19.1l-1.77-.08c-3-.14-5.24-.06-7.42-.06-3.97,0-8.21.37-12.4,1.06C21.61,23.19,5.79,34,1.17,49.21c-.78,2.6-1.17,5.29-1.17,8.02,0,10.42,5.58,21.43,15.85,31.27,5.07,4.86,11.56,10.6,20.86,15.99l.23.14.39.23c.3.17.62.33.92.5l1.66,2.29c.15.21.33.38.52.54l-.13-.07c.62.79,1.83,1.37,2.77,1.37h.01c.6,0,1.22-.18,1.75-.54l.18-.12c.06.03.12.06.18.09l.3.13.23.11c9.82,4.52,18.41,7.13,31.49,9.89.05,0,4.91,1.03,10.57,1.55,5.65.53,10.5.14,10.5.14-5.33-.64-15.18-3.05-15.18-3.05-13.61-3.24-24.84-6.97-34.35-11.38l4.17-2.82,12.03-7.12c.97-.59,3.28-1.55,4.41-1.58l22.37-.5s.06,0,.08,0c1-.03,2.52.75,3.05,1.55l5.48,7.78c.96,1.31,2.72,2.21,4.34,2.24h.01l28.27-.28,3.3.11c1.25.45,2.52.89,3.82,1.28,4.73,1.42,8.89,2.46,13.34,2.46.13,0,.26,0,.39,0,.77.05,1.52.08,2.25.08,6.95,0,12.55-2.29,16.2-4.86,8.52-5.99,13.02-13.31,13.01-21.56,0-.14,0-.29,0-.42ZM107.12,26.22l-.65,7.45-.95-.86c-.83-.71-1.83-2.46-2.02-3.53l-.82-4.26,4.43,1.19ZM20.56,86.98c-9.86-9.44-15.01-19.8-15.01-29.28,0-2.47.35-4.89,1.05-7.23,4.11-13.76,18.38-24.62,43.98-28.17,2.25-.31,5.71-.5,7.08-.5,2.41,0,3.59-.09,6.93-.06L12.95,66.11c-.64.61-1.12,1.42-1.18,2.3,0,.03,0,.09.01.18.1.56.39.91.65,1.34.27.39.52.72.53.72l18.75,25.73c-3.73-2.71-7.3-5.72-11.15-9.41Zm21.1,20.25s-.03-.04-.04-.06c.19.1.38.18.57.28-.19-.05-.36-.12-.53-.22Zm59.93-5.02h0s.6-.45.6-.45l-.6.45Zm38.17-.03c-.08.11-.19.23-.32.35-5.18-2.08-12.54-5.84-17.47-8.91-.9-.62-1.79-1.24-2.66-1.86-.9-.64-1.79-1.28-2.64-1.91-4.81-3.85-5.95-4.83-5.95-4.83h-6.1l1.54,1.7s.69.97,3.92,3.62c4.07,3.34,11.79,8.66,22,13.12l-26.03-.46c-1.02,0-2.68-.87-3.26-1.7l-5.48-7.31c-1-1.28-2.79-2.16-4.41-2.19,0,0,0,0,0,0,0,0-.03,0-.07,0l-23.06.26c-1.53.03-3.52.66-4.8,1.5l-12.81,8.65-5.34,3.16c-3.5-1.7-6.72-3.48-9.82-5.42l-.13-.08-.58-.37c-7.94-11.46-20.65-29.83-20.99-30.39-.3-.47-.42-.76-.4-.83,0-.05.02-.25.58-.71.85-.71,54.75-47.69,54.76-47.7.23-.2.59-.43.99-.64.2-.11.4-.2.6-.29.49-.21,1-.38,1.46-.47l24.28-1.21c.76.13,1.41.79,1.49,1.56l.35,3.27.02.12.88,8.22c.2,1.58,1.18,3.37,2.41,4.38l1.87,1.49c.69.53,1.57.95,2.48.97.03,0,.06,0,.1,0,.31,0,.66-.12.95-.34.56-.1.93-.44,1.22-.81.33-.44.56-.98.6-1.59l.56-10.1.02-.25,1.21-21.89,27.22,32.21-.02.03c.22.27.48.55.76.85l1.21,1.43,24.18,28.61c.11.33.18.77.18,1.21,0,.65-.16,1.31-.47,1.72l-24.99,33.8Zm28.14-.22c-2.94,2.09-8,3.4-14.14,3.5-3.66-.26-7.56-.67-11.41-1.89.06-.07.13-.13.18-.21l24-34.53c.45-.65.65-1.43.65-2.2,0-.9-.28-1.81-.87-2.52l-18.35-21.85c.13.09.27.18.44.29,19.56,12.71,31.18,27.77,31.35,39.71,0,.12,0,.25,0,.37,0,7.23-3.87,13.67-11.85,19.31Z"/></g></svg>