<svg xmlns="http://www.w3.org/2000/svg" xml:space="preserve" viewBox="0 0 295.732 131.098"><style>.st0{fill-rule:evenodd;clip-rule:evenodd;fill:#231f20}</style><title>Department of Education Logo</title><path d="M82.404 16.384v-.353c.968-.666.715 1.063 0 .353m-9.339 13.742c.083.552-.376.56-.884.53-.007-.53.521-.896.884-.53m-10.396.707c-.525-.002-1.078.012-1.058-.533.463-.184 1.151-.279 1.058.533m3.171-.707c-.022.315.218.376.179.707-.251.226-.948-.094-1.058-.533.419.073.383-.314.879-.174m3.878.531c-.285.285-1.108.207-1.058-.356.418-.122 1.115-.402 1.058.356m7.046-.357c-.015.45-.253.685-.702.708-.118-.179-.406-.179-.354-.528.211-.205.619-.2 1.056-.18m-.877 2.293c.638.121.651.874.703 1.587-1.216-.363-2.102.742-2.466-.705.565.159.553-.273.707-.53.53-.01.681.374 1.056.53.514-.153-.231-.442 0-.882m-8.286.352c.41.179.573.609.533 1.235-1.02-.116-1.272-.116-2.294 0-.155-.309-.489-.449-.354-1.056.254.271 2.218.87 2.115-.179m19.033 58.68c-4.809 1.886-8.313 5.077-14.453 5.637 2.495-1.975 5.36-3.571 7.757-5.637z" class="st0"/><path d="M91.217 19.728c-.811.4.523 1.074.353 1.94-.514.044-.538-.401-1.064-.356-.272-.821.157-.582.182-1.408-1.138-.268-2.043-.776-1.938-2.289-1.359.346-1.312 2.098-2.115 3.001 1.432-.912 3.672.386 4.23 1.933 1.761-.046 2.118.833 3.697.177-.536 1.639-.953 3.395-2.115 4.409-.12.88.3 1.223.179 2.11-.363-.044-.353-.469-.528-.7-.538.283.584.845 0 1.226-.572-.135-.423-.99-.707-1.407-.492.508.435 1.085.179 1.938-.697-.653-.762-1.945-.705-3.345-.956.177.376 1.761-.707 1.587-.121-.713.172-1.009.174-1.587-.923-.165-.258 1.265-.703 1.587-.592-2.112-.953-4.449-1.935-6.173-.96-.019-1.558.329-1.413 1.41-2.54 1.747-3.835 4.739-5.635 7.227 1.675.432 2.891 2.96 1.235 4.23-5.117.499-8.533-.243-13.046.347-2.255-.002-4.822-.579-7.575-.347-2.432.197-4.292.374-4.583-1.589-.211-1.457.719-1.921 1.587-2.641-1.744-2.542-3.119-5.456-5.465-7.401.536-1.776-1.574-2.591-2.113-1.236.351 2.078-.013 4.743-1.935 5.112-.211 1.144-.395 2.306-1.235 2.818.071-.987.938-1.172.702-2.471-.998-.29-.575.833-1.056 1.066-.526-.121.167-.381 0-.708-.44-.029-.432.393-.707.53.422-1.727-1.284-3.866-1.761-5.814.737-.189 1.194.368 1.582 0 .391-.02.079-.751.179-1.059.285-.25.914-.145 1.061-.533.455.152-.342.776.175 1.059 1.284-1.079 2.99-3.415 5.107-1.582-.708-1.226-1.707-2.167-2.113-3.7-.26 1.678-1.483 2.388-1.935 3.874-.602-.44.479-.676.179-1.408-.444.805-1.047.353-1.059 1.582-.238-.052-.153-.44-.179-.703-.231.359-.191.983-1.056.703.81-1.911-1.273-3.383-1.589-5.284.98-.152 1 .644 1.763.703.53-.523.754-1.354 1.061-2.112 2.715-.993 3.453 1.302 4.048 2.992.41-.354.066-1.459.182-2.11-.403-.309-.639-.772-1.061-1.061-.388-2.549-2.663-3.205-3.348-5.466 2.329-1.117 3.819 1.412 3.704 3.884q.234.467.705.703c.403.057.196-.508.525-.526-.101-.659-.415-1.12-.707-1.59.519-2.984-1.548-3.378-2.112-5.286 1.015-.081 1.845.12 2.294.705.825 1.091.164 3.228 1.23 3.881.366-.106-.251-.671-.179-1.059 1.12-1.889-.501-3.275-.702-4.935 2.53-.147 1.602 2.726 1.94 4.405 1.57-1.28.579-3.768-.179-5.109 2.009-.756 1.795 2.527 1.763 3.874 1.768-.617.317-2.717.882-4.227 1.678.26.987 1.736.88 3.169 1.363-.047 1.004-1.813 1.059-3.169 2.027-.035.211 1.951.703 2.82 1.152-.317.594-2.348 2.113-2.292.452.857-.538 1.187-.703 1.936.236.585 1.344.304 1.228 1.235-1.102.589-1.765.282-2.991.528-10.15 2.073-5.235 17.98.179 22.024.835-2.559-1.449-4.837-2.29-6.866-1.027.118-1.407.111-2.118-.356.159-1.277-.153-2.076-.703-2.645-.363-3.269 1.471-5.003 2.992-6.868 1.936-.371 2.761-1.004 4.76-1.058 1.57.845 3.938.882 5.116 2.113.715-.457 1.154-1.191 1.233-2.292-.423-.401-.648.39-1.412.179V9.51c.737-.152.833.342 1.412.349.121-.889-.486-1.039-.531-1.757h3.348c.1.624-.201.85-.353 1.231.405.492.933-.238 1.407.177-.223.717-.086 1.786-.347 2.468-.737.148-.833-.347-1.408-.356-.428 1.093.678 1.815 1.052 2.643 2.093-1.189 4.527-2.183 7.578-1.931 2 .464 3.178 1.754 4.76 2.64.641 2.668 1.036 5.023 0 7.575-.589.056-.783.514-1.589.356-1.145 2.144-3.323 4.193-2.82 7.398 4.087-3.964 9.206-14.858 3.702-20.621-1.631-1.709-4.451-1.776-7.047-2.815.138-.567.904-.501 1.235-.882.015-.815-.933-1.606-.177-2.112 1.344.061.201 2.619 1.589 2.638.96-.487-1.022-2.79.875-2.815.395.961-.034 2.742.884 3.171 1.38-.471-.57-2.388.351-3.527.499-.143.455.251.882.18-.18 1.629-.734 3.343.526 4.227.427-1.386-.216-3.857 1.941-3.525.179 1.41-.803 1.671-1.059 2.645.373.862.326 2.144 1.238 2.468 0-1.579-.487-4.223 1.933-4.232-.118 1.462-1.682 3.802-1.052 5.994 1.015-.04.56-1.01.698-1.585.538-2.127 1.506-4.379 3.702-3.527-1.191 1.805-3.021 2.974-2.994 5.994-.553.098-.636.656-.708 1.231a.94.94 0 0 0 .535.531c.977-2.096 2.299-5.664 5.288-4.586-1.653 1.579-3.871 2.601-4.055 5.642-.611.039-.579.713-1.059.884v1.935c1.022-1.356 2.159-4.522 4.756-2.641.277.546.528 1.122.882 1.582.474-.115.934-.769 1.408-.349-.595 1.322-.585 4.056-2.112 3.874-.073.428.322.381.179.882-.428-.162-.471-.71-.534-1.236m-8.46-2.292c-.074.784.101 1.317.879 1.238 1.282-.481.045-2.406-.879-1.238M68.66 8.451c-.425 1.444 2.188 1.444 1.766 0-.816-.063-1.019-.218-1.766 0m1.766 2.466c.314.159.447.494 1.052.353.089-.398.349-.899 0-1.233-.677-.035-1.011.281-1.052.88m-2.999.352h.884v-.875c-.609-.628-1.509.275-.884.875m1.584 0c.659.069 1.041-.137 1.058-.7-.137-.04-.201-.152-.174-.354h-.884c-.157.513-.157.541 0 1.054m0 1.235c1.154.233 1.329-.988.179-.882-.147.202-.23.472-.179.882M58.97 13.74c.444 1.246 2.403.513 1.587-.88-.807-.444-1.556.03-1.587.88m2.289 0c.543.565 1.79.447 1.763-.531-.219-.074-.358-.233-.353-.526-.921-.093-1.568.075-1.41 1.057m15.686.703c2.317-2.592-2.891-1.297 0 0m2.815-.352c.204-1.39-.754-1.587-1.584-1.056-.415 1.341.973 1.793 1.584 1.056m-11.801-.174v.703c1.203-.032.934.622 1.584.879.233-.471.332-1.079 1.233-.879.364-1.245-1.321-.444-1.058-1.585h-.707c.265.909-.611.678-1.052.882m-4.585 0c.519-.336 1.159-.02.705.526q.669-.034.707-.703c-.142-.04-.207-.152-.177-.354-.563.02-1.346-.172-1.235.531m10.575.879c.304-.01.447.135.525.351.83-.094 1.317-.921.88-1.761-1.119-.187-1.592.28-1.405 1.41m-15.154-.879c-.506-.275-1.162-.491-1.763-.177.02.506-.098 1.152.17 1.407 1.052.106 1.672-.211 1.593-1.23m21.317.174c-.116.761.307.985.533 1.408.464.207 1.036-.339 1.056 0-.086.675.046 1.128.349 1.41h1.059c.39-.241.518-1.334.179-1.763-.624-.319-1.1.243-1.408 0 .071-.604-.073-.987-.179-1.407-.609-.313-1.317-.154-1.589.352m-14.975.705c.275.273 1.027-.3 1.23.351.204-.202.204-.617.179-1.056-.645-.332-1.409-.101-1.409.705m7.222.703c.445-.688.604-.105.179.353.776.126.916-.381 1.059-.879-.132-.454-.567-.612-1.238-.53-.138.122-.388.984 0 1.056m-14.623.353c-1.091 1.157-2.209 5.338.179 5.993.288-1.23-.472-2.316-.179-3.52.813-3.321 6.389-2.822 8.809-1.236-1.133-2.856-6.387-2.929-8.809-1.237m14.623 1.236c2.462.125 6.718-2.997 8.286 0 .636 1.211-.28 3.373 1.235 4.048 2.716-6.045-6.711-8.195-9.521-4.048m-16.74-.533c1.019.611 2.014-.388 1.413-1.408-1.059-.651-2.057.352-1.413 1.408m-7.224.354c-.315-.155-.288-.651-.703-.703-.204.756-.724 1.032-1.587.703-.032 1.973 2.4 2.412 3.702 1.238-.083-.973-.159-1.962-.877-2.296-.086.454-.251.812-.535 1.058m19.564 4.402c.533-.498 1.203.073 1.936-.349.037-.329-.199-.386-.177-.703-.624-.454-.965.356-1.407 0 .196-1.44-.118-3.557-1.059-4.407h-.353c.307 1.863.778 3.565 1.06 5.459m.701-4.402c.214-.492.103-1.123-.702-1.058.149.434.156 1.016.702 1.058m1.409 0c.739.093.698-.594.88-1.058-.7-.057-.951.34-.88 1.058m.357 4.227a51 51 0 0 0 1.587-5.284c-1.445.627-2.179 3.798-1.587 5.284m20.079-4.227c-.251-.334-.385-.783-1.051-.703-.083 1.165-.379 2.161.351 2.817h2.292c.528-.353.447-1.309.708-1.935-.433-.449-.379.368-1.058.177-.189-.408-.115-1.066-.358-1.413-.727-.086-.275 1.015-.884 1.057M59.144 17.97c2.847-.236 4.107 1.005 7.401.354-1.466-1.713-6.019-2.884-7.401-.354m12.869.354c3.26.602 5.385-.302 8.099-.354-1.622-2.904-5.857-.327-8.099.354m-17.099 2.109h1.059c.105-1.351-.152-1.791.353-3.168-.373-.54-1.358-.388-1.761 0-.197.842.432.855.528 1.408-.241.408-.707.582-.528 1.407.349.042.712-.786 1.054-.177.056.471-.987-.16-.705.53m13.746-2.109c.292-.025 1.122.567 1.058-.177-.1-.372-1.14-.224-1.058.177m1.058 1.23c.081-.552-.376-.565-.884-.531-.189.713.54.873.884.531m13.392 1.235c.717-.101 1.189-.454 1.238-1.235-.771-1.053-2.336.415-1.238 1.235m-7.926-.709c-.87.371-.406 2.069-1.059 2.645-.541-.165-.712-.7-1.587-.528-.644.552-.73 2.107.179 2.469.258-1.479 4.605-1.69 4.404.349 1.02-.079.963-1.413.7-2.29-.638-.552-1.395.369-1.757 0 .255-.985.316-2.611-.88-2.645m-12.162 2.824h-1.589c-.396.589-.45 1.548.179 1.94.953-1.058 3.986-1.845 4.933-.354.533-.553.46-1.935-.179-2.292-.781-.135-1.167.121-1.58.351.059-3-3.029-2.349-1.764.355m-7.049-.356c.789.027.789-.848.528-1.412-1.388-.521-1.649 1.412-.528 1.412m26.432-.527c.639-.46.791.349 1.231 0 .15-.499-.246-.46-.174-.885-.788-.135-1.127.169-1.057.885m4.056-.177h.879c.055-.828-.815-.475-.879 0m-17.801-.177c.153.963.609 1.621.707 2.64 1.118-.261.329-1.759 1.059-2.64-.567-.033-1.299-.411-1.766 0m12.159 1.584c.651-.103.724-.798.882-1.407-.44.025-.546-.277-.882-.356-.27.324-.27 1.443 0 1.763m-32.948 0c-.312-.15-.518-.427-.884-.526-.243.228-.177.767-.177 1.238h-1.059c.337.717.337 1.776.885 2.289.911-.15 1.884-.236 2.99-.18.605-.631.553-1.914.533-3.167-.558-.083-.403.535-1.056.347.007-.531.1-1.157-.535-1.054-.104.478-.343.824-.697 1.053m9.865-.703c-.067.833.015 1.513.88 1.415.654-.115.536-.993.528-1.766-.737-.149-.831.344-1.408.351m20.794 2.118c.823.062 1.204-.322 1.582-.703.047-.987-.486-1.395-1.233-1.592-.178.705-.256 1.502-.349 2.295m10.572-1.415c.105 1.007.093 2.139.353 3.001 1.528.13 4.933-.204 3.878-2.645-.354.231-.619.56-1.059.7 0-.464.066-.998-.175-1.23-.764-.056-.435.97-1.233.885-.322-.501-.241-1.408-.882-1.592-.202.389-.145 1.569-.882.881m-18.676.886c.412-.008.518.3 1.052.17.116-.396.349-1.061 0-1.403-.728.032-1.189.332-1.052 1.233m-2.825.17c1.579.445 1.484-1.424.179-1.23-.241.231-.174.766-.179 1.23m-8.103 0c-.005.69.977 1.017 1.41.708-.172-.651-.238-1.413-.705-1.764-.128.462-.634.54-.705 1.056m3.876.536c.236.236 1.23.332 1.235-.177-.319-.329-.99-.094-1.235.177m-1.941 1.935c-.825-.29-1.393-.83-2.11-1.236-.44 1.526 1.327 2.289 3.346 1.941 1.294-2.785 4.844.548 6.165-2.115 1.172.444 3.903 1.911 5.466.351.415.059.665.278 1.23.177 1.058 2.975 4.809 1.336 4.938-1.407-1.329.435-1.036 2.486-3.348 1.941-.604-.285-.719-1.047-1.412-1.238-1.756-.132-2.812 1.02-4.23.703-.862-.189-1.196-1.69-2.468-1.23-1.421 2.715-5.533-.193-7.577 2.113m9.695 1.229c-.781.204-3.026.482-3.527-.177-.299-.568.845-.842 0-.874-.98.457-1.833-.277-2.64-.526-.508.762-1.471 0-1.587 1.052.938.229.902-.511 1.763-.349.074.329.501.315.349.874-.263.658-1.41.83-2.112.536-.162-.519-.162-.55 0-1.061-.666.627-1.751.84-3.171.705-.138 1.248 1.208 1.037 1.759 1.056 1.336.059 3.579-.288 5.465-.347 1.887-.069 3.835-.121 5.463-.179 2.009-.078 5.026 1.004 5.819-.53-1.515.159-2.125-.58-3.001-1.054.162.513.162.538 0 1.054-.644.278-1.843.258-2.112-.358 0-.46-.106-1.032.353-1.052.934-.231.894.513 1.759.356-.767-1.803-2.71-.047-4.051-.177-1.317-.137-2.478-1.805-3.346-.179 1.01.869 2.68-.974 2.817 1.23m-.702 1.942c-.413.005-.519-.304-1.059-.179-.013-.103-.025-.202-.177-.17-2.579 1.251-8.187-1.177-9.341 1.233 2.474.805 6.224.543 8.811.175 2.935.326 7.377.702 10.049-.351-.553-1.847-6.709-.919-8.283-.708m-5.817 2.118c-.123 2.635 2.786 3.427 4.758 2.464-.516-.955-.901-2.036-1.766-2.643-1.373.41-2.122-.426-2.992.179m13.211 2.638c-.111-1.235-.843-1.849-1.407-2.638-1.331.096-2.356-.12-3.523-.179.068 2.755 2.766 3.045 4.93 2.817m-20.26-1.582c.209.086.4.187.533.353.506-.531 2.058-.577 1.756.703-.771-.909-1.054-.079-2.113 0 .45.961 1.864.644 2.995.703-.206-1.137-.735-1.967-1.233-2.815-1.01-.013-1.656.336-1.938 1.056m5.462 1.056c-.047-1.007-.415-1.703-1.231-1.938.19.868.578 1.538 1.231 1.938m16.917.352c-.125-1.113-.487-1.977-1.408-2.29.158 1.071.487 1.98 1.408 2.29" class="st0"/><path d="M106.547 21.489c1.228-.941 1.26-3.08 2.817-3.7 1.655 1.682.363 4.292.179 6.519-.073.906.071 1.852 0 2.827-.169 2.346-1.192 4.281-1.061 6.694.15 2.619 1.277 5.215 1.061 7.924-.094 1.137-.469 2.129-.351 3.174.187 1.722 1.316 3.97 1.94 6.168a104 104 0 0 0 1.936 6.166c.848 2.424 2.538 4.441 2.643 8.106.113 4.08-.342 8.924-.354 13.744-.007 3.959-.17 10.707 1.589 12.866 3.21 3.94 12.127 1.378 16.738 3.345.288.767.762 1.349.88 2.292-4.625 1.558-9.686 1.307-14.625 1.761-2.339.223-4.658.845-7.05 1.064-3.906.341-7.926.039-11.978.347-5.954.447-13.539 1.022-19.739.705-1.68-.086-3.38.278-4.93.175-2.935-.191-5.512-.86-8.283-.523-5.568.665-12.677.965-18.683.7-4.282-.189-8.55-.035-12.508-.353-2.484-.196-4.578-.486-7.58-.705-4.368-.309-9.083-2.139-14.271-1.764-3.535.258-8.005.712-11.101-.88.526-3.618 6.639-2.655 10.572-2.995 3.832-.332 6.809-1.091 8.462-3.169 1.147-6.885 1.27-14.149.698-20.44-.466-5.17.513-9.406 1.768-13.041.541-1.579.626-3.309 1.054-4.583.452-1.332 1.391-2.42 1.759-3.7.229-.762.12-1.704.359-2.462.28-.928 1.069-1.7 1.231-2.648.28-1.665-.368-3.974-.179-6.165.165-1.924.781-3.714.702-5.289-.12-2.545-.872-5.2-1.054-7.576-.059-.784.113-1.601 0-2.29-.292-1.806-1.842-3.628-.349-5.812 1.97.253 2.464 1.994 3.174 3.52 1.65-.575 1.533-2.921 2.813-3.876 1.671 1.061.941 4.309-.347 5.289.666.563 1.946.513 2.464 1.235.433.305.413 1.058.175 1.582.877.966 2.692 1.449 1.938 3.525-.656.638-1.882.703-2.818 1.056.024 3.156 1.928 4.417 3.35 6.171 1.221-2.543 4.35-3.589 7.399-4.935 1.96-.865 4.389-2.331 6.165-1.236-.778 1.501-2.908 2.422-4.933 3.7-2.468 1.564-6.038 2.776-4.23 6.515 2.493.523 3.618-1.752 4.942-2.99 1.552-.354 3.169.336 4.045 1.587 11.486 0 22.002.015 33.306 0 .599-.632 1.331-1.138 2.118-1.587 2.171.172 3.812.718 4.579 2.643.781-.135 1.058.236 1.763.177 3.184-5.505-7.021-6.827-9.165-9.69.914-1.865 3.955-.467 5.994.353 3.375 1.348 6.47 2.685 7.576 5.816 1.849-1.51 3.83-3.793 3.878-6.524-1.02-1.032-3.007-.41-3.528-1.582-.781-1.8 3.178-1.779 2.115-4.411.646-.353 1.398-.602 1.941-1.056-.55-1.796-1.326-4.836.353-5.986 1.371.911 1.285 3.288 2.641 4.222m-2.11-2.288c-.067-.526-.106-1.076-.533-1.231-.04.623.118 1.052.533 1.231m-75.426 2.11c.715.013.32-1.091 1.058-1.052.444.617.312 1.803 1.235 1.938-.39-1.488-.668-3.088-2.115-3.522-.215.666-.625 1.873-.178 2.636m4.407.534c.599-.869 1.152-1.79 1.408-2.997-.04-.135-.145-.206-.347-.174-.186 1.223-1.034 1.788-1.061 3.171m73.655.351h.882c0-.462-.096-1.036.353-1.059.766-.251.81.602 1.235.174.118-1.032.226-1.791-.179-2.636-1.633.3-1.331 2.548-2.291 3.521m-1.762-.707c.206-.218-.228-1.284-.705-1.408.02.69.128 1.282.705 1.408m-.874 1.058c.079-.552-.226-.715-.533-.88-.035.505-.02.964.533.88m4.578 2.118c-.111-.368.283-1.226-.356-1.058-.402.397.126.777.356 1.058m-79.122.526c.204-.121.774-1.246 0-1.228 0 .309-.472 1.024 0 1.228m72.773 1.765c-.105-.317.523-.73 0-.884-.413.7-1.707.531-1.933 1.41.334.368 1.351.052 1.051 1.063-.305.094-1.029-.218-1.051.174 1.111.164 2.076 1.167 3.171.347-.047-.715-.56-.966-.353-1.931a8.1 8.1 0 0 1 2.643-.882c.445-.432-.371-.376-.18-1.061.341-.039.395.197.712.175-1.552-2.122-1.783 2.187-4.06 1.589m-69.422-.884c-.597.067-.32-.742-.885-.705-.272.702.599 1.147.885.705m3.699 1.236c-.563-.083-.624-.675-1.233-.705.051 1.122.359 1.99 1.233 2.292.228-.713.894-.993 1.058-1.761-.243-.304-.756-1.231-1.233-.705.148.108.551.82.175.879m66.782 2.64c.521 5.153-5.05 6.424-5.289 10.568-.084 1.579.54 3.112.71 4.944.988-.123 1.803-.43 2.638-.707.293-.713.31-1.69.712-2.292.433.024.848.025 1.056-.174 1.101-3.449.732-7.634 1.582-10.221-.477 0-.823.74-1.059 0 .332-.955 2.27-3.213.531-3.522.189.945-.584.937-.881 1.404M35.533 29.6h1.056c-.108-.481-.484-.695-1.056-.705zm-3.52.527c.344-.241 1.255.086 1.058-.705-.639.339-.653-.073-1.238-.177-.073.428.322.389.18.882m3.345 7.927c-.373-.685-.531-1.582-1.412-1.761.098 1.906 1.184 2.813 1.412 4.579-1.37-.398-.552 2.678-2.648 2.118-.943 3.781 4.586 2.565 6.878 3.704.052.4-.511.191-.531.525 2.457-.086 5.88.484 7.931.705-.808-.685.857-1.007.353-1.408-.727-.142-.906.266-1.589.179.04-.573-.309-.747-.17-1.415-2.915 1.558-7.612.101-10.754-1.056.108-.368-.213-1.16.179-1.233.386.901 1.198 1.386 2.466 1.41.255-.332.012-1.167.354-1.41.972.552 1.42 1.631 2.466 2.112 1.51-7.212-3.512-9.403-5.112-14.094-.171 2.558.506 4.584.177 7.045m60.967 1.589c1.145-1.395.29-4.54-1.059-4.405 1.231.723 1.389 3.128 1.059 4.405m-53.038 1.934c-1.27-1.626-.508-5.129.175-6.161-1.742 1.047-1.778 4.93-.175 6.161m44.23-1.061c-4.798-.617-11.462-.347-17.976-.347-5.844 0-12.007-.589-16.566 0-1.646.216-3.178 1.322-4.756.347-.671 1.154-.224 3.426-.349 5.119.442.145.816.354 1.061.705-.008 1.418-.206 2.037 0 3.346-.594.172-.864.665-1.238 1.052-.651 8.376-.455 17.939 2.994 23.267 1.498-1.088 3.223-1.948 5.466-2.297.921-3.991 2.631-7.662 3.874-11.447 1.233-3.76 3.415-7.406 2.995-11.634-2.007.103-4.174.138-5.819.179 1.577-.882 2.663-3.237 4.23-4.053 2.112-1.105 3.699.656 4.053 2.289 1.506 6.838-6.21 17.104-4.053 24.139 4.358-.661 5.365-4.874 8.285-7.048a10.3 10.3 0 0 1 3.173-1.582c.391-.256.513-.783 1.059-.882.641.003.374.919 1.235.705.853.032.616-1.029 1.405-1.058.83.626.83 1.263 2.12.705.4.422.565 1.076.698 1.764 1.287-.395 1.258 1.081 1.94 1.757 2.623-.455 3.338 2.228 5.993 2.117.901 2.043-1.471 2.27-1.059 4.402 1.083.626 2.216 1.198 3.174 1.945 2.253-6.354 2.449-15.399 2.643-23.267-1.363-.875-1.854-3.461-1.233-5.279.43.017.848.024 1.056-.18.749-3.664-1.465-5.928-4.405-4.764m16.92 3.885c-2.274 1.327-7.006 2.176-9.696 1.41.216.067.359.226.354.53-.125.347-.988-.042-1.059.354.44-.03.855-.034.879.347-.11.519-1.135.713-.702 1.235 4.191-1.128 9.916.062 13.921-1.058.216-.902.661-2.505.174-3.523.339 2.746-2.727 3.028-5.109 2.466 3.446.091 3.157-4.25 1.585-5.993-.117 1.408-.104 2.953-.347 4.232m-59.563-2.466c.467.713 1.936-.182 1.936-1.063-.7.295-1.602.393-1.936 1.063m48.104-.358c.302.025 1.445.577 1.413-.172-.336-.315-.717-.584-1.413-.533zm4.225 1.766h.885c-.027-.683.137-1.55-.353-1.766-.127.638-.673.857-.532 1.766m-56.031.88c.659.071 1.034-.142 1.061-.707-.56-.206-.379-1.149-1.061-1.23zm4.408-1.232c0 .818.211 1.43 1.056 1.41.148-.44.344-1.371 0-1.766-.661-.188-.507.44-1.056.356m47.579 1.762c.324-.617.697-1.181.7-2.118h-1.052c.183.637-.402 2.046.352 2.118m2.639.707c.921.32 1.523.366 2.468 0 .217-1.904-2.849-2.092-2.468 0m-54.099 0c.533-.061 1.371.196 1.41-.358-.135-.04-.202-.145-.175-.349-.683-.039-1.103.187-1.235.707m20.264 1.056v-.705h-.877c-.127.652.276.775.877.705m-30.304.703c2.031-.197 4.881.422 6.342-.351-2.086-.956-4.524.779-6.342-.707zm5.988 17.446c1.388 5.19-1.004 9.782-1.408 15.149-.307 4.045.223 7.925.179 11.103 1.386.199 3.587-.415 4.402.347-.476.412-2.766-.062-2.648.359 3.606.126 6.679.681 10.224.353-.934-1.427-3.613-1.518-5.816-1.761-1.486-.167-3.058-.137-4.409-.351-1.332-2.469-.1-6.327.179-10.051.162-2.085-.067-4.456.359-6.165.395-1.612 1.437-2.899 1.756-4.228.722-3.019.216-7.079-.877-9.16-.592-.336-.58.796-.879.174.081-1.427.184-3.026.347-4.407.339-2.825 1.67-6.173 0-7.752-1.338 2.697-.799 6.573-3.878 7.752-.398 1.778 2.213 2.474.531 3.881-1.417.007-2.884-1.619-4.051-.707 3.244.163 5.221 2.59 5.989 5.464m3.172-16.389c-.01 3.392-.567 7.613-.707 11.449 1.29 2.594 2.016 4.822 1.764 7.583-.295 3.262-2.52 6.155-2.82 9.165-.437 4.382-.219 8.185-.528 12.508 2.257.624 4.524.958 6.873 1.235 1.265.15 2.638-.175 3.874 0 1.364.192 2.567 1.201 3.876 1.408 2.653.415 5.161-.508 7.757.353 1.311 2.034 3.932 2.758 5.284 4.761-4.114-1.295-7.899-2.911-11.803-4.409-.707-.044-1.074.759-1.94.884-.455.059-1.093-.312-1.587-.356-4.407-.388-11.145-.121-16.037-.528 3.943 2.648 13.382-1.073 14.8 3.876-1.218.853-2.96.103-4.753 0-3.964-.226-8.286-.406-11.279 0-4.718-1.162-9.228.607-13.923 1.058-4.955.484-9.922.155-14.448 0 1.16 1.619 4.272 1.243 6.696 1.056 2.014-.157 4.212-.7 5.989-.177.567.157.369-.457.71-.528 1.312 1.085 3.726.017 5.638.18.492.039.899.454 1.405.525 1.719.234 3.544-.118 5.288 0 1.437.094 2.825.528 4.228.531 3.856.008 7.6-.391 10.751.525.4-.071-.089-1.037.707-.703 1.312-.02 2.135.449 3.346.531 1.182-1.005 3.142-.164 4.932-.18 3.319-.027 7.821-.821 10.756-.351 1.046.167 2.076.993 3.341 1.236 1.803.332 3.894-.506 5.821-.533.518-.003.744.246 1.231.175 1.28-.164 2.508-.739 3.876-.7.13.545-.484.337-.354.877 1.742.007 3.281-1.103 5.111-1.408 2.336-.388 4.842.599 7.403.703 1.931.083 4.564-.516 6.168-.703 2.164-.251 4.08.391 5.809 0 1.779 1.029 3.542-.415 5.468-.349.692-.11.206.966 1.054.702 1.359-.228 2.746-.432 4.056-.702 1.278.951 3.643.329 5.286-.175 2.068.779 4.777.059 7.227 0 2.304-.066 4.787.513 6.34-.708-4.309-.042-8.244.13-12.511 0-3.876-.121-7.671-1.572-11.452-1.408-1.429.059-2.987.299-4.579.353-4.336.16-7.462.391-11.282.884-1.37-.759-3.011.427-3.876-.884 1.719-4.593 10.445-1.263 14.8-3.348-.892-.788-3.301-.466-4.932-.353-4.129.282-9.492 1.467-12.862.18.395-.595 1.145-1.277 1.938-1.592 3.427-1.354 8.332-.415 12.161-1.408 1.191-1.397.671-2.184.526-4.058-.273-3.555-.148-7.855-1.058-10.746-.43-1.358-1.235-2.382-1.587-3.525-.938-3.066-1.336-6.18-.174-9.513.43-1.233 1.326-1.786 1.41-3.173.066-1.157-.599-2.481-.707-3.7-.186-2.147.189-4.333-.703-6.168-1.692-.815-3.918.27-5.286.882-.778 14.235-.928 24.821-7.757 34.362-1.933 2.712-4.26 4.901-7.045 7.575-1.429 1.376-6.48 5.981-8.637 5.993-2.053.012-6.478-4.225-8.103-5.814-9.919-9.69-17.553-21.967-15.154-41.938-1.792-.622-3.055-1.764-5.816-1.412m58.855.351c-.039 4.444.891 7.92 1.763 11.457-.369-.31-.519-.4-1.058-.175-1.297 2.468-2.108 5.503-1.41 8.98.331 1.631 1.452 3.255 1.941 5.117.779 2.98.945 7.804 1.228 10.923.126 1.267.567 2.71.358 3.7-.685 3.179-8.937 1.334-11.105 2.995-.224 1.444 1.486.744 2.29.705 1.402-.067 2.96-.121 3.873-.353.988-1.133 3.81-.427 5.289-1.059.993-4.456-.579-10.179-.526-14.272.342.071.014.806.707.533-2.495-6.048-2.356-14.18 2.11-17.976-.073-1.783.987-2.424.88-4.233-.604-.439-.874.692-1.756.53-1.01-.987.013-3.468.179-4.933-1.138-1.261-2.039-2.72-4.763-1.939m4.932 35.597c.277 3.016.339 6.822.358 9.165-2.5 1.253-7.281.24-10.223 1.058-.066.771.466.938.525 1.584 3.385-.774 8.091-.509 11.461-1.408.098-1.729-.266-3.908.347-5.112.159 1.972.95 4.451 0 6.001 1.179.226 1.467-.423 2.118-.717-.263-.794-.487-2.559-.71-2.817.138 1.678-.548 2.274-.705.353-.204-2.582-.327-3.338-.703-5.642-.189-1.184-.164-2.479-.347-3.695-.43-2.736-2.442-3.91-1.592-6.347.951-.184.907.622 1.413.88.231-1.118.816-1.881 1.408-2.645-.724-.914-.408-2.882-2.289-2.645-.548.678.523.912.347 1.769-.558.145-.545-.282-.88-.356.111.626 1.079 1.771.177 2.292-1.704-2.351-2.888-5.215-2.815-9.342.329-.079 1.059.24.88-.349.251-2.454 1.111-4.292 2.638-5.463-.015-.214-.052-.418-.347-.353-7.027 5.286-1.889 14.603-1.061 23.789M35.71 69.95c.204.359.459-.514.707.175-.148 2.793-1.543 4.331-1.238 7.578-2.436 3.673-2.844 9.373-3.166 15.154.159.599.877 1.494.172 1.936-1.09-.442-.125-2.935-.708-3.876-.317.324-.025 1.263-.526 1.412-.245-1.186.43-2.383 0-3.178-.025 2.145-1.678 5.036-.353 6.359 4.033-.998 9.239-.236 13.923-.364-1.152-1.901-4.67-.774-7.226-1.061-1.817-.202-3.066-1.083-4.051-1.228-.793-1.095.98-1.768 1.235-2.641.192-.692-.067-1.69 0-2.464.236-2.977.725-6.725 1.054-9.874.287-2.734 1.481-5.536 1.763-8.283.39-3.768-1.015-7.173-3.527-8.985 2.159 1.569 3.291 5.884 1.941 9.34m41.761-5.639c.216-.304 1.086-.845.349-1.061-.29.228-1.072.856-.349 1.061m-4.23.176c-3.397.573-5.038 4.217-7.401 5.994 2-.629 2.697-3.35 4.935-3.173-.273-1.096.487-1.157 1.407-1.058-.051-.408-.374-.761.177-.884.771-.123.784.509 1.408.533-.073-1.044.813-.948 1.587-.708-.24-.884.708-.585 1.059-.88-.157.565.275.545.531.703.034-.567-.315-.742-.18-1.403-1.226.555-2.167.646-3.523.876m4.757 1.938c.649.169.702-.864.179-.882-.102.366-.503.57-.179.882m-1.233.352V65.9h-.523c.16.304-.007.945.523.877m-1.581.531c.199-.521.1-.656-.353-.884-.281.267-.261 1.004.353.884m8.806 1.055c-.02-.297.573-1.118-.174-1.054.098.31-.214 1.033.174 1.054m-13.564 1.762c-.177-.413-.059-1.118-.708-1.059.012.577.228.953.708 1.059m5.988.703c-.916.204-2.063 1.823-3.523.88 1.167 1.292 3.453-.101 4.93.353.073-1.275 2.852.148 2.999-1.056-1.618.043-3.104-.457-4.406-.177m3.525 1.586c.322.442.599.934 1.059 1.236.447-.024.676-.255.703-.705-.135-.594-1.138-.976-1.762-.531m-15.33 1.592c-2.464.196-4.728-.931-7.576-.708 4.524 2.879 10.835-.113 15.858.531-2.669-1.709-5.393-.057-8.282.177m22.377-.533c-.614-.03-1.535-.683-2.11-.175.575.077 1.519.7 2.11.175m-9.865 1.061c2.014 1.025 5.773-.341 7.575-1.236-2.622.317-4.605 1.263-7.575 1.236m-45.818 1.584c.499-.152.805-.493.882-1.059-1.383.329-1.036-1.076-2.466-.705.328.791.948 1.283 1.584 1.764m81.412 15.859c2.378 5.046 9.914 4.777 16.738 4.937 1.444.027 3.2.11 4.053-.884-5.529-.88-13.292.412-16.561-1.945-3.648-2.613-2.705-8.374-3.173-13.387-.071-.759-.096-2.123-1.058-2.64.752 2.248.477 5.367.707 8.278.127 1.705.803 3.242.351 4.4-1.417-4.981-.251-12.545-3.528-15.679 2.028 4.437 1.544 11.381 2.471 16.92m-3.351-16.21c-.717.418-1.543 1.095-1.587 2.112-.135 3.54 1 10.155 1.415 13.387.783.337 1.837.403 2.994.359-1.3-4.874-.106-12.228-2.643-15.858zm-77.531.879c-.128.838.518 1.589.526 2.645.012.966-.874 2.039-.174 2.994-.339-2.528 2.349-3.994 1.059-5.81-.511.01-1.157-.099-1.411.171m-.882 2.997c.806-.842-.022-2.375-.53-2.997h-.528c-2.64 3.584-1.614 10.837-3.169 15.512.823.454 2.068.003 2.817-.18.625-3.701 2.503-8.647 1.41-12.335m-4.932 8.462c0-3.997 1.219-7.315 1.058-10.926-2.289 3.896-.568 11.493-2.645 15.504-2.564 4.94-11.15 2.613-17.091 4.232 5.878.368 11.177-.054 16.207-1.056 3.808-2.624 3.436-10.852 4.407-15.863.137-.7.659-1.93.174-1.936-1.223 2.822-1.049 7.044-2.11 10.045m52.157-9.518c-2.25.353-4.078-.435-6.875-.708-3.216-.312-6.315 1.192-9.165 1.061-3.203-.153-6.296-2.086-9.162-.18.263 1.682 1.432 2.452 2.118 3.7 3.001-1.506 5.711.86 9.163.356 1.162-.175 2.373-.919 3.702-1.059 3.329-.353 6.74 1.086 9.686.703 3.247-.418 5.571-1.408 7.583.356.749-1.068 1.79-1.85 1.933-3.525-2.83-1.917-6.279-1.127-8.983-.704m30.306 12.678c-.509-4.557-.798-8.438-1.582-12.854-.04-.142-.148-.207-.353-.177.79 4.198.79 9.198 1.935 13.031m1.234 2.82c1.332.091 2.489.337 3.883.361.005-.892-.611-1.155-.884-1.764h-3.351c-.145.736.347.833.352 1.403m-84.227.709c1.356.008 2.41-.293 3.699-.347v-1.233c-1.702.05-3.444.07-3.699 1.58m20.967 1.064c-.609.125-1.326-.543-1.761 0 .646.059 1.405.641 1.761 0" class="st0"/><path d="M23.316 111.003v-1.373h3.545v3.245q-.516.5-1.498.88a5.5 5.5 0 0 1-1.985.381q-1.278-.001-2.228-.536a3.4 3.4 0 0 1-1.427-1.533 4.95 4.95 0 0 1-.477-2.169q-.002-1.272.533-2.262a3.6 3.6 0 0 1 1.56-1.516q.784-.406 1.948-.406 1.517.001 2.37.638.852.636 1.098 1.757l-1.634.305a1.75 1.75 0 0 0-.644-.948q-.477-.345-1.189-.346-1.075.001-1.712.683-.638.682-.638 2.026-.001 1.453.646 2.176.645.725 1.688.725.515-.002 1.036-.201.519-.207.891-.494v-1.032zm4.726-1.029q0-1.243.373-2.086.28-.623.757-1.117.48-.495 1.054-.732.76-.323 1.754-.324 1.798 0 2.881 1.118 1.08 1.116 1.079 3.102 0 1.974-1.073 3.087-1.069 1.115-2.866 1.115-1.814-.001-2.886-1.108-1.071-1.108-1.073-3.055m1.695-.054q0 1.384.639 2.096.637.714 1.621.713.983 0 1.614-.707.63-.708.631-2.125.001-1.4-.616-2.088-.612-.69-1.629-.69t-1.638.7q-.62.696-.622 2.101m9.564 4.076-2.909-8.141h1.781l2.061 6.024 1.994-6.024h1.744l-2.917 8.141zm5.51 0v-8.141h6.038v1.378h-4.393v1.803h4.088v1.373h-4.088v2.216h4.549v1.371zm7.593.001v-8.141h3.459q1.305 0 1.899.219.591.219.945.778.359.563.358 1.284 0 .918-.54 1.515t-1.611.752q.534.314.88.683.346.373.936 1.322l.993 1.589h-1.967l-1.187-1.773q-.632-.948-.867-1.198a1.24 1.24 0 0 0-.494-.336q-.261-.094-.828-.094h-.332v3.4zm1.645-4.699h1.216q1.184 0 1.476-.1a.9.9 0 0 0 .462-.344q.167-.244.167-.612 0-.412-.219-.661a1 1 0 0 0-.617-.32q-.202-.03-1.203-.029h-1.282zm6.581 4.698v-8.141h1.601l3.333 5.437v-5.437h1.526v8.141h-1.649l-3.282-5.308v5.308zm8.176 0v-8.141h2.46l1.479 5.554 1.462-5.554h2.464v8.141h-1.528v-6.408l-1.616 6.408h-1.582l-1.61-6.408v6.408zm9.498 0v-8.141h6.038v1.378h-4.393v1.803h4.088v1.373h-4.088v2.216h4.549v1.371zm7.603 0v-8.141h1.601l3.333 5.437v-5.437h1.528v8.141h-1.651l-3.283-5.308v5.308zm10.033 0v-6.763h-2.415v-1.378h6.47v1.378h-2.411v6.763zm7.943-4.022q0-1.243.373-2.086.276-.623.757-1.117.48-.495 1.052-.732.762-.323 1.756-.324 1.798 0 2.881 1.118 1.079 1.116 1.079 3.102 0 1.974-1.073 3.087-1.072 1.115-2.866 1.115-1.814-.001-2.888-1.108-1.07-1.108-1.071-3.055m1.695-.054q0 1.384.639 2.096.637.714 1.621.713.981 0 1.614-.707.63-.708.631-2.125-.001-1.4-.616-2.088-.612-.69-1.629-.69t-1.639.7q-.622.696-.621 2.101m7.497 4.076v-8.141h5.583v1.378h-3.939v1.926h3.399v1.379h-3.399v3.458zM8.47 127.647l-1.944-8.143h1.685l1.224 5.594 1.489-5.594h1.957l1.425 5.689 1.25-5.689h1.658l-1.98 8.143h-1.743l-1.622-6.089-1.616 6.089zm9.58 0v-8.143h6.039v1.378h-4.394v1.804h4.088v1.371h-4.088v2.218h4.549v1.372zm7.171-2.651 1.601-.155q.145.806.585 1.184.441.377 1.191.378.795.001 1.198-.337.403-.337.403-.784a.74.74 0 0 0-.169-.492q-.17-.201-.592-.353a20 20 0 0 0-1.316-.356q-1.323-.327-1.855-.805-.751-.673-.751-1.639 0-.623.353-1.162a2.2 2.2 0 0 1 1.017-.826q.664-.282 1.602-.283 1.53.002 2.307.671.774.675.815 1.796l-1.646.071q-.105-.627-.45-.901-.349-.276-1.042-.277-.717 0-1.123.297a.59.59 0 0 0-.26.504q0 .287.245.493.31.263 1.51.543 1.2.287 1.776.587c.383.204.681.477.901.83.216.347.324.783.324 1.295q0 .7-.388 1.311a2.34 2.34 0 0 1-1.1.909q-.713.296-1.773.297-1.547 0-2.371-.713-.831-.718-.992-2.083m9.836 2.651v-6.765h-2.415v-1.378h6.472v1.378h-2.412v6.765zm5.118 0v-8.143h6.036v1.378h-4.394v1.804h4.089v1.371h-4.089v2.218h4.551v1.372zm7.592 0v-8.143h3.459q1.307 0 1.897.219.592.22.946.781.356.56.356 1.282 0 .918-.538 1.515-.539.596-1.612.752c.358.207.649.435.882.683.229.248.543.688.934 1.322l.993 1.589h-1.965l-1.189-1.773q-.63-.948-.867-1.198a1.25 1.25 0 0 0-.492-.337q-.262-.093-.828-.093h-.333v3.4zm1.643-4.701h1.218q1.182 0 1.476-.098a.9.9 0 0 0 .464-.344q.165-.246.165-.612 0-.41-.221-.663-.22-.254-.617-.32-.203-.029-1.201-.029H49.41zm6.582 4.701v-8.143h1.6l3.333 5.437v-5.437h1.528v8.143h-1.651l-3.282-5.312v5.312zm18.28 0h-1.788l-.712-1.849h-3.254l-.673 1.849h-1.744l3.171-8.143h1.739zm-3.026-3.222-1.122-3.022-1.101 3.022zm3.888-4.921h1.644v4.409q0 1.05.061 1.361.105.5.503.805.395.302 1.086.302.7 0 1.054-.285a1.13 1.13 0 0 0 .428-.703q.073-.418.073-1.383v-4.505h1.644v4.276q0 1.468-.135 2.073a2.3 2.3 0 0 1-.491 1.022 2.5 2.5 0 0 1-.958.665q-.601.246-1.565.246-1.167 0-1.771-.27-.602-.27-.951-.7a2.2 2.2 0 0 1-.46-.902q-.162-.7-.162-2.068zm7.809 5.492 1.601-.155q.143.806.585 1.184t1.191.378q.796.001 1.198-.337.403-.337.403-.784a.74.74 0 0 0-.17-.492q-.168-.201-.59-.353a20 20 0 0 0-1.316-.356q-1.324-.327-1.855-.805-.751-.673-.751-1.639 0-.623.353-1.162.35-.544 1.017-.826.662-.282 1.602-.283 1.531.002 2.307.671.775.675.813 1.796l-1.644.071q-.105-.627-.45-.901-.349-.276-1.042-.277-.717 0-1.123.297a.59.59 0 0 0-.26.504q0 .287.245.493.31.263 1.51.543 1.2.287 1.774.587c.385.204.683.477.902.83.214.347.324.783.324 1.295q0 .7-.391 1.311a2.3 2.3 0 0 1-1.096.909q-.713.296-1.773.297-1.547 0-2.371-.713-.832-.718-.993-2.083m9.836 2.651v-6.765h-2.415v-1.378h6.472v1.378h-2.412v6.765zm5.122 0v-8.143h3.461q1.305 0 1.897.219.592.22.946.781.357.56.356 1.282 0 .918-.54 1.515-.538.596-1.611.752.533.31.882.683.346.372.934 1.322l.993 1.589h-1.965l-1.189-1.773q-.634-.948-.867-1.198a1.25 1.25 0 0 0-.492-.337q-.262-.093-.828-.093h-.334v3.4zm1.644-4.701h1.218q1.182 0 1.476-.098a.87.87 0 0 0 .46-.344q.167-.246.167-.612 0-.41-.219-.663-.22-.254-.617-.32-.203-.029-1.201-.029h-1.284zm13.908 4.701h-1.788l-.712-1.849H107.7l-.673 1.849h-1.744l3.171-8.143h1.739zm-3.026-3.222-1.122-3.022-1.101 3.022zm3.944 3.222v-8.076h1.644v6.704h4.089v1.372zm6.854-8.142h1.644v8.143h-1.644zm10.553 8.142h-1.788l-.712-1.849h-3.254l-.673 1.849h-1.744l3.171-8.143h1.739zm-3.026-3.222-1.122-3.022-1.101 3.022zm13.806-89.291V17.929h5.927q2.005 0 3.063.246 1.478.341 2.523 1.233 1.36 1.149 2.034 2.94.677 1.788.676 4.09 0 1.958-.457 3.473-.46 1.515-1.174 2.506-.716.991-1.567 1.56-.85.57-2.054.864-1.201.294-2.764.293zm2.275-2.031h3.673q1.703 0 2.67-.317.97-.316 1.545-.892.806-.81 1.262-2.177.45-1.367.45-3.314 0-2.7-.885-4.149-.886-1.45-2.154-1.941-.916-.354-2.945-.353h-3.616zm23.344-1.983 2.182.27q-.514 1.913-1.914 2.968-1.393 1.058-3.566 1.058-2.736 0-4.336-1.685-1.603-1.684-1.604-4.724 0-3.145 1.621-4.881 1.618-1.738 4.203-1.737 2.498 0 4.083 1.702t1.584 4.788q0 .187-.012.563h-9.295q.118 2.052 1.162 3.146 1.044 1.09 2.606 1.091 1.161 0 1.982-.611c.55-.406.982-1.056 1.304-1.948m-6.936-3.415h6.957q-.14-1.573-.796-2.36-1.009-1.22-2.618-1.219-1.454 0-2.446.973-.99.974-1.097 2.606m11.772 12.205V22.669h1.924v1.621q.678-.951 1.537-1.427.856-.476 2.076-.476 1.598.001 2.818.821 1.22.822 1.843 2.319.622 1.495.621 3.279 0 1.914-.686 3.446-.686 1.53-1.995 2.346-1.308.817-2.753.816-1.056 0-1.894-.445a4.3 4.3 0 0 1-1.38-1.127v6.067zm1.912-10.938q0 2.407.973 3.555.975 1.15 2.36 1.15 1.408 0 2.412-1.191 1.003-1.191 1.004-3.69 0-2.383-.98-3.569t-2.341-1.186q-1.35 0-2.39 1.263-1.038 1.262-1.038 3.668m19.588 4.624q-1.174.998-2.26 1.408a6.5 6.5 0 0 1-2.329.412q-2.053-.001-3.157-1.004-1.102-1.005-1.103-2.565 0-.914.417-1.671a3.45 3.45 0 0 1 1.091-1.214q.676-.457 1.521-.693.62-.164 1.876-.317 2.56-.304 3.768-.727.012-.435.012-.552.002-1.292-.599-1.82c-.538-.477-1.343-.715-2.405-.715q-1.49 0-2.201.523-.709.52-1.049 1.847l-2.066-.282q.283-1.326.928-2.14.643-.817 1.865-1.257t2.827-.44q1.599 0 2.594.376.998.375 1.469.945.468.569.656 1.437.106.541.106 1.948v2.817q0 2.947.135 3.727.134.78.535 1.496h-2.208a4.4 4.4 0 0 1-.423-1.539m-.177-4.718q-1.15.469-3.449.798-1.304.187-1.842.423a1.81 1.81 0 0 0-1.128 1.69q0 .844.641 1.408.638.562 1.87.563 1.22 0 2.171-.535.951-.534 1.397-1.461.342-.716.341-2.113zm5.387 6.255V22.671h1.901v1.889q.727-1.326 1.344-1.749.614-.422 1.354-.422 1.067 0 2.172.68l-.729 1.96q-.775-.457-1.548-.457-.693 0-1.245.417-.553.416-.786 1.155a8.3 8.3 0 0 0-.353 2.464v6.526zm12.639-1.889.307 1.865a8 8 0 0 1-1.597.189q-1.15 0-1.784-.364-.633-.365-.891-.956-.258-.592-.258-2.495v-7.17h-1.552V22.67h1.552v-3.087l2.1-1.268v4.355h2.123v1.643h-2.123v7.288q0 .903.111 1.162a.87.87 0 0 0 .364.41q.251.154.72.153.353 0 .928-.082m2.067 1.889V22.671h1.889v1.747a4.4 4.4 0 0 1 1.56-1.472q.973-.557 2.218-.557 1.385 0 2.27.575a3.06 3.06 0 0 1 1.25 1.607q1.479-2.184 3.851-2.183 1.853 0 2.852 1.025.997 1.027.997 3.164v8.555h-2.102v-7.851q0-1.268-.204-1.825a1.77 1.77 0 0 0-.745-.897q-.54-.342-1.267-.341-1.316 0-2.184.874-.869.875-.869 2.8v7.241h-2.112v-8.098q0-1.408-.516-2.113-.516-.703-1.69-.703-.892 0-1.65.469-.756.47-1.096 1.373-.341.905-.341 2.606v6.467zm28.551-4.013 2.184.27q-.516 1.913-1.913 2.968-1.397 1.058-3.567 1.058-2.735 0-4.336-1.685c-1.601-1.685-1.602-2.697-1.602-4.724q0-3.145 1.619-4.881 1.62-1.738 4.201-1.737 2.499 0 4.083 1.702 1.586 1.701 1.584 4.788 0 .187-.01.563h-9.295q.117 2.052 1.162 3.146 1.044 1.09 2.606 1.091 1.16 0 1.983-.611.82-.61 1.301-1.948m-6.935-3.415h6.961q-.142-1.573-.798-2.36-1.01-1.22-2.618-1.219-1.455 0-2.447.973-.992.974-1.098 2.606m11.771 7.428V22.671h1.903v1.771q1.374-2.054 3.965-2.053 1.13-.001 2.071.405.947.404 1.415 1.061.471.659.656 1.562.12.587.118 2.053v7.664h-2.112v-7.581q0-1.29-.248-1.931a2.03 2.03 0 0 0-.872-1.02q-.627-.382-1.474-.381-1.35 0-2.329.857-.98.858-.98 3.25v6.807h-2.113zm17.98-1.889.304 1.865a8 8 0 0 1-1.596.189q-1.148 0-1.783-.364-.634-.365-.892-.956-.26-.592-.258-2.495v-7.17h-1.55V22.67h1.55v-3.087l2.1-1.268v4.355h2.125v1.643h-2.125v7.288q.001.903.113 1.162a.87.87 0 0 0 .364.41q.251.154.72.153.351 0 .928-.082m7.958-4.342q0-3.462 1.923-5.129 1.61-1.385 3.921-1.385 2.568 0 4.2 1.685 1.632 1.683 1.633 4.653 0 2.406-.724 3.785a5.1 5.1 0 0 1-2.098 2.14 6.1 6.1 0 0 1-3.011.764q-2.62 0-4.232-1.678-1.613-1.679-1.612-4.835m2.171 0q-.001 2.394 1.044 3.586t2.629 1.191q1.572 0 2.616-1.198 1.046-1.197 1.046-3.65 0-2.312-1.052-3.503-1.049-1.191-2.609-1.191-1.586 0-2.629 1.186c-.7.789-1.045 1.983-1.045 3.579m12.486 6.231v-10.82h-1.867V22.67h1.867v-1.327q0-1.256.223-1.865a2.7 2.7 0 0 1 1.073-1.332q.77-.511 2.156-.511.891 0 1.972.213l-.317 1.842a7 7 0 0 0-1.243-.116q-.964 0-1.363.41t-.398 1.538v1.15h2.429v1.643h-2.429v10.82h-2.103zM142.452 63.975V46.77h12.756v2.911h-9.283v3.813h8.639v2.9h-8.639v4.682h9.612v2.899zm27.438.001h-3.063v-1.832q-.763 1.069-1.801 1.59-1.038.523-2.095.523-2.15 0-3.679-1.732-1.532-1.73-1.531-4.829 0-3.167 1.489-4.817t3.768-1.65q2.087 0 3.614 1.737V46.77h3.297zm-8.801-6.502q-.001 1.995.552 2.888.798 1.29 2.228 1.29 1.138 0 1.938-.968.798-.968.796-2.893.001-2.147-.772-3.093-.775-.944-1.983-.945-1.173 0-1.967.933-.793.933-.792 2.788m20.256 6.501V62.11a4.8 4.8 0 0 1-1.791 1.572 5 5 0 0 1-2.341.575q-1.256 0-2.253-.552a3.25 3.25 0 0 1-1.442-1.55q-.448-.997-.447-2.758v-7.885h3.297v5.726q.001 2.629.182 3.221.183.593.663.939t1.223.346q.844 0 1.513-.464.669-.463.916-1.15.246-.687.246-3.361v-5.257h3.297v12.463zm17.345-8.778-3.25.587q-.166-.974-.745-1.467c-.579-.493-.889-.492-1.508-.492q-1.232 0-1.965.85-.736.851-.735 2.847 0 2.218.745 3.134.746.914 2 .914.94 0 1.538-.533.598-.534.845-1.837l3.238.552q-.503 2.23-1.936 3.368-1.43 1.138-3.837 1.138-2.736 0-4.358-1.725-1.629-1.725-1.628-4.777.001-3.087 1.631-4.805 1.632-1.72 4.414-1.72 2.275 0 3.62.98 1.343.98 1.931 2.986m4.965.116-2.994-.54q.503-1.806 1.737-2.675 1.231-.869 3.662-.869 2.206 0 3.286.523 1.081.52 1.52 1.326.44.804.44 2.952l-.035 3.849q0 1.644.159 2.424.16.78.592 1.673h-3.262a13 13 0 0 1-.317-.975 6 6 0 0 0-.116-.386q-.845.82-1.808 1.231a5.2 5.2 0 0 1-2.053.412q-1.927 0-3.036-1.046-1.107-1.044-1.106-2.64-.002-1.057.503-1.884a3.3 3.3 0 0 1 1.415-1.268q.909-.438 2.623-.767 2.312-.435 3.205-.81v-.329q0-.951-.471-1.356-.469-.405-1.773-.405-.879 0-1.371.346-.496.347-.8 1.214m4.413 2.677q-.634.21-2.007.504t-1.796.575q-.645.458-.646 1.162.001.692.518 1.198.515.504 1.314.504.892 0 1.702-.587.6-.446.786-1.091.13-.423.13-1.607zm12.203-6.478v2.629h-2.253v5.023q0 1.525.066 1.778.063.253.293.417.227.165.558.164.455 0 1.326-.317l.28 2.559q-1.15.494-2.606.494a4.1 4.1 0 0 1-1.606-.3q-.717-.298-1.052-.774-.332-.475-.462-1.285-.105-.576-.106-2.324v-5.433h-1.515v-2.629h1.515v-2.476l3.309-1.924v4.4h2.253zm2.29-4.742h3.299v3.051h-3.299zm0 4.741h3.299v12.463h-3.299zm5.914 6.057q.001-1.644.81-3.181.81-1.538 2.296-2.348t3.314-.81q2.83 0 4.638 1.837 1.805 1.836 1.806 4.642 0 2.829-1.825 4.689-1.826 1.86-4.594 1.86a7.25 7.25 0 0 1-3.269-.774 5.32 5.32 0 0 1-2.366-2.272q-.81-1.495-.81-3.643m3.381.175q0 1.854.879 2.84.88.986 2.172.985 1.29.001 2.164-.985.876-.987.875-2.864 0-1.83-.875-2.817-.874-.986-2.164-.985-1.292-.001-2.172.985-.88.988-.879 2.841m23.4 6.232h-3.297v-6.36q.002-2.019-.213-2.611a1.83 1.83 0 0 0-.685-.923q-.475-.329-1.145-.329a2.64 2.64 0 0 0-1.537.471 2.36 2.36 0 0 0-.933 1.243q-.253.776-.253 2.864v5.645h-3.299V51.513h3.065v1.83q1.631-2.112 4.107-2.112 1.092 0 1.997.393.902.392 1.366 1.002c.307.408.525.869.644 1.386q.182.774.182 2.218z" style="fill:#231f20"/></svg>